<svg width="23" height="25" viewBox="0 0 23 25" fill="none" xmlns="http://www.w3.org/2000/svg">
<path fill-rule="evenodd" clip-rule="evenodd" d="M7.03127 2.42288C5.48802 2.82239 3.95478 3.25692 2.43283 3.72613C2.2951 3.76707 2.17216 3.84459 2.07813 3.9498C1.9841 4.05501 1.9228 4.18362 1.90127 4.32087C1.00183 10.6535 3.07746 15.275 5.55302 18.3186C6.79502 19.8461 8.13996 20.9771 9.26046 21.7197C9.82239 22.0902 10.3168 22.36 10.7066 22.5322C10.9024 22.6184 11.061 22.6769 11.1825 22.711C11.2361 22.7276 11.2908 22.7406 11.3462 22.75C11.358 22.7484 11.4103 22.7419 11.5099 22.7126C11.6314 22.6769 11.79 22.6184 11.9858 22.5322C12.3739 22.36 12.8717 22.0902 13.432 21.7197C14.837 20.7704 16.0866 19.624 17.1394 18.3186C19.615 15.275 21.6906 10.6535 20.7911 4.32087C20.7696 4.18362 20.7083 4.05501 20.6143 3.9498C20.5203 3.84459 20.3973 3.76707 20.2596 3.72613C19.2032 3.40112 17.4212 2.87138 15.6611 2.42288C13.8623 1.96625 12.2068 1.625 11.3462 1.625C10.4856 1.625 8.83183 1.96625 7.03127 2.42288ZM6.59927 0.853125C8.35933 0.404625 10.2274 0 11.3462 0C12.4633 0 14.3331 0.404625 16.0931 0.853125C17.663 1.25901 19.2227 1.70059 20.7709 2.1775C21.6619 2.4505 22.3335 3.18988 22.4635 4.1015C23.4304 10.9216 21.1877 15.9754 18.4691 19.3196C17.3106 20.7548 15.9352 22.0147 14.3888 23.0571C13.851 23.4198 13.2826 23.7384 12.6895 24.0094C12.2338 24.2109 11.7478 24.375 11.3462 24.375C10.9446 24.375 10.4586 24.2109 10.003 24.0094C9.40968 23.7386 8.84122 23.4201 8.30364 23.0571C6.7578 22.0145 5.38296 20.7547 4.22496 19.3196C1.50302 15.9754 -0.737979 10.9216 0.228958 4.1015C0.293608 3.65962 0.486888 3.2444 0.786426 2.9039C1.08596 2.5634 1.47951 2.31155 1.92152 2.1775C3.46971 1.7006 5.0294 1.25902 6.59927 0.853125Z" fill="white"/>
<path d="M11.3462 2.84375C12.8801 2.84375 16.726 3.95687 18.5248 4.5045C18.8147 4.59009 19.0731 4.75391 19.2693 4.97653C19.4655 5.19915 19.5913 5.47126 19.6318 5.76062C21.0055 16.1996 12.6625 21.1201 11.3462 21.1201V2.84375Z" fill="white"/>
</svg>
