
<svg width="1154" height="141" viewBox="0 0 1154 141" fill="none" xmlns="http://www.w3.org/2000/svg">
<path d="M17.775 112.854V130.354H15.275V122.554H5.225V130.354H2.725V112.854H5.225V120.379H15.275V112.854H17.775ZM27.5578 116.979C29.3911 116.979 30.7911 117.429 31.7578 118.329C32.7411 119.229 33.2328 120.571 33.2328 122.354V130.354H30.9578V128.604C30.5578 129.221 29.9828 129.696 29.2328 130.029C28.4995 130.346 27.6245 130.504 26.6078 130.504C25.1245 130.504 23.9328 130.146 23.0328 129.429C22.1495 128.713 21.7078 127.771 21.7078 126.604C21.7078 125.438 22.1328 124.504 22.9828 123.804C23.8328 123.088 25.1828 122.729 27.0328 122.729H30.8328V122.254C30.8328 121.221 30.5328 120.429 29.9328 119.879C29.3328 119.329 28.4495 119.054 27.2828 119.054C26.4995 119.054 25.7328 119.188 24.9828 119.454C24.2328 119.704 23.5995 120.046 23.0828 120.479L22.0828 118.679C22.7661 118.129 23.5828 117.713 24.5328 117.429C25.4828 117.129 26.4911 116.979 27.5578 116.979ZM27.0078 128.654C27.9245 128.654 28.7161 128.454 29.3828 128.054C30.0495 127.638 30.5328 127.054 30.8328 126.304V124.454H27.1328C25.0995 124.454 24.0828 125.138 24.0828 126.504C24.0828 127.171 24.3411 127.696 24.8578 128.079C25.3745 128.463 26.0911 128.654 27.0078 128.654ZM56.4295 117.104V130.354H37.5545V117.104H39.9545V128.254H45.8045V117.104H48.2045V128.254H54.0295V117.104H56.4295ZM76.0785 130.354L72.2535 125.279L68.3785 130.354H65.7035L70.9285 123.579L65.9535 117.104H68.6285L72.2785 121.879L75.9035 117.104H78.5285L73.5285 123.579L78.8035 130.354H76.0785ZM86.5645 130.504C85.2478 130.504 84.0645 130.213 83.0145 129.629C81.9645 129.046 81.1395 128.246 80.5395 127.229C79.9561 126.196 79.6645 125.029 79.6645 123.729C79.6645 122.429 79.9561 121.271 80.5395 120.254C81.1395 119.221 81.9645 118.421 83.0145 117.854C84.0645 117.271 85.2478 116.979 86.5645 116.979C87.8811 116.979 89.0561 117.271 90.0895 117.854C91.1395 118.421 91.9561 119.221 92.5395 120.254C93.1395 121.271 93.4395 122.429 93.4395 123.729C93.4395 125.029 93.1395 126.196 92.5395 127.229C91.9561 128.246 91.1395 129.046 90.0895 129.629C89.0561 130.213 87.8811 130.504 86.5645 130.504ZM86.5645 128.404C87.4145 128.404 88.1728 128.213 88.8395 127.829C89.5228 127.429 90.0561 126.879 90.4395 126.179C90.8228 125.463 91.0145 124.646 91.0145 123.729C91.0145 122.813 90.8228 122.004 90.4395 121.304C90.0561 120.588 89.5228 120.038 88.8395 119.654C88.1728 119.271 87.4145 119.079 86.5645 119.079C85.7145 119.079 84.9478 119.271 84.2645 119.654C83.5978 120.038 83.0645 120.588 82.6645 121.304C82.2811 122.004 82.0895 122.813 82.0895 123.729C82.0895 124.646 82.2811 125.463 82.6645 126.179C83.0645 126.879 83.5978 127.429 84.2645 127.829C84.9478 128.213 85.7145 128.404 86.5645 128.404ZM108.182 117.104V130.354H105.782V119.204H100.082L99.9324 122.154C99.8491 123.938 99.6908 125.429 99.4574 126.629C99.2241 127.813 98.8408 128.763 98.3074 129.479C97.7741 130.196 97.0324 130.554 96.0824 130.554C95.6491 130.554 95.1574 130.479 94.6074 130.329L94.7574 128.304C94.9741 128.354 95.1741 128.379 95.3574 128.379C96.0241 128.379 96.5241 128.088 96.8574 127.504C97.1908 126.921 97.4074 126.229 97.5074 125.429C97.6074 124.629 97.6991 123.488 97.7824 122.004L98.0074 117.104H108.182ZM118.498 130.504C117.181 130.504 115.998 130.213 114.948 129.629C113.898 129.046 113.073 128.246 112.473 127.229C111.89 126.196 111.598 125.029 111.598 123.729C111.598 122.429 111.89 121.271 112.473 120.254C113.073 119.221 113.898 118.421 114.948 117.854C115.998 117.271 117.181 116.979 118.498 116.979C119.815 116.979 120.99 117.271 122.023 117.854C123.073 118.421 123.89 119.221 124.473 120.254C125.073 121.271 125.373 122.429 125.373 123.729C125.373 125.029 125.073 126.196 124.473 127.229C123.89 128.246 123.073 129.046 122.023 129.629C120.99 130.213 119.815 130.504 118.498 130.504ZM118.498 128.404C119.348 128.404 120.106 128.213 120.773 127.829C121.456 127.429 121.99 126.879 122.373 126.179C122.756 125.463 122.948 124.646 122.948 123.729C122.948 122.813 122.756 122.004 122.373 121.304C121.99 120.588 121.456 120.038 120.773 119.654C120.106 119.271 119.348 119.079 118.498 119.079C117.648 119.079 116.881 119.271 116.198 119.654C115.531 120.038 114.998 120.588 114.598 121.304C114.215 122.004 114.023 122.813 114.023 123.729C114.023 124.646 114.215 125.463 114.598 126.179C114.998 126.879 115.531 127.429 116.198 127.829C116.881 128.213 117.648 128.404 118.498 128.404ZM142.216 128.254V133.429H139.966V130.354H128.891V133.429H126.616V128.254H127.316C128.166 128.204 128.749 127.604 129.066 126.454C129.383 125.304 129.599 123.679 129.716 121.579L129.916 117.104H140.191V128.254H142.216ZM131.916 121.754C131.849 123.421 131.708 124.804 131.491 125.904C131.291 126.988 130.916 127.771 130.366 128.254H137.791V119.204H132.041L131.916 121.754ZM151.156 122.454H157.881V124.529H151.156V122.454ZM175.516 123.454C176.399 123.688 177.082 124.063 177.566 124.579C178.049 125.096 178.291 125.738 178.291 126.504C178.291 127.288 178.024 127.988 177.491 128.604C176.957 129.204 176.216 129.679 175.266 130.029C174.332 130.363 173.282 130.529 172.116 130.529C171.132 130.529 170.166 130.404 169.216 130.154C168.282 129.888 167.449 129.513 166.716 129.029L167.441 127.204C168.074 127.604 168.799 127.921 169.616 128.154C170.432 128.371 171.257 128.479 172.091 128.479C173.224 128.479 174.124 128.288 174.791 127.904C175.474 127.504 175.816 126.971 175.816 126.304C175.816 125.688 175.541 125.213 174.991 124.879C174.457 124.546 173.699 124.379 172.716 124.379H170.291V122.654H172.541C173.441 122.654 174.149 122.496 174.666 122.179C175.182 121.863 175.441 121.429 175.441 120.879C175.441 120.279 175.132 119.813 174.516 119.479C173.916 119.146 173.099 118.979 172.066 118.979C170.749 118.979 169.357 119.321 167.891 120.004L167.241 118.154C168.857 117.338 170.549 116.929 172.316 116.929C173.382 116.929 174.341 117.079 175.191 117.379C176.041 117.679 176.707 118.104 177.191 118.654C177.674 119.204 177.916 119.829 177.916 120.529C177.916 121.179 177.699 121.763 177.266 122.279C176.832 122.796 176.249 123.188 175.516 123.454ZM186.664 116.979C188.498 116.979 189.898 117.429 190.864 118.329C191.848 119.229 192.339 120.571 192.339 122.354V130.354H190.064V128.604C189.664 129.221 189.089 129.696 188.339 130.029C187.606 130.346 186.731 130.504 185.714 130.504C184.231 130.504 183.039 130.146 182.139 129.429C181.256 128.713 180.814 127.771 180.814 126.604C180.814 125.438 181.239 124.504 182.089 123.804C182.939 123.088 184.289 122.729 186.139 122.729H189.939V122.254C189.939 121.221 189.639 120.429 189.039 119.879C188.439 119.329 187.556 119.054 186.389 119.054C185.606 119.054 184.839 119.188 184.089 119.454C183.339 119.704 182.706 120.046 182.189 120.479L181.189 118.679C181.873 118.129 182.689 117.713 183.639 117.429C184.589 117.129 185.598 116.979 186.664 116.979ZM186.114 128.654C187.031 128.654 187.823 128.454 188.489 128.054C189.156 127.638 189.639 127.054 189.939 126.304V124.454H186.239C184.206 124.454 183.189 125.138 183.189 126.504C183.189 127.171 183.448 127.696 183.964 128.079C184.481 128.463 185.198 128.654 186.114 128.654ZM208.036 117.104V130.354H205.636V119.204H199.936L199.786 122.154C199.703 123.938 199.544 125.429 199.311 126.629C199.078 127.813 198.694 128.763 198.161 129.479C197.628 130.196 196.886 130.554 195.936 130.554C195.503 130.554 195.011 130.479 194.461 130.329L194.611 128.304C194.828 128.354 195.028 128.379 195.211 128.379C195.878 128.379 196.378 128.088 196.711 127.504C197.044 126.921 197.261 126.229 197.361 125.429C197.461 124.629 197.553 123.488 197.636 122.004L197.861 117.104H208.036ZM218.352 130.504C217.035 130.504 215.852 130.213 214.802 129.629C213.752 129.046 212.927 128.246 212.327 127.229C211.743 126.196 211.452 125.029 211.452 123.729C211.452 122.429 211.743 121.271 212.327 120.254C212.927 119.221 213.752 118.421 214.802 117.854C215.852 117.271 217.035 116.979 218.352 116.979C219.668 116.979 220.843 117.271 221.877 117.854C222.927 118.421 223.743 119.221 224.327 120.254C224.927 121.271 225.227 122.429 225.227 123.729C225.227 125.029 224.927 126.196 224.327 127.229C223.743 128.246 222.927 129.046 221.877 129.629C220.843 130.213 219.668 130.504 218.352 130.504ZM218.352 128.404C219.202 128.404 219.96 128.213 220.627 127.829C221.31 127.429 221.843 126.879 222.227 126.179C222.61 125.463 222.802 124.646 222.802 123.729C222.802 122.813 222.61 122.004 222.227 121.304C221.843 120.588 221.31 120.038 220.627 119.654C219.96 119.271 219.202 119.079 218.352 119.079C217.502 119.079 216.735 119.271 216.052 119.654C215.385 120.038 214.852 120.588 214.452 121.304C214.068 122.004 213.877 122.813 213.877 123.729C213.877 124.646 214.068 125.463 214.452 126.179C214.852 126.879 215.385 127.429 216.052 127.829C216.735 128.213 217.502 128.404 218.352 128.404ZM238.442 119.204H231.092V130.354H228.692V117.104H238.442V119.204ZM256.638 123.479C258.355 123.913 259.213 124.988 259.213 126.704C259.213 127.871 258.771 128.771 257.888 129.404C257.021 130.038 255.721 130.354 253.988 130.354H247.613V117.104H253.763C255.33 117.104 256.555 117.404 257.438 118.004C258.321 118.588 258.763 119.421 258.763 120.504C258.763 121.204 258.571 121.813 258.188 122.329C257.821 122.829 257.305 123.213 256.638 123.479ZM249.963 122.804H253.563C254.48 122.804 255.171 122.638 255.638 122.304C256.121 121.971 256.363 121.488 256.363 120.854C256.363 119.588 255.43 118.954 253.563 118.954H249.963V122.804ZM253.813 128.504C254.813 128.504 255.563 128.346 256.063 128.029C256.563 127.713 256.813 127.221 256.813 126.554C256.813 125.871 256.58 125.363 256.113 125.029C255.663 124.696 254.946 124.529 253.963 124.529H249.963V128.504H253.813ZM267.695 116.979C269.528 116.979 270.928 117.429 271.895 118.329C272.878 119.229 273.37 120.571 273.37 122.354V130.354H271.095V128.604C270.695 129.221 270.12 129.696 269.37 130.029C268.636 130.346 267.761 130.504 266.745 130.504C265.261 130.504 264.07 130.146 263.17 129.429C262.286 128.713 261.845 127.771 261.845 126.604C261.845 125.438 262.27 124.504 263.12 123.804C263.97 123.088 265.32 122.729 267.17 122.729H270.97V122.254C270.97 121.221 270.67 120.429 270.07 119.879C269.47 119.329 268.586 119.054 267.42 119.054C266.636 119.054 265.87 119.188 265.12 119.454C264.37 119.704 263.736 120.046 263.22 120.479L262.22 118.679C262.903 118.129 263.72 117.713 264.67 117.429C265.62 117.129 266.628 116.979 267.695 116.979ZM267.145 128.654C268.061 128.654 268.853 128.454 269.52 128.054C270.186 127.638 270.67 127.054 270.97 126.304V124.454H267.27C265.236 124.454 264.22 125.138 264.22 126.504C264.22 127.171 264.478 127.696 264.995 128.079C265.511 128.463 266.228 128.654 267.145 128.654ZM296.566 117.104V130.354H277.691V117.104H280.091V128.254H285.941V117.104H288.341V128.254H294.166V117.104H296.566ZM313.201 123.804C313.201 123.988 313.185 124.229 313.151 124.529H302.401C302.551 125.696 303.06 126.638 303.926 127.354C304.81 128.054 305.901 128.404 307.201 128.404C308.785 128.404 310.06 127.871 311.026 126.804L312.351 128.354C311.751 129.054 311.001 129.588 310.101 129.954C309.218 130.321 308.226 130.504 307.126 130.504C305.726 130.504 304.485 130.221 303.401 129.654C302.318 129.071 301.476 128.263 300.876 127.229C300.293 126.196 300.001 125.029 300.001 123.729C300.001 122.446 300.285 121.288 300.851 120.254C301.435 119.221 302.226 118.421 303.226 117.854C304.243 117.271 305.385 116.979 306.651 116.979C307.918 116.979 309.043 117.271 310.026 117.854C311.026 118.421 311.801 119.221 312.351 120.254C312.918 121.288 313.201 122.471 313.201 123.804ZM306.651 119.004C305.501 119.004 304.535 119.354 303.751 120.054C302.985 120.754 302.535 121.671 302.401 122.804H310.901C310.768 121.688 310.31 120.779 309.526 120.079C308.76 119.363 307.801 119.004 306.651 119.004ZM326.675 119.204H319.325V130.354H316.925V117.104H326.675V119.204ZM334.221 130.504C332.904 130.504 331.721 130.213 330.671 129.629C329.621 129.046 328.796 128.246 328.196 127.229C327.612 126.196 327.321 125.029 327.321 123.729C327.321 122.429 327.612 121.271 328.196 120.254C328.796 119.221 329.621 118.421 330.671 117.854C331.721 117.271 332.904 116.979 334.221 116.979C335.537 116.979 336.712 117.271 337.746 117.854C338.796 118.421 339.612 119.221 340.196 120.254C340.796 121.271 341.096 122.429 341.096 123.729C341.096 125.029 340.796 126.196 340.196 127.229C339.612 128.246 338.796 129.046 337.746 129.629C336.712 130.213 335.537 130.504 334.221 130.504ZM334.221 128.404C335.071 128.404 335.829 128.213 336.496 127.829C337.179 127.429 337.712 126.879 338.096 126.179C338.479 125.463 338.671 124.646 338.671 123.729C338.671 122.813 338.479 122.004 338.096 121.304C337.712 120.588 337.179 120.038 336.496 119.654C335.829 119.271 335.071 119.079 334.221 119.079C333.371 119.079 332.604 119.271 331.921 119.654C331.254 120.038 330.721 120.588 330.321 121.304C329.937 122.004 329.746 122.813 329.746 123.729C329.746 124.646 329.937 125.463 330.321 126.179C330.721 126.879 331.254 127.429 331.921 127.829C332.604 128.213 333.371 128.404 334.221 128.404ZM363.1 117.104L356.675 131.679C356.109 133.029 355.442 133.979 354.675 134.529C353.925 135.079 353.017 135.354 351.95 135.354C351.3 135.354 350.667 135.246 350.05 135.029C349.45 134.829 348.95 134.529 348.55 134.129L349.575 132.329C350.259 132.979 351.05 133.304 351.95 133.304C352.534 133.304 353.017 133.146 353.4 132.829C353.8 132.529 354.159 132.004 354.475 131.254L354.9 130.329L349.05 117.104H351.55L356.175 127.704L360.75 117.104H363.1ZM370.966 130.504C369.616 130.504 368.408 130.213 367.341 129.629C366.291 129.046 365.466 128.246 364.866 127.229C364.266 126.196 363.966 125.029 363.966 123.729C363.966 122.429 364.266 121.271 364.866 120.254C365.466 119.221 366.291 118.421 367.341 117.854C368.408 117.271 369.616 116.979 370.966 116.979C372.166 116.979 373.233 117.221 374.166 117.704C375.116 118.188 375.85 118.888 376.366 119.804L374.541 120.979C374.125 120.346 373.608 119.871 372.991 119.554C372.375 119.238 371.691 119.079 370.941 119.079C370.075 119.079 369.291 119.271 368.591 119.654C367.908 120.038 367.366 120.588 366.966 121.304C366.583 122.004 366.391 122.813 366.391 123.729C366.391 124.663 366.583 125.488 366.966 126.204C367.366 126.904 367.908 127.446 368.591 127.829C369.291 128.213 370.075 128.404 370.941 128.404C371.691 128.404 372.375 128.246 372.991 127.929C373.608 127.613 374.125 127.138 374.541 126.504L376.366 127.654C375.85 128.571 375.116 129.279 374.166 129.779C373.233 130.263 372.166 130.504 370.966 130.504ZM391.748 117.104V130.354H389.348V119.204H381.873V130.354H379.473V117.104H391.748ZM408.367 123.804C408.367 123.988 408.351 124.229 408.317 124.529H397.567C397.717 125.696 398.226 126.638 399.092 127.354C399.976 128.054 401.067 128.404 402.367 128.404C403.951 128.404 405.226 127.871 406.192 126.804L407.517 128.354C406.917 129.054 406.167 129.588 405.267 129.954C404.384 130.321 403.392 130.504 402.292 130.504C400.892 130.504 399.651 130.221 398.567 129.654C397.484 129.071 396.642 128.263 396.042 127.229C395.459 126.196 395.167 125.029 395.167 123.729C395.167 122.446 395.451 121.288 396.017 120.254C396.601 119.221 397.392 118.421 398.392 117.854C399.409 117.271 400.551 116.979 401.817 116.979C403.084 116.979 404.209 117.271 405.192 117.854C406.192 118.421 406.967 119.221 407.517 120.254C408.084 121.288 408.367 122.471 408.367 123.804ZM401.817 119.004C400.667 119.004 399.701 119.354 398.917 120.054C398.151 120.754 397.701 121.671 397.567 122.804H406.067C405.934 121.688 405.476 120.779 404.692 120.079C403.926 119.363 402.967 119.004 401.817 119.004ZM419.999 130.354L416.174 125.279L412.299 130.354H409.624L414.849 123.579L409.874 117.104H412.549L416.199 121.879L419.824 117.104H422.449L417.449 123.579L422.724 130.354H419.999ZM429.731 116.979C431.564 116.979 432.964 117.429 433.931 118.329C434.914 119.229 435.406 120.571 435.406 122.354V130.354H433.131V128.604C432.731 129.221 432.156 129.696 431.406 130.029C430.672 130.346 429.797 130.504 428.781 130.504C427.297 130.504 426.106 130.146 425.206 129.429C424.322 128.713 423.881 127.771 423.881 126.604C423.881 125.438 424.306 124.504 425.156 123.804C426.006 123.088 427.356 122.729 429.206 122.729H433.006V122.254C433.006 121.221 432.706 120.429 432.106 119.879C431.506 119.329 430.622 119.054 429.456 119.054C428.672 119.054 427.906 119.188 427.156 119.454C426.406 119.704 425.772 120.046 425.256 120.479L424.256 118.679C424.939 118.129 425.756 117.713 426.706 117.429C427.656 117.129 428.664 116.979 429.731 116.979ZM429.181 128.654C430.097 128.654 430.889 128.454 431.556 128.054C432.222 127.638 432.706 127.054 433.006 126.304V124.454H429.306C427.272 124.454 426.256 125.138 426.256 126.504C426.256 127.171 426.514 127.696 427.031 128.079C427.547 128.463 428.264 128.654 429.181 128.654Z" fill="white"/>
<path d="M1095.06 134.883H1042.93C1030.93 134.883 1015.54 128.945 1015.54 113.311C1015.54 92.7477 1015.54 72.1859 1015.54 51.6234C1015.54 35.1323 1028.94 29.374 1042.15 29.374C1068.65 29.374 1095.16 29.374 1121.66 29.374C1121.66 57.3525 1121.66 85.3324 1121.66 113.311C1121.66 127.948 1107.26 134.883 1095.06 134.883V134.883Z" fill="url(#paint0_radial)"/>
<path fill-rule="evenodd" clip-rule="evenodd" d="M1111.69 89.265L1098.74 97.1983L1093.8 94.1689L1106.78 86.2142L1101.22 82.8226L1088.25 90.7683L1078.94 85.0668H1087.65L1092.47 82.1233L1087.65 79.1791H1078.96L1088.25 73.4858L1101.22 81.4385L1106.78 78.0476L1093.79 70.086L1098.74 67.0559L1111.69 74.9947L1117.24 71.5983L1104.28 63.6581L1112.93 58.3561L1110.16 53.2578L1101.51 58.5563V42.6878L1095.97 46.0911V61.9548L1091.02 64.9842V49.0775L1085.48 52.4899V68.384L1076.17 74.0876L1080.52 66.0823L1080.53 60.1793L1075.72 63.1388L1071.37 71.1302V59.7472L1084.35 51.7947L1084.36 44.9894L1071.37 52.9489V46.8895L1084.33 38.9507L1084.33 32.1509L1071.37 40.0912V29.4893H1065.83V40.0842L1052.88 32.1509L1052.88 38.9507L1065.83 46.8839V52.942L1052.85 44.9894L1052.86 51.7947L1065.83 59.7403V71.1385L1061.47 63.1367L1056.66 60.1772L1056.67 66.081L1061.02 74.0842L1051.73 68.3881V52.4809L1046.18 49.0685V64.9876L1041.24 61.9582V46.0827L1035.69 42.6787V58.5598L1027.04 53.2599L1024.27 58.3582L1032.91 63.6547L1019.97 71.5893L1025.52 74.9863L1038.46 67.0545L1043.4 70.0846L1030.42 78.0373L1035.98 81.4302L1048.95 73.4824L1058.24 79.1756H1049.55L1044.72 82.1192L1049.55 85.0634L1058.26 85.0613L1048.95 90.767L1035.98 82.8123L1030.42 86.2052L1043.41 94.1654L1038.46 97.1948L1025.51 89.256L1019.96 92.6545L1032.92 100.595L1024.27 105.895L1027.04 110.993L1035.69 105.697V121.564L1041.23 118.162V102.297L1046.18 99.2666V115.176L1051.72 111.762V95.8688L1061.01 90.1777L1056.67 98.1601L1056.66 104.063L1061.47 101.104L1065.83 93.0928V104.506L1052.85 112.458L1052.84 119.263L1065.83 111.304V117.363L1052.87 125.302L1052.87 132.102L1065.83 124.162V134.764L1071.37 134.762V124.167L1084.32 132.102L1084.32 125.302L1071.37 117.369V111.309L1084.35 119.263L1084.34 112.458L1071.37 104.511V93.1212L1075.72 101.106L1080.53 104.065L1080.52 98.1615L1076.17 90.1652L1085.47 95.8654V111.771L1091.02 115.184V99.2631L1095.96 102.293V118.171L1101.51 121.572V105.693L1110.16 110.993L1112.93 105.895L1104.29 100.597L1117.23 92.6635L1111.69 89.265V89.265ZM1068.59 87.8213L1063.94 84.9719V79.2704L1068.59 76.4197L1073.25 79.2704V84.9719L1068.59 87.8213Z" fill="#FEFEFE"/>
<path d="M71.4954 86.4089C72.4315 71.7542 91.7842 68.8972 101.474 69.0357C101.643 87.1533 104.23 105.218 78.4266 105.218H22.5501C12.712 105.218 5.84078 101.578 1.8236 94.3615C0.64676 92.2475 0.000274658 89.7914 0.000274658 86.9351V60.2792V54.0514V34.083C0.000274658 31.2253 0.608271 28.7499 1.8236 26.6546C5.80294 19.418 12.712 15.7986 22.5501 15.7986H78.4266C93.9017 15.7986 101.639 22.0845 101.639 34.6542C101.639 40.1771 98.4342 44.5561 92.0216 47.7953C87.159 50.2721 82.6265 51.5081 78.4266 51.5081H76.1049V46.5046L76.0788 46.4921V45.036C76.0788 39.3261 71.2834 34.6515 65.4213 34.6515H35.7543C29.8923 34.6515 25.0975 39.3248 25.0975 45.036V75.9684C25.0975 81.6789 29.8962 86.3514 35.7543 86.3514H38.9991L39.0109 86.3639C49.8882 86.3639 60.6279 86.4089 71.4954 86.4089V86.4089ZM153.787 45.9375H169.674C175.94 45.9375 181.065 50.6094 181.065 56.3205V79.5475C181.065 85.2629 175.94 89.9334 169.674 89.9334H153.787C147.52 89.9334 142.395 85.2629 142.395 79.5475V56.3205C142.395 50.6094 147.52 45.9375 153.787 45.9375V45.9375ZM204.441 83.5014V52.3709C204.441 39.7991 198.892 32.7466 187.787 31.2226C185.768 30.8403 183.354 30.659 180.523 30.659H143.121C127.05 30.659 119.019 37.7924 119.019 52.0828V83.5014C119.019 94.9279 123.98 101.798 133.91 104.07C137.328 104.832 140.405 105.214 143.121 105.214H180.523C196.472 105.214 204.441 97.9836 204.441 83.5014V83.5014ZM240.053 89.7914V0.371169H217.171V105.218C223.694 105.218 228.281 104.742 230.933 103.79C237.013 101.505 240.053 96.839 240.053 89.7914ZM281.001 45.9375H296.889C303.154 45.9375 308.281 50.6094 308.281 56.3205V79.5475C308.281 85.2629 303.154 89.9334 296.889 89.9334H281.001C274.735 89.9334 269.611 85.2629 269.611 79.5475V56.3205C269.611 50.6094 274.735 45.9375 281.001 45.9375ZM332.535 86.6499V0.371169H323.674C313.276 0.371169 308.078 6.56082 308.078 18.9409V30.6569H271.569C255.264 30.6569 247.111 37.129 247.111 50.0803V82.9342C247.111 95.315 252.073 102.457 261.998 104.361C264.952 104.934 268.261 105.218 271.923 105.218H307.901C324.325 105.218 332.535 99.0285 332.535 86.6499V86.6499ZM523.394 45.9375H539.283C545.548 45.9375 550.674 50.6094 550.674 56.3205V79.5475C550.674 85.2629 545.548 89.9334 539.283 89.9334H523.394C517.128 89.9334 512.004 85.2629 512.004 79.5475V56.3205C512.004 50.6094 517.128 45.9375 523.394 45.9375ZM574.928 86.6499V0.371169H566.068C555.67 0.371169 550.471 6.56082 550.471 18.9409V30.6569H513.962C497.657 30.6569 489.504 37.129 489.504 50.0803V82.9342C489.504 95.315 494.466 102.457 504.392 104.361C507.345 104.934 510.653 105.218 514.317 105.218H550.295C566.717 105.218 574.928 99.0285 574.928 86.6499V86.6499ZM393.172 105.218V22.187C393.172 7.39589 384.197 0 366.248 0H363.516V83.3678C363.516 90.9866 367.028 96.8134 374.053 100.849C378.994 103.762 384.261 105.218 389.855 105.218H393.172V105.218ZM481.141 105.218V52.3675C481.141 43.7958 476.591 37.701 467.494 34.083C461.823 31.7973 455.206 30.6569 447.644 30.6569C438.901 30.6569 431.575 33.3199 425.667 38.6531C419.051 33.3199 412.73 30.6569 406.704 30.6569H403.16V105.218H427.971V80.9906C427.899 80.5198 427.859 80.0392 427.859 79.5475V56.3205C427.859 50.6094 432.985 45.9375 439.251 45.9375H445.244C451.25 45.9375 456.21 50.2334 456.61 55.6184L456.683 55.6177V85.5067C456.683 95.6003 461.646 101.79 471.57 104.076C474.996 104.837 478.187 105.218 481.141 105.218V105.218ZM661.924 30.6569H637.112V55.5644C637.215 56.1246 637.269 56.7027 637.269 57.2885V80.5177C637.269 86.2275 632.143 90.9008 625.878 90.9008H619.883C613.813 90.9008 608.812 86.5093 608.508 81.0411L608.4 81.0377V46.3654C608.4 37.7965 604.561 32.8449 596.881 31.512C594.754 31.1318 592.744 30.9394 590.854 30.9394H583.589V83.2202C583.589 91.6014 588.197 97.6949 597.413 101.505C603.438 103.982 610.114 105.218 617.439 105.218C626.183 105.218 633.448 102.552 639.239 97.2178C644.437 101.22 649.636 103.599 654.834 104.361C656.253 104.551 657.315 104.646 658.024 104.646H661.924V30.6569V30.6569ZM750.796 54.3672V46.3654C750.796 40.0836 747.59 35.5101 741.18 32.6538C736.979 30.7503 732.446 29.7982 727.583 29.7982H694.753C679.609 29.7982 672.038 35.7968 672.038 47.7953V59.7952C672.038 67.2215 675.022 72.0789 680.992 74.3626C683.755 75.5051 688.508 76.0785 695.25 76.0785H700.44L700.438 76.0847H721.795C724.956 76.0847 727.547 78.6073 727.547 81.6886V85.3148C727.547 88.3948 724.959 90.9208 721.795 90.9208H699.242L699.143 90.9181L699.095 90.9173L699.042 90.9166L698.948 90.9104H698.943L698.803 90.9014L698.744 90.8987L698.658 90.8897L698.644 90.8889L698.547 90.8765L698.515 90.8724L698.371 90.8543L698.352 90.8508L698.255 90.835L698.23 90.8294L698.159 90.8183L697.873 90.7567L697.811 90.7422L697.78 90.7331L697.594 90.6812L697.538 90.6653L697.502 90.6535L697.411 90.6224L697.405 90.621L697.319 90.5926L697.299 90.5871L697.141 90.5282L697.14 90.5261C696.969 90.4617 696.804 90.3863 696.641 90.3073L696.633 90.3018L696.62 90.2976L696.593 90.2817L696.453 90.2083L696.387 90.1716L696.37 90.1605L696.364 90.1577L696.269 90.1037H696.268L696.209 90.0663L696.15 90.0297L696.128 90.0179C695.439 89.5803 694.854 89.0042 694.408 88.3339L694.404 88.3277C694.34 88.2307 694.28 88.1345 694.222 88.034L694.212 88.0195L694.195 88.0541C694.202 88.0417 694.203 88.0195 694.197 87.9925C694.104 87.8277 694.017 87.656 693.942 87.4829C693.702 87.0958 693.364 86.6388 693.239 86.4906C690.758 83.5471 686.619 82.0777 680.826 82.0777H672.038V86.3639C672.038 98.9316 679.775 105.218 695.25 105.218H728.08C743.224 105.218 750.796 99.4094 750.796 87.791V77.221C750.796 66.5568 743.334 61.2216 728.412 61.2216H701.273L701.247 61.1994H701.004C697.903 61.1994 695.355 58.7725 695.257 55.7721L695.25 55.768V51.4154L695.263 51.4015C695.416 48.5888 697.729 46.3066 700.603 46.112L700.634 46.0822H723.748L723.777 46.0954H724.575C726.877 46.0954 728.876 47.4345 729.794 49.3498C730.044 49.507 730.126 49.847 730.321 50.0769C733.362 53.6609 740.187 55.0915 750.796 54.3672V54.3672ZM814.134 90.9333H797.388V46.3654C806.341 46.3654 811.702 43.0341 813.47 36.368C813.912 34.6542 814.134 32.845 814.134 30.9394H797.388V14.9414C797.388 8.08419 794.292 3.60965 788.102 1.51504C785.781 0.751976 781.248 0.371169 774.506 0.371169V30.6569H760.91V46.0822H774.506V89.5041C774.506 97.8853 778.375 102.838 786.112 104.361C788.876 104.934 791.362 105.218 793.573 105.218C807.28 105.218 814.134 100.456 814.134 90.9333V90.9333ZM897.203 61.2216V52.3675C897.203 43.7958 892.947 37.701 884.435 34.083C879.13 31.7973 872.939 30.6569 865.865 30.6569C857.685 30.6569 850.831 33.3199 845.305 38.6531C839.115 33.3199 833.201 30.6569 827.564 30.6569H824.248V105.218H847.46V80.5288C847.435 80.2366 847.42 79.9437 847.42 79.6459V56.4189C847.42 50.7063 852.215 46.0351 858.077 46.0351H865.483C870.002 46.0351 873.889 48.8166 875.431 52.706L875.44 52.7039C875.779 52.6693 875.695 53.3175 875.837 53.6117C878.301 58.6852 883.765 61.2216 892.228 61.2216H897.203V61.2216ZM987.235 30.6541H964.354V79.0774H964.298V80.5163C964.298 86.2268 959.501 90.9008 953.641 90.9008H941.155C935.294 90.9008 930.497 86.2282 930.497 80.5163V57.2885C930.497 57.0213 930.508 56.7533 930.53 56.4909V46.3661C930.53 38.9391 927.545 34.1779 921.576 32.0826C918.37 31.8928 913.617 31.4171 907.317 30.6541V84.9347C907.317 96.9332 911.627 103.504 920.25 104.646C923.124 105.028 926.219 105.218 929.534 105.218H964.354V119.45H935.448C927.27 119.45 921.96 120.305 919.53 122.021C915.219 125.066 913.562 128.581 913.562 132.59V135.448H964.519C969.604 135.448 974.128 134.478 978.115 132.59C984.185 129.717 987.235 125.162 987.235 118.879V30.6541Z" fill="#4778BB"/>
<path fill-rule="evenodd" clip-rule="evenodd" d="M1142.23 28.333C1148.73 28.333 1154 33.9279 1154 40.8225C1154 47.7163 1148.73 53.3119 1142.23 53.3119C1135.74 53.3119 1130.47 47.7163 1130.47 40.8225C1130.47 33.9279 1135.74 28.333 1142.23 28.333ZM1142.23 30.7219C1147.49 30.7219 1151.75 35.2456 1151.75 40.8225C1151.75 46.3993 1147.49 50.923 1142.23 50.923C1136.98 50.923 1132.72 46.3993 1132.72 40.8225C1132.72 35.2456 1136.98 30.7219 1142.23 30.7219ZM1148.17 46.848C1148.17 46.8979 1148.16 46.9442 1148.14 46.9844C1148.12 47.0239 1148.07 47.0544 1147.99 47.0807C1147.92 47.1077 1147.81 47.127 1147.67 47.1402C1147.53 47.154 1147.35 47.161 1147.12 47.161C1146.92 47.161 1146.76 47.154 1146.63 47.1402C1146.5 47.127 1146.4 47.1042 1146.33 47.0772C1146.25 47.0475 1146.19 47.008 1146.15 46.9546C1146.11 46.9013 1146.07 46.8383 1146.04 46.758L1144.67 43.7861C1144.51 43.4468 1144.35 43.1372 1144.17 42.8547C1144 42.5715 1143.8 42.3292 1143.56 42.1221C1143.32 41.9192 1143.04 41.7593 1142.72 41.6464C1142.4 41.5336 1142.01 41.4768 1141.56 41.4768H1140.24V46.848C1140.24 46.8979 1140.22 46.9442 1140.19 46.9844C1140.16 47.0239 1140.1 47.0544 1140.03 47.0772C1139.96 47.1008 1139.86 47.1173 1139.73 47.134C1139.6 47.1506 1139.45 47.161 1139.25 47.161C1139.06 47.161 1138.91 47.1506 1138.78 47.134C1138.65 47.1173 1138.55 47.1008 1138.47 47.0772C1138.4 47.0544 1138.34 47.0239 1138.31 46.9844C1138.28 46.9442 1138.27 46.8979 1138.27 46.848V35.1674C1138.27 34.9146 1138.34 34.738 1138.5 34.6348C1138.66 34.5351 1138.82 34.4853 1139 34.4853H1142.16C1142.53 34.4853 1142.84 34.4922 1143.09 34.5081C1143.34 34.5254 1143.57 34.5455 1143.76 34.5615C1144.34 34.6487 1144.85 34.7809 1145.29 34.9644C1145.73 35.1445 1146.1 35.3771 1146.39 35.6562C1146.69 35.9359 1146.92 36.2551 1147.07 36.6152C1147.22 36.978 1147.29 37.3741 1147.29 37.8096C1147.29 38.232 1147.23 38.6115 1147.09 38.9446C1146.96 39.2804 1146.76 39.5768 1146.51 39.833C1146.26 40.0892 1145.96 40.3121 1145.6 40.5019C1145.25 40.6881 1144.86 40.848 1144.42 40.9775C1144.67 41.0675 1144.89 41.1839 1145.09 41.3237C1145.29 41.4636 1145.47 41.6298 1145.64 41.8265C1145.81 42.0225 1145.98 42.2454 1146.13 42.4982C1146.29 42.7516 1146.44 43.0375 1146.59 43.3574L1147.92 46.1362C1148.03 46.3681 1148.1 46.535 1148.13 46.6285C1148.16 46.7213 1148.17 46.7947 1148.17 46.848V46.848ZM1145.2 37.9855C1145.2 37.4897 1145.07 37.0743 1144.81 36.7309C1144.55 36.3923 1144.11 36.1457 1143.5 35.9962C1143.31 35.9498 1143.09 35.9193 1142.85 35.9C1142.61 35.8792 1142.3 35.8695 1141.91 35.8695H1140.24V40.1189H1142.17C1142.69 40.1189 1143.14 40.0656 1143.52 39.9589C1143.9 39.853 1144.21 39.7035 1144.47 39.5096C1144.72 39.3206 1144.91 39.0941 1145.02 38.8345C1145.14 38.5721 1145.2 38.2923 1145.2 37.9855Z" fill="#009957"/>
<path d="M71.4951 86.4083C72.4312 71.7536 91.7839 68.8966 101.474 69.035C101.643 87.1526 104.23 105.217 78.4263 105.217H22.5498C12.7117 105.217 5.84051 101.577 1.82333 94.3608C0.646485 92.2468 0 89.7908 0 86.9345V66.167H25.0973V75.9677C25.0973 81.6782 29.896 86.3508 35.7541 86.3508H38.9989L39.0106 86.3632C49.8879 86.3632 60.6276 86.4083 71.4951 86.4083V86.4083ZM181.065 66.167V79.5469C181.065 85.2622 175.94 89.9327 169.674 89.9327H153.787C147.52 89.9327 142.395 85.2622 142.395 79.5469V66.167H119.018V83.5007C119.018 94.9273 123.979 101.798 133.909 104.069C137.328 104.832 140.404 105.213 143.121 105.213H180.523C196.472 105.213 204.441 97.983 204.441 83.5007V66.167H181.065V66.167ZM240.053 89.7908V66.167H217.171V105.217C223.693 105.217 228.281 104.742 230.933 103.789C237.013 101.504 240.053 96.8384 240.053 89.7908ZM308.281 66.167V79.5469C308.281 85.2622 303.154 89.9327 296.889 89.9327H281.001C274.735 89.9327 269.61 85.2622 269.61 79.5469V66.167H247.111V82.9336C247.111 95.3143 252.073 102.457 261.998 104.36C264.952 104.933 268.261 105.217 271.923 105.217H307.901C324.324 105.217 332.535 99.0278 332.535 86.6492V66.167H308.281V66.167ZM550.673 66.167V79.5469C550.673 85.2622 545.548 89.9327 539.283 89.9327H523.394C517.128 89.9327 512.003 85.2622 512.003 79.5469V66.167H489.504V82.9336C489.504 95.3143 494.466 102.457 504.392 104.36C507.345 104.933 510.653 105.217 514.316 105.217H550.294C566.717 105.217 574.928 99.0278 574.928 86.6492V66.167H550.673V66.167ZM393.172 105.217V66.167H363.516V83.3671C363.516 90.9859 367.027 96.8128 374.052 100.848C378.993 103.761 384.26 105.217 389.855 105.217H393.172V105.217ZM481.141 105.217V66.167H456.683V85.506C456.683 95.5996 461.646 101.789 471.57 104.075C474.996 104.837 478.187 105.217 481.141 105.217V105.217ZM403.16 66.167V105.217H427.971V80.99C427.899 80.5191 427.859 80.0385 427.859 79.5469V66.167H403.16V66.167ZM637.269 66.167V80.517C637.269 86.2268 632.143 90.9001 625.878 90.9001H619.883C613.812 90.9001 608.811 86.5086 608.508 81.0405L608.4 81.037V66.167H583.588V83.2195C583.588 91.6008 588.197 97.6942 597.412 101.504C603.437 103.981 610.114 105.217 617.439 105.217C626.183 105.217 633.448 102.551 639.238 97.2171C644.436 101.219 649.636 103.598 654.834 104.36C656.252 104.551 657.315 104.646 658.024 104.646H661.923V66.167H637.269V66.167ZM672.964 66.167C674.266 70.0827 676.942 72.8129 680.992 74.3619C683.755 75.5044 688.507 76.0778 695.25 76.0778H700.44L700.438 76.084H721.795C724.956 76.084 727.547 78.6066 727.547 81.6879V85.3142C727.547 88.3941 724.959 90.9201 721.795 90.9201H699.242L699.143 90.9174L699.095 90.9167L699.041 90.916L698.947 90.9098H698.942L698.803 90.9008L698.743 90.898L698.657 90.889L698.644 90.8882L698.546 90.8758L698.514 90.8717L698.371 90.8536L698.352 90.8502L698.255 90.8343L698.229 90.8287L698.159 90.8177L697.873 90.7561L697.811 90.7415L697.78 90.7325L697.594 90.6805L697.538 90.6646L697.501 90.6529L697.411 90.6217L697.405 90.6203L697.319 90.5919L697.298 90.5864L697.141 90.5275L697.14 90.5255C696.969 90.4611 696.803 90.3856 696.641 90.3066L696.633 90.3011L696.619 90.2969L696.593 90.281L696.452 90.2076L696.387 90.1709L696.37 90.1598L696.364 90.1571L696.269 90.103H696.268L696.208 90.0656L696.15 90.029L696.127 90.0172C695.439 89.5796 694.853 89.0035 694.408 88.3332L694.403 88.327C694.339 88.23 694.28 88.1338 694.222 88.0334L694.212 88.0188L694.194 88.0535C694.202 88.041 694.202 88.0189 694.197 87.9919C694.104 87.8271 694.017 87.6553 693.941 87.4822C693.701 87.0951 693.364 86.6381 693.239 86.4899C690.758 83.5464 686.619 82.077 680.826 82.077H672.038V86.3632C672.038 98.9309 679.775 105.217 695.25 105.217H728.08C743.224 105.217 750.796 99.4087 750.796 87.7903V77.2203C750.796 72.4834 749.319 68.8003 746.375 66.167H672.964V66.167ZM814.134 90.9326H797.387V66.167H774.505V89.5034C774.505 97.8846 778.375 102.837 786.112 104.36C788.875 104.933 791.362 105.217 793.573 105.217C807.28 105.217 814.134 100.456 814.134 90.9326V90.9326ZM824.247 66.167V105.217H847.46V80.5281C847.435 80.2359 847.42 79.943 847.42 79.6453V66.167H824.247V66.167ZM964.353 66.167V79.0768H964.297V80.5156C964.297 86.2261 959.501 90.9001 953.641 90.9001H941.154C935.294 90.9001 930.496 86.2275 930.496 80.5156V66.167H907.316V84.9341C907.316 96.9326 911.627 103.503 920.25 104.646C923.124 105.028 926.218 105.217 929.534 105.217H964.353V119.449H935.448C927.27 119.449 921.96 120.304 919.53 122.021C915.219 125.065 913.561 128.58 913.561 132.589V135.447H964.519C969.604 135.447 974.128 134.477 978.115 132.589C984.185 129.717 987.235 125.162 987.235 118.878V66.167H964.353V66.167Z" fill="#005A9F"/>
<defs>
<radialGradient id="paint0_radial" cx="0" cy="0" r="1" gradientUnits="userSpaceOnUse" gradientTransform="translate(1104.66 45.2024) rotate(138.624) scale(248.217 250.529)">
<stop stop-color="#009846"/>
<stop offset="0.388235" stop-color="#24A18D"/>
<stop offset="1" stop-color="#005A9F"/>
</radialGradient>
</defs>
</svg>
