<svg width="1280" height="227" viewBox="0 0 1280 227" fill="none" xmlns="http://www.w3.org/2000/svg">
<path fill-rule="evenodd" clip-rule="evenodd" d="M24.7889 124.113C24.9105 124.607 24.8762 125.125 24.691 125.598C24.5057 126.071 24.1784 126.475 23.7543 126.754C23.3301 127.033 22.83 127.174 22.3228 127.156C21.8156 127.139 21.3262 126.964 20.9221 126.657C20.518 126.35 20.2191 125.924 20.0666 125.44C19.914 124.955 19.9153 124.435 20.0704 123.952C20.2254 123.468 20.5264 123.044 20.9321 122.739C21.3377 122.434 21.8279 122.262 22.3353 122.247C22.9066 122.177 23.4828 122.332 23.9411 122.681C24.3994 123.03 24.7036 123.544 24.7889 124.113Z" fill="#F5D596" stroke="#F5D596" stroke-width="0.267995" stroke-miterlimit="22.93"/>
<path fill-rule="evenodd" clip-rule="evenodd" d="M34.2352 124.113C34.2352 124.739 33.2292 125.255 29.7819 125.255C26.3346 125.255 23.5498 124.739 23.5498 124.113C23.5498 123.487 26.3346 122.885 29.7819 122.885C33.2292 122.885 34.2352 123.475 34.2352 124.113Z" fill="#F5D596" stroke="#F5D596" stroke-width="0.267995" stroke-miterlimit="22.93"/>
<path fill-rule="evenodd" clip-rule="evenodd" d="M24.7872 129.723C24.929 130.22 24.911 130.748 24.7358 131.233C24.5605 131.719 24.2369 132.136 23.811 132.427C23.3851 132.718 22.8785 132.867 22.363 132.854C21.8476 132.84 21.3496 132.664 20.9397 132.351C20.5298 132.038 20.2289 131.603 20.0796 131.109C19.9304 130.615 19.9404 130.087 20.1083 129.599C20.2762 129.111 20.5934 128.688 21.0149 128.391C21.4364 128.094 21.9407 127.937 22.4563 127.943C22.9996 127.879 23.5464 128.03 23.9812 128.362C24.4161 128.694 24.7051 129.182 24.7872 129.723Z" fill="#F5D596" stroke="#F5D596" stroke-width="0.267995" stroke-miterlimit="22.93"/>
<path fill-rule="evenodd" clip-rule="evenodd" d="M535.547 124.334C535.685 124.844 535.661 125.384 535.477 125.879C535.293 126.375 534.958 126.799 534.521 127.095C534.083 127.39 533.564 127.541 533.036 127.526C532.509 127.511 531.999 127.331 531.579 127.011C531.159 126.691 530.849 126.248 530.694 125.743C530.538 125.239 530.544 124.698 530.711 124.197C530.878 123.696 531.198 123.259 531.625 122.949C532.052 122.639 532.566 122.471 533.093 122.468C533.665 122.397 534.241 122.553 534.699 122.902C535.158 123.25 535.462 123.764 535.547 124.334Z" fill="#F5D596" stroke="#F5D596" stroke-width="0.267995" stroke-miterlimit="22.93"/>
<path fill-rule="evenodd" clip-rule="evenodd" d="M545.017 124.332C545.017 124.97 543.999 125.486 540.552 125.486C537.104 125.486 534.307 124.97 534.307 124.332C534.307 123.693 537.104 123.178 540.552 123.178C543.999 123.178 545.017 123.693 545.017 124.332Z" fill="#F5D596" stroke="#F5D596" stroke-width="0.267995" stroke-miterlimit="22.93"/>
<path fill-rule="evenodd" clip-rule="evenodd" d="M535.546 129.968C535.685 130.465 535.664 130.993 535.487 131.477C535.309 131.961 534.984 132.377 534.557 132.666C534.13 132.955 533.624 133.102 533.109 133.086C532.594 133.07 532.097 132.893 531.688 132.579C531.28 132.264 530.98 131.829 530.833 131.335C530.685 130.841 530.696 130.313 530.865 129.826C531.034 129.339 531.352 128.917 531.774 128.621C532.195 128.325 532.7 128.169 533.215 128.176C533.76 128.112 534.308 128.264 534.743 128.599C535.179 128.934 535.466 129.425 535.546 129.968Z" fill="#F5D596" stroke="#F5D596" stroke-width="0.267995" stroke-miterlimit="22.93"/>
<path fill-rule="evenodd" clip-rule="evenodd" d="M918.651 120.583C918.651 121.332 914.971 121.934 910.395 121.934C905.819 121.934 902.114 121.332 902.114 120.583C902.114 119.834 905.795 119.232 910.395 119.232C914.996 119.232 918.651 119.834 918.651 120.583Z" fill="#F5D596" stroke="#F5D596" stroke-width="0.267995" stroke-miterlimit="22.93"/>
<path fill-rule="evenodd" clip-rule="evenodd" d="M428.719 181.242V30.7358H455.512V181.93H428.719V181.242ZM430.105 32.1234V180.542H454.113V32.1234H430.105Z" fill="#F5D596" stroke="#F5D596" stroke-width="0.267995" stroke-miterlimit="22.93"/>
<path fill-rule="evenodd" clip-rule="evenodd" d="M431.148 178.724V33.252H453.329V179.375H431.148V178.675V178.724ZM432.535 34.6395V178.036H451.943V34.6395H432.535Z" fill="#F5D596" stroke="#F5D596" stroke-width="0.267995" stroke-miterlimit="22.93"/>
<path fill-rule="evenodd" clip-rule="evenodd" d="M422.645 124.633C422.64 125.066 422.539 125.493 422.348 125.882C422.157 126.271 421.881 126.612 421.541 126.88C420.825 127.438 419.945 127.741 419.038 127.741C418.131 127.741 417.251 127.438 416.535 126.88C416.19 126.617 415.909 126.277 415.716 125.887C415.523 125.497 415.423 125.068 415.423 124.633C415.423 124.198 415.523 123.769 415.716 123.379C415.909 122.989 416.19 122.65 416.535 122.386C417.248 121.822 418.13 121.516 419.038 121.516C419.946 121.516 420.828 121.822 421.541 122.386C421.881 122.654 422.157 122.995 422.348 123.384C422.539 123.773 422.64 124.2 422.645 124.633ZM420.657 125.861C420.842 125.725 420.993 125.548 421.097 125.343C421.201 125.138 421.255 124.912 421.255 124.682C421.255 124.453 421.201 124.226 421.097 124.021C420.993 123.817 420.842 123.639 420.657 123.503C420.193 123.145 419.624 122.951 419.038 122.951C418.452 122.951 417.882 123.145 417.419 123.503C417.229 123.636 417.074 123.812 416.967 124.017C416.86 124.223 416.804 124.451 416.804 124.682C416.804 124.914 416.86 125.142 416.967 125.347C417.074 125.552 417.229 125.729 417.419 125.861C417.886 126.212 418.454 126.401 419.038 126.401C419.622 126.401 420.19 126.212 420.657 125.861Z" fill="#F5D596" stroke="#F5D596" stroke-width="0.267995" stroke-miterlimit="22.93"/>
<path fill-rule="evenodd" clip-rule="evenodd" d="M422.646 125.001C422.643 125.305 422.572 125.603 422.438 125.875C422.305 126.147 422.112 126.386 421.873 126.573C421.397 126.964 420.797 127.173 420.18 127.162C419.565 127.169 418.966 126.96 418.487 126.573C418.248 126.387 418.054 126.149 417.921 125.876C417.788 125.604 417.718 125.305 417.718 125.001C417.718 124.698 417.788 124.399 417.921 124.126C418.054 123.854 418.248 123.616 418.487 123.43C418.966 123.042 419.565 122.834 420.18 122.84C420.797 122.83 421.397 123.039 421.873 123.43C422.112 123.617 422.305 123.856 422.438 124.128C422.572 124.4 422.643 124.698 422.646 125.001ZM420.99 125.505C421.074 125.45 421.142 125.375 421.19 125.288C421.237 125.2 421.262 125.101 421.262 125.001C421.262 124.901 421.237 124.803 421.19 124.715C421.142 124.627 421.074 124.553 420.99 124.498C420.761 124.314 420.474 124.218 420.18 124.228C419.888 124.227 419.604 124.322 419.371 124.498C419.292 124.558 419.228 124.633 419.181 124.72C419.135 124.807 419.107 124.903 419.101 125.001C419.106 125.1 419.133 125.196 419.18 125.283C419.227 125.37 419.292 125.446 419.371 125.505C419.6 125.689 419.887 125.785 420.18 125.775C420.474 125.785 420.761 125.689 420.99 125.505Z" fill="#F5D596" stroke="#F5D596" stroke-width="0.267995" stroke-miterlimit="22.93"/>
<path fill-rule="evenodd" clip-rule="evenodd" d="M436.139 124.634C436.139 125.433 435.084 126.034 433.391 126.378C429.794 126.984 426.12 126.984 422.522 126.378C420.829 126.034 419.774 125.433 419.774 124.634C419.774 123.836 420.829 123.235 422.522 122.891C426.116 122.285 429.785 122.285 433.379 122.891C435.084 123.235 436.139 123.836 436.139 124.634ZM433.122 125.015C433.673 124.926 434.219 124.799 434.753 124.634C434.217 124.462 433.667 124.335 433.109 124.254C429.698 123.681 426.215 123.681 422.804 124.254C422.247 124.335 421.697 124.462 421.16 124.634C421.695 124.799 422.24 124.926 422.792 125.015C426.211 125.588 429.702 125.588 433.122 125.015Z" fill="#F5D596" stroke="#F5D596" stroke-width="0.267995" stroke-miterlimit="22.93"/>
<path fill-rule="evenodd" clip-rule="evenodd" d="M422.645 131.953C422.64 132.372 422.542 132.784 422.357 133.16C422.173 133.536 421.906 133.866 421.578 134.126C420.891 134.674 420.039 134.972 419.161 134.972C418.283 134.972 417.431 134.674 416.744 134.126C416.409 133.872 416.137 133.543 415.949 133.166C415.762 132.789 415.665 132.374 415.665 131.953C415.665 131.532 415.762 131.116 415.949 130.739C416.137 130.362 416.409 130.033 416.744 129.779C417.438 129.218 418.306 128.918 419.198 128.932C420.09 128.913 420.96 129.214 421.651 129.779C421.981 130.038 422.247 130.368 422.432 130.744C422.617 131.121 422.715 131.534 422.719 131.953H422.645ZM420.694 133.07C420.864 132.936 421.003 132.767 421.1 132.574C421.197 132.381 421.252 132.169 421.259 131.953C421.252 131.738 421.199 131.528 421.101 131.337C421.003 131.145 420.864 130.978 420.694 130.848C420.258 130.496 419.715 130.304 419.155 130.304C418.595 130.304 418.051 130.496 417.615 130.848C417.44 130.974 417.298 131.14 417.2 131.332C417.102 131.524 417.051 131.737 417.051 131.953C417.051 132.168 417.102 132.381 417.2 132.573C417.298 132.765 417.44 132.931 417.615 133.058C418.055 133.405 418.601 133.592 419.161 133.586C419.716 133.592 420.256 133.411 420.694 133.07Z" fill="#F5D596" stroke="#F5D596" stroke-width="0.267995" stroke-miterlimit="22.93"/>
<path fill-rule="evenodd" clip-rule="evenodd" d="M420.107 132.285C420.104 132.559 420.039 132.83 419.918 133.076C419.797 133.322 419.623 133.539 419.408 133.709C418.974 134.052 418.438 134.238 417.886 134.238C417.334 134.238 416.798 134.052 416.365 133.709C416.149 133.54 415.973 133.324 415.853 133.077C415.732 132.83 415.669 132.559 415.669 132.285C415.669 132.01 415.732 131.739 415.853 131.492C415.973 131.245 416.149 131.029 416.365 130.86C416.793 130.507 417.332 130.316 417.886 130.32C418.438 130.32 418.974 130.506 419.408 130.848C419.622 131.022 419.795 131.24 419.916 131.489C420.037 131.737 420.102 132.009 420.107 132.285ZM418.524 132.641C418.585 132.603 418.635 132.551 418.67 132.489C418.705 132.426 418.724 132.356 418.724 132.285C418.724 132.213 418.705 132.143 418.67 132.08C418.635 132.018 418.585 131.966 418.524 131.928C418.347 131.797 418.132 131.726 417.911 131.726C417.69 131.726 417.475 131.797 417.297 131.928C417.237 131.966 417.186 132.018 417.151 132.08C417.116 132.143 417.098 132.213 417.098 132.285C417.098 132.356 417.116 132.426 417.151 132.489C417.186 132.551 417.237 132.603 417.297 132.641C417.478 132.765 417.692 132.832 417.911 132.832C418.13 132.832 418.344 132.765 418.524 132.641Z" fill="#F5D596" stroke="#F5D596" stroke-width="0.267995" stroke-miterlimit="22.93"/>
<path fill-rule="evenodd" clip-rule="evenodd" d="M502.13 222.782V2.88607H372.09V222.782H380.309V10.9781H493.911V222.782H502.13ZM503.517 2.18617V224.17H492.475V12.3656H381.683V224.17H370.642V1.49854H503.517V2.18617Z" fill="#F5D596" stroke="#F5D596" stroke-width="0.267995" stroke-miterlimit="22.93"/>
<path fill-rule="evenodd" clip-rule="evenodd" d="M493.211 224.169H489.555V15.2254H384.541V224.169H380.996V222.781H383.155V13.8379H490.941V222.781H493.211V224.169Z" fill="#F5D596" stroke="#F5D596" stroke-width="0.267995" stroke-miterlimit="22.93"/>
<path fill-rule="evenodd" clip-rule="evenodd" d="M389.952 219.135V20.0396H484.514V219.822H389.952V219.135ZM391.351 21.4394V218.435H483.128V21.4271L391.351 21.4394Z" fill="#F5D596" stroke="#F5D596" stroke-width="0.267995" stroke-miterlimit="22.93"/>
<path fill-rule="evenodd" clip-rule="evenodd" d="M383.461 222.904L390.466 218.188L391.239 219.33L384.234 224.046L383.461 222.904Z" fill="#F5D596" stroke="#F5D596" stroke-width="0.267995" stroke-miterlimit="22.93"/>
<path d="M484.199 218.373L483.404 219.51L489.837 224.016L490.632 222.879L484.199 218.373Z" fill="#F5D596" stroke="#F5D596" stroke-width="0.267995" stroke-miterlimit="22.93"/>
<path d="M502.354 1.723L492.73 11.209L493.703 12.1976L503.327 2.71164L502.354 1.723Z" fill="#F5D596" stroke="#F5D596" stroke-width="0.267995" stroke-miterlimit="22.93"/>
<path d="M371.857 1.66581L370.884 2.6543L380.498 12.1333L381.471 11.1448L371.857 1.66581Z" fill="#F5D596" stroke="#F5D596" stroke-width="0.267995" stroke-miterlimit="22.93"/>
<path d="M413.15 20.728H411.764V219.123H413.15V20.728Z" fill="#F5D596" stroke="#F5D596" stroke-width="0.267995" stroke-miterlimit="22.93"/>
<path fill-rule="evenodd" clip-rule="evenodd" d="M282.926 123.184C282.924 123.572 282.839 123.955 282.676 124.306C282.513 124.658 282.276 124.971 281.981 125.223C281.376 125.745 280.603 126.032 279.804 126.032C279.005 126.032 278.232 125.745 277.626 125.223C277.33 124.974 277.091 124.663 276.928 124.312C276.764 123.961 276.679 123.578 276.679 123.19C276.679 122.803 276.764 122.42 276.928 122.069C277.091 121.718 277.33 121.407 277.626 121.158C278.23 120.629 279.007 120.341 279.81 120.348C280.606 120.345 281.376 120.628 281.981 121.146C282.275 121.398 282.511 121.711 282.674 122.063C282.837 122.414 282.923 122.797 282.926 123.184ZM281.061 124.191C281.221 124.078 281.351 123.928 281.441 123.753C281.53 123.579 281.577 123.386 281.577 123.19C281.577 122.995 281.53 122.801 281.441 122.627C281.351 122.453 281.221 122.303 281.061 122.19C280.713 121.911 280.28 121.759 279.835 121.759C279.389 121.759 278.956 121.911 278.608 122.19C278.448 122.303 278.318 122.453 278.228 122.627C278.139 122.801 278.092 122.995 278.092 123.19C278.092 123.386 278.139 123.579 278.228 123.753C278.318 123.928 278.448 124.078 278.608 124.191C278.956 124.47 279.389 124.622 279.835 124.622C280.28 124.622 280.713 124.47 281.061 124.191Z" fill="#F5D596" stroke="#F5D596" stroke-width="0.267995" stroke-miterlimit="22.93"/>
<path fill-rule="evenodd" clip-rule="evenodd" d="M282.925 123.516C282.922 123.79 282.861 124.061 282.747 124.31C282.633 124.56 282.468 124.783 282.262 124.964C281.843 125.322 281.31 125.518 280.76 125.518C280.209 125.518 279.676 125.322 279.257 124.964C279.047 124.785 278.879 124.563 278.762 124.313C278.646 124.063 278.584 123.791 278.582 123.516C278.585 123.242 278.646 122.971 278.763 122.723C278.879 122.475 279.048 122.256 279.257 122.079C279.676 121.722 280.209 121.525 280.76 121.525C281.31 121.525 281.843 121.722 282.262 122.079C282.467 122.258 282.632 122.479 282.747 122.727C282.861 122.974 282.922 123.243 282.925 123.516ZM281.342 123.921C281.404 123.872 281.453 123.811 281.487 123.741C281.521 123.671 281.539 123.594 281.539 123.516C281.536 123.438 281.517 123.362 281.484 123.292C281.45 123.222 281.402 123.16 281.342 123.11C281.176 122.977 280.967 122.907 280.753 122.914C280.544 122.907 280.339 122.977 280.177 123.11C280.116 123.16 280.067 123.222 280.031 123.291C279.995 123.361 279.974 123.437 279.968 123.516C279.971 123.594 279.991 123.672 280.027 123.742C280.063 123.812 280.114 123.873 280.177 123.921C280.334 124.063 280.541 124.138 280.753 124.129C280.969 124.138 281.18 124.063 281.342 123.921Z" fill="#F5D596" stroke="#F5D596" stroke-width="0.267995" stroke-miterlimit="22.93"/>
<path fill-rule="evenodd" clip-rule="evenodd" d="M294.163 123.185C294.163 123.934 293.255 124.499 291.783 124.818C288.772 125.359 285.69 125.359 282.68 124.818C281.208 124.499 280.3 123.934 280.3 123.185C280.3 122.436 281.208 121.884 282.68 121.564C285.69 121.023 288.772 121.023 291.783 121.564C293.255 121.884 294.163 122.448 294.163 123.185ZM291.5 123.455L292.727 123.185L291.5 122.927C288.661 122.414 285.752 122.414 282.913 122.927C282.128 123.099 281.686 123.185 281.686 123.185L282.913 123.455C285.752 123.969 288.661 123.969 291.5 123.455Z" fill="#F5D596" stroke="#F5D596" stroke-width="0.267995" stroke-miterlimit="22.93"/>
<path fill-rule="evenodd" clip-rule="evenodd" d="M282.926 129.694C282.925 130.07 282.842 130.442 282.683 130.783C282.524 131.125 282.293 131.427 282.006 131.671C281.428 132.184 280.681 132.464 279.908 132.456C279.132 132.463 278.381 132.184 277.798 131.671C277.509 131.429 277.277 131.126 277.118 130.785C276.959 130.443 276.876 130.071 276.876 129.694C276.876 129.317 276.959 128.944 277.118 128.603C277.277 128.261 277.509 127.959 277.798 127.717C278.386 127.217 279.131 126.943 279.902 126.943C280.673 126.943 281.419 127.217 282.006 127.717C282.293 127.96 282.524 128.263 282.683 128.604C282.842 128.945 282.925 129.317 282.926 129.694ZM281.098 130.639C281.237 130.524 281.348 130.379 281.424 130.216C281.501 130.052 281.54 129.874 281.54 129.694C281.538 129.515 281.498 129.339 281.422 129.178C281.346 129.017 281.235 128.875 281.098 128.76C280.758 128.468 280.32 128.315 279.871 128.331C279.422 128.31 278.983 128.464 278.645 128.76C278.508 128.876 278.398 129.019 278.323 129.182C278.247 129.344 278.208 129.521 278.208 129.7C278.208 129.879 278.247 130.056 278.323 130.218C278.398 130.38 278.508 130.524 278.645 130.639C278.986 130.93 279.423 131.083 279.871 131.069C280.319 131.079 280.755 130.926 281.098 130.639Z" fill="#F5D596" stroke="#F5D596" stroke-width="0.267995" stroke-miterlimit="22.93"/>
<path fill-rule="evenodd" clip-rule="evenodd" d="M280.815 130.011C280.814 130.262 280.758 130.509 280.652 130.736C280.546 130.962 280.393 131.164 280.202 131.325C279.825 131.651 279.344 131.83 278.846 131.83C278.348 131.83 277.867 131.651 277.49 131.325C277.297 131.165 277.142 130.964 277.035 130.737C276.929 130.51 276.874 130.262 276.874 130.011C276.874 129.76 276.929 129.513 277.035 129.285C277.142 129.058 277.297 128.858 277.49 128.697C277.867 128.372 278.348 128.192 278.846 128.192C279.344 128.192 279.825 128.372 280.202 128.697C280.393 128.859 280.546 129.06 280.652 129.287C280.758 129.514 280.814 129.761 280.815 130.011ZM279.281 130.294C279.323 130.259 279.357 130.216 279.38 130.168C279.404 130.119 279.416 130.065 279.416 130.011C279.415 129.957 279.403 129.904 279.379 129.856C279.356 129.807 279.323 129.764 279.281 129.729C279.156 129.629 279 129.577 278.84 129.582C278.678 129.58 278.522 129.637 278.398 129.741C278.32 129.81 278.272 129.907 278.263 130.011C278.266 130.066 278.28 130.12 278.306 130.169C278.331 130.217 278.367 130.26 278.41 130.294C278.532 130.391 278.684 130.443 278.84 130.441C278.929 130.451 279.02 130.444 279.106 130.418C279.193 130.393 279.273 130.351 279.343 130.294H279.281Z" fill="#F5D596" stroke="#F5D596" stroke-width="0.267995" stroke-miterlimit="22.93"/>
<path fill-rule="evenodd" clip-rule="evenodd" d="M360.14 222.021V2.88607H256.745V222.021H263.787V11.064H353.27V222.021H360.14ZM361.526 2.223V223.408H351.883V11.7885H264.621V222.021H265.173V223.408H255.359V1.49854H361.538L361.526 2.223Z" fill="#F5D596" stroke="#F5D596" stroke-width="0.267995" stroke-miterlimit="22.93"/>
<path fill-rule="evenodd" clip-rule="evenodd" d="M354.08 223.409H349.762V14.1586H266.793V223.409H262.892V222.009H264.622H265.407H266.094V13.2622H350.694V222.009H351.148H352.166H354.08V223.409Z" fill="#F5D596" stroke="#F5D596" stroke-width="0.267995" stroke-miterlimit="22.93"/>
<path fill-rule="evenodd" clip-rule="evenodd" d="M271.051 217.625V18.7759H345.591C345.64 85.2965 345.64 151.809 345.591 218.313H271.051V217.625ZM272.437 20.1634V216.926H344.168V20.1634H272.437Z" fill="#F5D596" stroke="#F5D596" stroke-width="0.267995" stroke-miterlimit="22.93"/>
<path fill-rule="evenodd" clip-rule="evenodd" d="M265.628 222.204L271.603 216.653L272.548 217.672L266.573 223.21L265.628 222.204Z" fill="#F5D596" stroke="#F5D596" stroke-width="0.267995" stroke-miterlimit="22.93"/>
<path d="M345.335 217.162L344.402 218.188L349.993 223.278L350.925 222.252L345.335 217.162Z" fill="#F5D596" stroke="#F5D596" stroke-width="0.267995" stroke-miterlimit="22.93"/>
<path fill-rule="evenodd" clip-rule="evenodd" d="M256.574 1.73096L265.542 11.7876H264.622V12.8436L255.531 2.6519L256.574 1.73096ZM266.388 13.2612L266.143 13.4822V13.2612H266.388Z" fill="#F5D596" stroke="#F5D596" stroke-width="0.267995" stroke-miterlimit="22.93"/>
<path fill-rule="evenodd" clip-rule="evenodd" d="M349.933 13.3962L350.055 13.2612H350.693V14.0839L349.933 13.3962ZM351.883 13.2612V11.7876H351.356L360.311 1.73096L361.354 2.6519L351.883 13.298V13.2612Z" fill="#F5D596" stroke="#F5D596" stroke-width="0.267995" stroke-miterlimit="22.93"/>
<path fill-rule="evenodd" clip-rule="evenodd" d="M284.716 95.2505V50.3086H328.157V95.9381H284.716V95.2505ZM286.114 51.6961V94.5506H326.77V51.6961H286.114Z" fill="#F5D596" stroke="#F5D596" stroke-width="0.267995" stroke-miterlimit="22.93"/>
<path fill-rule="evenodd" clip-rule="evenodd" d="M288.31 91.8246V53.4644H324.856V92.5122H288.31V91.8246ZM289.696 54.8519V91.1247H323.507V54.8519H289.696Z" fill="#F5D596" stroke="#F5D596" stroke-width="0.267995" stroke-miterlimit="22.93"/>
<path fill-rule="evenodd" clip-rule="evenodd" d="M271.051 217.624V209.446H345.591V218.312H271.051V217.624ZM272.437 210.834V216.973H344.168V210.834H272.437Z" fill="#F5D596" stroke="#F5D596" stroke-width="0.267995" stroke-miterlimit="22.93"/>
<path fill-rule="evenodd" clip-rule="evenodd" d="M168.372 124.678C168.367 125.112 168.266 125.538 168.075 125.927C167.884 126.316 167.608 126.657 167.268 126.925C166.555 127.489 165.673 127.796 164.765 127.796C163.857 127.796 162.975 127.489 162.262 126.925C161.917 126.662 161.636 126.322 161.443 125.932C161.25 125.542 161.15 125.113 161.15 124.678C161.15 124.243 161.25 123.814 161.443 123.424C161.636 123.035 161.917 122.695 162.262 122.431C162.978 121.874 163.858 121.571 164.765 121.571C165.672 121.571 166.552 121.874 167.268 122.431C167.607 122.7 167.881 123.042 168.072 123.43C168.263 123.819 168.366 124.245 168.372 124.678ZM166.384 125.906C166.572 125.761 166.724 125.575 166.828 125.362C166.932 125.149 166.986 124.915 166.986 124.678C166.982 124.442 166.927 124.209 166.823 123.997C166.719 123.784 166.569 123.598 166.384 123.45C165.917 123.1 165.349 122.91 164.765 122.91C164.181 122.91 163.613 123.1 163.146 123.45C162.957 123.595 162.803 123.78 162.697 123.993C162.59 124.206 162.534 124.44 162.532 124.678C162.531 124.917 162.586 125.152 162.693 125.365C162.799 125.579 162.954 125.764 163.146 125.906C163.609 126.265 164.179 126.459 164.765 126.459C165.351 126.459 165.921 126.265 166.384 125.906Z" fill="#F5D596" stroke="#F5D596" stroke-width="0.267995" stroke-miterlimit="22.93"/>
<path fill-rule="evenodd" clip-rule="evenodd" d="M168.373 125.046C168.369 125.35 168.298 125.651 168.164 125.925C168.031 126.198 167.838 126.439 167.601 126.63C167.12 127.014 166.523 127.224 165.908 127.224C165.292 127.224 164.695 127.014 164.215 126.63C163.975 126.444 163.781 126.205 163.648 125.933C163.515 125.661 163.445 125.361 163.445 125.058C163.445 124.755 163.515 124.455 163.648 124.183C163.781 123.91 163.975 123.672 164.215 123.486C164.699 123.105 165.297 122.897 165.914 122.897C166.53 122.897 167.128 123.105 167.613 123.486C167.847 123.677 168.036 123.916 168.167 124.188C168.299 124.459 168.369 124.756 168.373 125.058V125.046ZM166.717 125.561C166.798 125.502 166.865 125.424 166.912 125.335C166.959 125.245 166.984 125.147 166.987 125.046C166.983 124.948 166.958 124.853 166.914 124.766C166.869 124.679 166.806 124.603 166.729 124.542C166.493 124.368 166.207 124.274 165.914 124.274C165.62 124.274 165.334 124.368 165.098 124.542C165.022 124.604 164.96 124.68 164.916 124.767C164.872 124.853 164.846 124.948 164.84 125.046C164.843 125.145 164.868 125.243 164.912 125.332C164.957 125.421 165.02 125.499 165.098 125.561C165.331 125.738 165.615 125.832 165.908 125.832C166.201 125.841 166.488 125.746 166.717 125.561Z" fill="#F5D596" stroke="#F5D596" stroke-width="0.267995" stroke-miterlimit="22.93"/>
<path fill-rule="evenodd" clip-rule="evenodd" d="M181.867 124.677C181.867 125.475 180.812 126.077 179.107 126.421C175.517 127.026 171.851 127.026 168.262 126.421C166.557 126.077 165.501 125.475 165.501 124.677C165.501 123.879 166.557 123.277 168.25 122.933C171.843 122.319 175.514 122.319 179.107 122.933C180.812 123.265 181.867 123.879 181.867 124.665V124.677ZM178.837 125.058C179.394 124.977 179.944 124.849 180.481 124.677C179.944 124.505 179.394 124.377 178.837 124.296C175.426 123.723 171.943 123.723 168.532 124.296C167.976 124.385 167.426 124.512 166.888 124.677C167.424 124.849 167.974 124.977 168.532 125.058C171.943 125.63 175.426 125.63 178.837 125.058Z" fill="#F5D596" stroke="#F5D596" stroke-width="0.267995" stroke-miterlimit="22.93"/>
<path fill-rule="evenodd" clip-rule="evenodd" d="M168.373 131.996C168.368 132.417 168.27 132.831 168.085 133.209C167.9 133.587 167.634 133.919 167.305 134.182C166.616 134.723 165.765 135.018 164.889 135.018C164.012 135.018 163.161 134.723 162.472 134.182C162.136 133.926 161.864 133.597 161.677 133.218C161.489 132.84 161.392 132.424 161.392 132.002C161.392 131.58 161.489 131.164 161.677 130.786C161.864 130.408 162.136 130.078 162.472 129.823C163.161 129.281 164.012 128.986 164.889 128.986C165.765 128.986 166.616 129.281 167.305 129.823C167.632 130.083 167.898 130.414 168.082 130.789C168.267 131.165 168.366 131.577 168.373 131.996ZM166.422 133.113C166.597 132.986 166.739 132.819 166.837 132.625C166.935 132.432 166.987 132.219 166.987 132.002C166.987 131.785 166.935 131.572 166.837 131.379C166.739 131.186 166.597 131.018 166.422 130.891C165.984 130.55 165.443 130.369 164.889 130.375C164.333 130.362 163.79 130.545 163.355 130.891C163.183 131.021 163.043 131.188 162.943 131.379C162.843 131.57 162.787 131.781 162.778 131.996C162.786 132.212 162.84 132.424 162.937 132.617C163.035 132.81 163.173 132.979 163.343 133.113C163.784 133.456 164.33 133.638 164.889 133.629C165.443 133.636 165.984 133.454 166.422 133.113Z" fill="#F5D596" stroke="#F5D596" stroke-width="0.267995" stroke-miterlimit="22.93"/>
<path fill-rule="evenodd" clip-rule="evenodd" d="M165.833 132.365C165.83 132.639 165.766 132.91 165.645 133.156C165.524 133.402 165.349 133.619 165.134 133.789C164.704 134.138 164.166 134.325 163.613 134.317C163.061 134.317 162.525 134.131 162.091 133.789C161.876 133.619 161.702 133.402 161.581 133.156C161.46 132.91 161.395 132.639 161.392 132.365C161.397 132.089 161.462 131.817 161.583 131.569C161.703 131.32 161.877 131.102 162.091 130.928C162.525 130.585 163.06 130.399 163.613 130.399C164.165 130.399 164.701 130.585 165.134 130.928C165.35 131.1 165.525 131.318 165.646 131.567C165.767 131.816 165.831 132.088 165.833 132.365ZM164.251 132.721C164.311 132.682 164.361 132.628 164.396 132.565C164.431 132.502 164.449 132.431 164.449 132.358C164.449 132.286 164.431 132.215 164.396 132.152C164.361 132.089 164.311 132.035 164.251 131.996C164.07 131.872 163.856 131.805 163.637 131.805C163.418 131.805 163.204 131.872 163.024 131.996C162.963 132.035 162.913 132.089 162.878 132.152C162.844 132.215 162.825 132.286 162.825 132.358C162.825 132.431 162.844 132.502 162.878 132.565C162.913 132.628 162.963 132.682 163.024 132.721C163.204 132.845 163.418 132.912 163.637 132.912C163.856 132.912 164.07 132.845 164.251 132.721Z" fill="#F5D596" stroke="#F5D596" stroke-width="0.267995" stroke-miterlimit="22.93"/>
<path fill-rule="evenodd" clip-rule="evenodd" d="M247.857 222.838V2.91734H117.817V222.838H126.049V11.0216H239.638V222.838H247.857ZM249.244 2.2297V224.226H238.202V12.4092H127.423V224.226H116.381V1.52979H249.244V2.2297Z" fill="#F5D596" stroke="#F5D596" stroke-width="0.267995" stroke-miterlimit="22.93"/>
<path fill-rule="evenodd" clip-rule="evenodd" d="M238.938 224.224H235.283V15.2562H130.269V224.224H126.723V222.836H128.882V13.8687H236.669V222.836H238.938V224.224Z" fill="#F5D596" stroke="#F5D596" stroke-width="0.267995" stroke-miterlimit="22.93"/>
<path fill-rule="evenodd" clip-rule="evenodd" d="M136.183 219.191V20.98H229.947V219.903H136.183V219.216V219.191ZM137.569 22.3675V218.442H228.573V22.3675H137.569Z" fill="#F5D596" stroke="#F5D596" stroke-width="0.267995" stroke-miterlimit="22.93"/>
<path d="M136.522 218.584L129.227 222.93L129.936 224.122L137.231 219.776L136.522 218.584Z" fill="#F5D596" stroke="#F5D596" stroke-width="0.267995" stroke-miterlimit="22.93"/>
<path fill-rule="evenodd" clip-rule="evenodd" d="M235.6 224.114L228.89 219.767L229.638 218.601L236.349 222.947L235.6 224.114Z" fill="#F5D596" stroke="#F5D596" stroke-width="0.267995" stroke-miterlimit="22.93"/>
<path d="M248.083 1.73917L238.462 11.2285L239.435 12.2168L249.056 2.72748L248.083 1.73917Z" fill="#F5D596" stroke="#F5D596" stroke-width="0.267995" stroke-miterlimit="22.93"/>
<path d="M117.594 1.71432L116.621 2.70264L126.242 12.192L127.215 11.2037L117.594 1.71432Z" fill="#F5D596" stroke="#F5D596" stroke-width="0.267995" stroke-miterlimit="22.93"/>
<path d="M158.878 21.668H157.491V219.179H158.878V21.668Z" fill="#F5D596" stroke="#F5D596" stroke-width="0.267995" stroke-miterlimit="22.93"/>
<path fill-rule="evenodd" clip-rule="evenodd" d="M136.183 152.391V134.709H229.947V153.128H136.183V152.428V152.391ZM137.569 136.097V151.703H228.573V136.097H137.569Z" fill="#F5D596" stroke="#F5D596" stroke-width="0.267995" stroke-miterlimit="22.93"/>
<path fill-rule="evenodd" clip-rule="evenodd" d="M170.396 116.683V33.1846H194.932V117.408H170.396V116.72V116.683ZM171.783 34.5353V115.983H193.497V34.5353H171.783Z" fill="#F5D596" stroke="#F5D596" stroke-width="0.267995" stroke-miterlimit="22.93"/>
<path fill-rule="evenodd" clip-rule="evenodd" d="M173.219 113.467V35.9116H191.498V114.167H173.219V113.467ZM174.606 37.336V112.841H190.112V37.2992L174.606 37.336Z" fill="#F5D596" stroke="#F5D596" stroke-width="0.267995" stroke-miterlimit="22.93"/>
<path fill-rule="evenodd" clip-rule="evenodd" d="M10.3482 222.432V12.6044H95.8929V222.432H105.916V2.91607H2.38629V222.432H10.3482ZM11.7713 13.9919V223.831H1V1.57764H107.339V223.831H94.5434V13.9919H11.7713Z" fill="#F5D596" stroke="#F5D596" stroke-width="0.267995" stroke-miterlimit="22.93"/>
<path fill-rule="evenodd" clip-rule="evenodd" d="M7.4165 223.096V9.18018H98.3468V223.096H96.9606V10.58H8.80279V223.096H7.4165Z" fill="#F5D596" stroke="#F5D596" stroke-width="0.267995" stroke-miterlimit="22.93"/>
<path fill-rule="evenodd" clip-rule="evenodd" d="M15.415 216.145V16.9268H90.9245C90.9736 83.5701 90.9736 150.209 90.9245 216.845H15.415V216.145ZM16.8013 18.2898V215.457H89.5382V18.2898H16.8013Z" fill="#F5D596" stroke="#F5D596" stroke-width="0.267995" stroke-miterlimit="22.93"/>
<path d="M15.5501 215.75L10.522 222.733L11.6466 223.544L16.6747 216.561L15.5501 215.75Z" fill="#F5D596" stroke="#F5D596" stroke-width="0.267995" stroke-miterlimit="22.93"/>
<path d="M90.8157 215.649L89.6816 216.447L94.6843 223.569L95.8183 222.771L90.8157 215.649Z" fill="#F5D596" stroke="#F5D596" stroke-width="0.267995" stroke-miterlimit="22.93"/>
<path fill-rule="evenodd" clip-rule="evenodd" d="M97.2056 9.35022L106.21 1.68799L107.094 2.744L98.1011 10.4062L97.2056 9.35022Z" fill="#F5D596" stroke="#F5D596" stroke-width="0.267995" stroke-miterlimit="22.93"/>
<path d="M2.22877 1.78394L1.16309 2.67139L7.69119 10.525L8.75687 9.63753L2.22877 1.78394Z" fill="#F5D596" stroke="#F5D596" stroke-width="0.267995" stroke-miterlimit="22.93"/>
<path fill-rule="evenodd" clip-rule="evenodd" d="M25.4763 124.113C25.4697 124.478 25.3775 124.836 25.207 125.158C25.0365 125.48 24.7925 125.757 24.4949 125.967C23.8716 126.412 23.1255 126.65 22.3603 126.65C21.5951 126.65 20.849 126.412 20.2256 125.967C19.9265 125.758 19.6807 125.481 19.5081 125.159C19.3355 124.837 19.2409 124.479 19.2319 124.113C19.2395 123.746 19.3321 123.385 19.5024 123.059C19.6726 122.733 19.916 122.451 20.2134 122.235C20.8396 121.786 21.5904 121.546 22.3603 121.547C23.127 121.542 23.8752 121.783 24.4949 122.235C24.7944 122.449 25.0393 122.73 25.2098 123.057C25.3803 123.383 25.4716 123.745 25.4763 124.113ZM23.6484 124.862C23.7773 124.783 23.8848 124.673 23.9617 124.542C24.0387 124.412 24.0828 124.265 24.0901 124.113C24.083 123.96 24.0406 123.81 23.9661 123.676C23.8916 123.542 23.7871 123.427 23.6607 123.34C23.2815 123.069 22.8258 122.927 22.3603 122.935C21.8945 122.926 21.4383 123.068 21.0599 123.34C20.9248 123.417 20.8125 123.529 20.7344 123.664C20.6563 123.798 20.6151 123.951 20.6151 124.107C20.6151 124.263 20.6563 124.416 20.7344 124.551C20.8125 124.686 20.9248 124.797 21.0599 124.875C21.4398 125.142 21.8959 125.28 22.3603 125.268C22.8231 125.282 23.2771 125.139 23.6484 124.862Z" fill="#F5D596" stroke="#F5D596" stroke-width="0.267995" stroke-miterlimit="22.93"/>
<path fill-rule="evenodd" clip-rule="evenodd" d="M25.4763 124.113C25.4697 124.478 25.3775 124.836 25.207 125.158C25.0365 125.48 24.7925 125.757 24.4949 125.967C23.8716 126.412 23.1255 126.65 22.3603 126.65C21.5951 126.65 20.849 126.412 20.2256 125.967C19.9265 125.758 19.6807 125.481 19.5081 125.159C19.3355 124.837 19.2409 124.479 19.2319 124.113C19.2395 123.746 19.3321 123.385 19.5024 123.059C19.6726 122.733 19.916 122.451 20.2134 122.235C20.8396 121.786 21.5904 121.546 22.3603 121.547C23.127 121.542 23.8752 121.783 24.4949 122.235C24.7944 122.449 25.0393 122.73 25.2098 123.057C25.3803 123.383 25.4716 123.745 25.4763 124.113ZM23.6484 124.862C23.7773 124.783 23.8848 124.673 23.9617 124.542C24.0387 124.412 24.0828 124.265 24.0901 124.113C24.083 123.96 24.0406 123.81 23.9661 123.676C23.8916 123.542 23.7871 123.427 23.6607 123.34C23.2815 123.069 22.8258 122.927 22.3603 122.935C21.8945 122.926 21.4383 123.068 21.0599 123.34C20.9248 123.417 20.8125 123.529 20.7344 123.664C20.6563 123.798 20.6151 123.951 20.6151 124.107C20.6151 124.263 20.6563 124.416 20.7344 124.551C20.8125 124.686 20.9248 124.797 21.0599 124.875C21.4398 125.142 21.8959 125.28 22.3603 125.268C22.8231 125.282 23.2771 125.139 23.6484 124.862Z" fill="#F5D596" stroke="#F5D596" stroke-width="0.267995" stroke-miterlimit="22.93"/>
<path fill-rule="evenodd" clip-rule="evenodd" d="M25.4742 124.396C25.469 124.658 25.4031 124.916 25.2818 125.148C25.1604 125.38 24.9869 125.581 24.7749 125.735C24.3513 126.051 23.8371 126.221 23.3089 126.221C22.7806 126.221 22.2664 126.051 21.8428 125.735C21.6277 125.583 21.4521 125.381 21.3309 125.147C21.2098 124.913 21.1465 124.654 21.1465 124.39C21.1465 124.127 21.2098 123.867 21.3309 123.633C21.4521 123.399 21.6277 123.198 21.8428 123.046C22.2664 122.73 22.7806 122.559 23.3089 122.559C23.8371 122.559 24.3513 122.73 24.7749 123.046C24.9879 123.201 25.1619 123.404 25.2832 123.639C25.4045 123.873 25.4699 124.132 25.4742 124.396ZM23.9284 124.642C23.9748 124.618 24.0138 124.582 24.041 124.538C24.0682 124.493 24.0826 124.442 24.0826 124.39C24.0826 124.338 24.0682 124.287 24.041 124.243C24.0138 124.198 23.9748 124.162 23.9284 124.139C23.7445 124.013 23.5255 123.948 23.3027 123.954C23.084 123.95 22.8694 124.014 22.6893 124.139C22.6454 124.167 22.6084 124.205 22.5808 124.25C22.5532 124.294 22.5358 124.344 22.5299 124.396C22.5389 124.446 22.5577 124.493 22.5851 124.535C22.6124 124.577 22.6479 124.614 22.6893 124.642C22.8694 124.766 23.084 124.831 23.3027 124.826C23.5255 124.832 23.7445 124.768 23.9284 124.642Z" fill="#F5D596" stroke="#F5D596" stroke-width="0.267995" stroke-miterlimit="22.93"/>
<path fill-rule="evenodd" clip-rule="evenodd" d="M34.8838 124.111C34.8838 124.725 34.5035 125.266 33.4607 125.585C32.2558 125.871 31.018 125.995 29.7803 125.953C28.2638 125.969 26.7489 125.85 25.2534 125.597C23.769 125.327 22.7998 124.811 22.7998 124.111C22.7998 123.411 23.7199 122.883 25.2534 122.601C26.7501 122.36 28.2644 122.245 29.7803 122.257C31.0182 122.209 32.2568 122.333 33.4607 122.626C34.5035 122.945 34.8838 123.485 34.8838 124.111ZM33.0559 124.259C33.2056 124.218 33.353 124.168 33.4975 124.111C33.3587 124.037 33.21 123.984 33.0559 123.952C31.9712 123.697 30.8565 123.593 29.7435 123.645C28.3099 123.63 26.8776 123.737 25.462 123.964C24.6891 124.111 24.2352 124.038 24.2352 124.111C24.2352 124.185 24.7259 124.111 25.462 124.234C26.8764 124.473 28.3093 124.584 29.7435 124.566C30.8686 124.614 31.9951 124.511 33.0927 124.259H33.0559Z" fill="#F5D596" stroke="#F5D596" stroke-width="0.267995" stroke-miterlimit="22.93"/>
<path fill-rule="evenodd" clip-rule="evenodd" d="M34.8838 124.111C34.8838 124.725 34.5035 125.266 33.4607 125.585C32.2558 125.871 31.018 125.995 29.7803 125.953C28.2638 125.969 26.7489 125.85 25.2534 125.597C23.769 125.327 22.7998 124.811 22.7998 124.111C22.7998 123.411 23.7199 122.883 25.2534 122.601C26.7501 122.36 28.2644 122.245 29.7803 122.257C31.0182 122.209 32.2568 122.333 33.4607 122.626C34.5035 122.945 34.8838 123.485 34.8838 124.111ZM33.0559 124.259C33.2056 124.218 33.353 124.168 33.4975 124.111C33.3587 124.037 33.21 123.984 33.0559 123.952C31.9712 123.697 30.8565 123.593 29.7435 123.645C28.3099 123.63 26.8776 123.737 25.462 123.964C24.6891 124.111 24.2352 124.038 24.2352 124.111C24.2352 124.185 24.7259 124.111 25.462 124.234C26.8764 124.473 28.3093 124.584 29.7435 124.566C30.8686 124.614 31.9951 124.511 33.0927 124.259H33.0559Z" fill="#F5D596" stroke="#F5D596" stroke-width="0.267995" stroke-miterlimit="22.93"/>
<path fill-rule="evenodd" clip-rule="evenodd" d="M25.4739 129.723C25.4692 130.08 25.3801 130.431 25.2137 130.747C25.0474 131.063 24.8086 131.335 24.517 131.541C23.9197 131.979 23.1966 132.212 22.456 132.204C21.7119 132.21 20.9853 131.978 20.3827 131.541C20.0932 131.333 19.856 131.061 19.6899 130.745C19.5238 130.43 19.4334 130.08 19.4258 129.723C19.4324 129.368 19.5225 129.02 19.6887 128.706C19.855 128.393 20.0927 128.123 20.3827 127.918C20.9813 127.472 21.7097 127.235 22.456 127.243C23.1988 127.233 23.9238 127.471 24.517 127.918C24.8091 128.121 25.0485 128.39 25.215 128.704C25.3815 129.018 25.4703 129.368 25.4739 129.723ZM23.6828 130.436C23.8013 130.357 23.8996 130.251 23.97 130.128C24.0403 130.004 24.0806 129.866 24.0876 129.723C24.0797 129.581 24.0389 129.443 23.9687 129.32C23.8985 129.196 23.8006 129.091 23.6828 129.011C23.3215 128.764 22.8938 128.631 22.456 128.631C22.0181 128.631 21.5905 128.764 21.2292 129.011C21.1104 129.091 21.0111 129.196 20.9389 129.319C20.8666 129.443 20.8233 129.581 20.8121 129.723C20.8214 129.866 20.864 130.005 20.9364 130.129C21.0089 130.253 21.1091 130.358 21.2292 130.436C21.5905 130.683 22.0181 130.816 22.456 130.816C22.8938 130.816 23.3215 130.683 23.6828 130.436Z" fill="#F5D596" stroke="#F5D596" stroke-width="0.267995" stroke-miterlimit="22.93"/>
<path fill-rule="evenodd" clip-rule="evenodd" d="M25.4739 129.723C25.4692 130.08 25.3801 130.431 25.2137 130.747C25.0474 131.063 24.8086 131.335 24.517 131.541C23.9197 131.979 23.1966 132.212 22.456 132.204C21.7119 132.21 20.9853 131.978 20.3827 131.541C20.0932 131.333 19.856 131.061 19.6899 130.745C19.5238 130.43 19.4334 130.08 19.4258 129.723C19.4324 129.368 19.5225 129.02 19.6887 128.706C19.855 128.393 20.0927 128.123 20.3827 127.918C20.9813 127.472 21.7097 127.235 22.456 127.243C23.1988 127.233 23.9238 127.471 24.517 127.918C24.8091 128.121 25.0485 128.39 25.215 128.704C25.3815 129.018 25.4703 129.368 25.4739 129.723ZM23.6828 130.436C23.8013 130.357 23.8996 130.251 23.97 130.128C24.0403 130.004 24.0806 129.866 24.0876 129.723C24.0797 129.581 24.0389 129.443 23.9687 129.32C23.8985 129.196 23.8006 129.091 23.6828 129.011C23.3215 128.764 22.8938 128.631 22.456 128.631C22.0181 128.631 21.5905 128.764 21.2292 129.011C21.1104 129.091 21.0111 129.196 20.9389 129.319C20.8666 129.443 20.8233 129.581 20.8121 129.723C20.8214 129.866 20.864 130.005 20.9364 130.129C21.0089 130.253 21.1091 130.358 21.2292 130.436C21.5905 130.683 22.0181 130.816 22.456 130.816C22.8938 130.816 23.3215 130.683 23.6828 130.436Z" fill="#F5D596" stroke="#F5D596" stroke-width="0.267995" stroke-miterlimit="22.93"/>
<path fill-rule="evenodd" clip-rule="evenodd" d="M23.3651 130.031C23.3609 130.273 23.2998 130.51 23.1869 130.723C23.0739 130.937 22.9122 131.12 22.7149 131.259C22.3315 131.538 21.8699 131.688 21.3962 131.688C20.9224 131.688 20.4607 131.538 20.0773 131.259C19.8799 131.121 19.7187 130.938 19.6074 130.724C19.4961 130.51 19.438 130.273 19.438 130.031C19.438 129.79 19.4961 129.553 19.6074 129.339C19.7187 129.125 19.8799 128.942 20.0773 128.804C20.4607 128.525 20.9224 128.375 21.3962 128.375C21.8699 128.375 22.3315 128.525 22.7149 128.804C22.9136 128.941 23.0764 129.125 23.1896 129.338C23.3027 129.552 23.3629 129.79 23.3651 130.031ZM21.8807 130.179C21.9069 130.163 21.9292 130.142 21.9462 130.116C21.9632 130.091 21.9743 130.062 21.9789 130.031C21.9789 130.031 21.9789 129.946 21.8807 129.896C21.7397 129.802 21.5721 129.754 21.4023 129.761C21.2288 129.756 21.0577 129.803 20.9115 129.896C20.9115 129.896 20.8134 129.995 20.8134 130.031C20.8134 130.068 20.8134 130.13 20.9115 130.179C21.0577 130.272 21.2288 130.32 21.4023 130.314C21.5762 130.31 21.7443 130.25 21.8807 130.142V130.179Z" fill="#F5D596" stroke="#F5D596" stroke-width="0.267995" stroke-miterlimit="22.93"/>
<path fill-rule="evenodd" clip-rule="evenodd" d="M31.3872 108.407V30.0283H53.7027V109.156H31.3872V108.456V108.407ZM32.7735 31.4159V107.719H52.3164V31.4159H32.7735Z" fill="#F5D596" stroke="#F5D596" stroke-width="0.267995" stroke-miterlimit="22.93"/>
<path fill-rule="evenodd" clip-rule="evenodd" d="M33.5342 105.607V33.2949H51.0161V106.295H33.5342V105.607ZM34.8837 34.6948V104.907H49.6053V34.6948H34.8837Z" fill="#F5D596" stroke="#F5D596" stroke-width="0.267995" stroke-miterlimit="22.93"/>
<path fill-rule="evenodd" clip-rule="evenodd" d="M15.6113 150.906V134.157H90.7405V151.569H15.6113V150.906ZM16.9976 135.569V150.206H89.3788V135.545L16.9976 135.569Z" fill="#F5D596" stroke="#F5D596" stroke-width="0.267995" stroke-miterlimit="22.93"/>
<path fill-rule="evenodd" clip-rule="evenodd" d="M679.192 124.688C679.187 125.122 679.086 125.548 678.895 125.937C678.703 126.326 678.428 126.667 678.087 126.935C677.375 127.499 676.493 127.806 675.585 127.806C674.677 127.806 673.795 127.499 673.082 126.935C672.736 126.672 672.456 126.332 672.263 125.942C672.07 125.552 671.97 125.123 671.97 124.688C671.97 124.253 672.07 123.824 672.263 123.434C672.456 123.045 672.736 122.705 673.082 122.441C673.795 121.877 674.677 121.571 675.585 121.571C676.493 121.571 677.375 121.877 678.087 122.441C678.428 122.709 678.703 123.05 678.895 123.439C679.086 123.828 679.187 124.255 679.192 124.688ZM677.204 125.916C677.389 125.781 677.54 125.603 677.644 125.398C677.747 125.193 677.801 124.967 677.801 124.737C677.801 124.508 677.747 124.281 677.644 124.077C677.54 123.872 677.389 123.694 677.204 123.559C676.74 123.2 676.171 123.006 675.585 123.006C674.999 123.006 674.429 123.2 673.965 123.559C673.776 123.691 673.621 123.867 673.514 124.072C673.406 124.278 673.351 124.506 673.351 124.737C673.351 124.969 673.406 125.197 673.514 125.402C673.621 125.608 673.776 125.784 673.965 125.916C674.429 126.275 674.999 126.469 675.585 126.469C676.171 126.469 676.74 126.275 677.204 125.916Z" fill="#F5D596" stroke="#F5D596" stroke-width="0.267995" stroke-miterlimit="22.93"/>
<path fill-rule="evenodd" clip-rule="evenodd" d="M679.193 125.059C679.19 125.362 679.119 125.661 678.985 125.933C678.852 126.205 678.658 126.443 678.42 126.631C677.942 127.02 677.344 127.232 676.727 127.232C676.111 127.232 675.513 127.02 675.034 126.631C674.795 126.445 674.601 126.206 674.468 125.934C674.334 125.662 674.265 125.362 674.265 125.059C674.265 124.756 674.334 124.456 674.468 124.184C674.601 123.912 674.795 123.673 675.034 123.487C675.513 123.1 676.112 122.892 676.727 122.898C677.344 122.887 677.944 123.096 678.42 123.487C678.658 123.675 678.852 123.913 678.985 124.185C679.119 124.457 679.19 124.756 679.193 125.059ZM677.537 125.575C677.618 125.514 677.684 125.437 677.73 125.347C677.777 125.258 677.803 125.16 677.807 125.059C677.803 124.96 677.777 124.863 677.73 124.776C677.683 124.689 677.617 124.613 677.537 124.556C677.308 124.371 677.021 124.276 676.727 124.285C676.435 124.285 676.151 124.379 675.918 124.556C675.841 124.616 675.778 124.692 675.734 124.779C675.689 124.866 675.664 124.961 675.66 125.059C675.663 125.157 675.688 125.253 675.733 125.34C675.777 125.427 675.84 125.503 675.918 125.562C676.147 125.747 676.434 125.842 676.727 125.833C677.019 125.846 677.306 125.754 677.537 125.575Z" fill="#F5D596" stroke="#F5D596" stroke-width="0.267995" stroke-miterlimit="22.93"/>
<path fill-rule="evenodd" clip-rule="evenodd" d="M692.687 124.69C692.687 125.475 691.632 126.089 689.927 126.433C686.337 127.039 682.671 127.039 679.082 126.433C677.376 126.089 676.321 125.475 676.321 124.69C676.321 123.904 677.376 123.29 679.082 122.946C682.675 122.34 686.345 122.34 689.939 122.946C691.632 123.29 692.687 123.904 692.687 124.69ZM689.657 125.07C690.213 124.982 690.762 124.855 691.301 124.69C690.764 124.517 690.214 124.39 689.657 124.309C686.245 123.736 682.763 123.736 679.352 124.309C678.794 124.39 678.244 124.517 677.708 124.69C678.246 124.855 678.795 124.982 679.352 125.07C682.763 125.643 686.245 125.643 689.657 125.07Z" fill="#F5D596" stroke="#F5D596" stroke-width="0.267995" stroke-miterlimit="22.93"/>
<path fill-rule="evenodd" clip-rule="evenodd" d="M679.193 132.008C679.189 132.427 679.091 132.84 678.906 133.216C678.722 133.593 678.455 133.922 678.126 134.182C677.432 134.746 676.566 135.054 675.672 135.054C674.778 135.054 673.912 134.746 673.219 134.182C672.885 133.926 672.615 133.597 672.429 133.22C672.244 132.843 672.147 132.428 672.147 132.008C672.147 131.588 672.244 131.173 672.429 130.796C672.615 130.419 672.885 130.09 673.219 129.835C673.908 129.293 674.759 128.999 675.635 128.999C676.512 128.999 677.363 129.293 678.052 129.835C678.381 130.095 678.647 130.425 678.832 130.801C679.016 131.177 679.115 131.589 679.12 132.008H679.193ZM677.242 133.113C677.412 132.982 677.551 132.815 677.649 132.624C677.747 132.433 677.8 132.223 677.807 132.008C677.798 131.794 677.743 131.585 677.645 131.394C677.548 131.203 677.411 131.036 677.242 130.903C676.804 130.563 676.264 130.381 675.709 130.387C675.153 130.375 674.611 130.557 674.175 130.903C673.998 131.028 673.854 131.193 673.754 131.386C673.654 131.578 673.602 131.791 673.602 132.008C673.602 132.225 673.654 132.439 673.754 132.631C673.854 132.823 673.998 132.989 674.175 133.113C674.615 133.461 675.161 133.647 675.721 133.641C676.273 133.642 676.809 133.456 677.242 133.113Z" fill="#F5D596" stroke="#F5D596" stroke-width="0.267995" stroke-miterlimit="22.93"/>
<path fill-rule="evenodd" clip-rule="evenodd" d="M676.653 132.365C676.65 132.641 676.586 132.913 676.465 133.162C676.344 133.41 676.169 133.628 675.954 133.801C675.52 134.144 674.984 134.33 674.432 134.33C673.88 134.33 673.344 134.144 672.911 133.801C672.697 133.627 672.523 133.409 672.402 133.16C672.282 132.912 672.217 132.641 672.212 132.365C672.215 132.09 672.279 131.819 672.4 131.573C672.521 131.327 672.696 131.11 672.911 130.94C673.344 130.597 673.88 130.411 674.432 130.411C674.984 130.411 675.52 130.597 675.954 130.94C676.169 131.11 676.343 131.327 676.464 131.573C676.585 131.819 676.65 132.09 676.653 132.365ZM675.07 132.733C675.129 132.69 675.177 132.635 675.211 132.571C675.245 132.507 675.264 132.437 675.267 132.365C675.263 132.294 675.243 132.226 675.209 132.164C675.175 132.102 675.128 132.049 675.07 132.008C674.89 131.884 674.676 131.817 674.457 131.817C674.238 131.817 674.024 131.884 673.844 132.008C673.786 132.049 673.739 132.102 673.705 132.164C673.671 132.226 673.651 132.294 673.647 132.365C673.65 132.437 673.669 132.507 673.703 132.571C673.737 132.635 673.785 132.69 673.844 132.733C674.024 132.858 674.238 132.924 674.457 132.924C674.676 132.924 674.89 132.858 675.07 132.733Z" fill="#F5D596" stroke="#F5D596" stroke-width="0.267995" stroke-miterlimit="22.93"/>
<path fill-rule="evenodd" clip-rule="evenodd" d="M758.678 222.85V2.92906H628.637V222.85H636.857V11.0211H750.458V222.85H758.678ZM760.064 2.22917V224.274H749.023V12.4086H638.231V224.274H627.189V1.5415H760.064V2.22917Z" fill="#F5D596" stroke="#F5D596" stroke-width="0.267995" stroke-miterlimit="22.93"/>
<path fill-rule="evenodd" clip-rule="evenodd" d="M749.758 224.224H746.102V15.2684H641.088V224.224H637.543V222.836H639.702V13.8809H747.489V222.836H749.758V224.224Z" fill="#F5D596" stroke="#F5D596" stroke-width="0.267995" stroke-miterlimit="22.93"/>
<path fill-rule="evenodd" clip-rule="evenodd" d="M646.303 219.191V20.98H740.889V219.903H646.303V219.203V219.191ZM647.689 22.3675V218.503H739.539V22.3675H647.689Z" fill="#F5D596" stroke="#F5D596" stroke-width="0.267995" stroke-miterlimit="22.93"/>
<path fill-rule="evenodd" clip-rule="evenodd" d="M639.996 222.972L646.621 218.282L647.418 219.424L640.794 224.102L639.996 222.972Z" fill="#F5D596" stroke="#F5D596" stroke-width="0.267995" stroke-miterlimit="22.93"/>
<path d="M740.579 218.638L739.817 219.797L746.419 224.142L747.18 222.983L740.579 218.638Z" fill="#F5D596" stroke="#F5D596" stroke-width="0.267995" stroke-miterlimit="22.93"/>
<path d="M758.891 1.77237L749.27 11.2617L750.243 12.25L759.864 2.76069L758.891 1.77237Z" fill="#F5D596" stroke="#F5D596" stroke-width="0.267995" stroke-miterlimit="22.93"/>
<path d="M628.412 1.68795L627.438 2.67627L637.059 12.1656L638.032 11.1773L628.412 1.68795Z" fill="#F5D596" stroke="#F5D596" stroke-width="0.267995" stroke-miterlimit="22.93"/>
<path d="M669.697 21.6802H668.311V219.191H669.697V21.6802Z" fill="#F5D596" stroke="#F5D596" stroke-width="0.267995" stroke-miterlimit="22.93"/>
<path fill-rule="evenodd" clip-rule="evenodd" d="M521.169 222.85V12.6297H606.861V222.85H616.86V2.92906H513.109V222.85H521.169ZM522.556 14.0295V224.274H511.76V1.5415H618.295V224.274H605.438V14.0295H522.556Z" fill="#F5D596" stroke="#F5D596" stroke-width="0.267995" stroke-miterlimit="22.93"/>
<path fill-rule="evenodd" clip-rule="evenodd" d="M518.138 223.501V9.2041H609.24V223.501H607.854V10.604H519.524V223.501H518.138Z" fill="#F5D596" stroke="#F5D596" stroke-width="0.267995" stroke-miterlimit="22.93"/>
<path fill-rule="evenodd" clip-rule="evenodd" d="M526.163 216.549V21.6655H601.819V217.237H526.163V216.549ZM527.549 23.004V215.849H600.433V23.0654L527.549 23.004Z" fill="#F5D596" stroke="#F5D596" stroke-width="0.267995" stroke-miterlimit="22.93"/>
<path d="M526.296 216.194L521.263 223.188L522.388 223.999L527.421 217.004L526.296 216.194Z" fill="#F5D596" stroke="#F5D596" stroke-width="0.267995" stroke-miterlimit="22.93"/>
<path d="M601.683 216.04L600.549 216.838L605.56 223.969L606.694 223.171L601.683 216.04Z" fill="#F5D596" stroke="#F5D596" stroke-width="0.267995" stroke-miterlimit="22.93"/>
<path fill-rule="evenodd" clip-rule="evenodd" d="M608.1 9.37422L617.117 1.69971L618.012 2.7557L608.995 10.4302L608.1 9.37422Z" fill="#F5D596" stroke="#F5D596" stroke-width="0.267995" stroke-miterlimit="22.93"/>
<path d="M512.944 1.74167L511.882 2.63281L518.303 10.3035L519.366 9.41239L512.944 1.74167Z" fill="#F5D596" stroke="#F5D596" stroke-width="0.267995" stroke-miterlimit="22.93"/>
<path fill-rule="evenodd" clip-rule="evenodd" d="M536.246 124.333C536.237 124.7 536.142 125.06 535.97 125.384C535.797 125.708 535.551 125.987 535.252 126.199C534.635 126.657 533.885 126.899 533.117 126.887C532.346 126.897 531.593 126.656 530.97 126.199C530.677 125.991 530.437 125.714 530.272 125.394C530.107 125.074 530.021 124.718 530.021 124.358C530.021 123.997 530.107 123.642 530.272 123.321C530.437 123.001 530.677 122.725 530.97 122.516C531.592 122.058 532.346 121.816 533.117 121.828C533.885 121.816 534.635 122.058 535.252 122.516C535.551 122.728 535.797 123.007 535.97 123.331C536.142 123.655 536.237 124.015 536.246 124.382V124.333ZM534.418 125.094C534.55 125.016 534.66 124.905 534.736 124.771C534.812 124.638 534.852 124.487 534.852 124.333C534.852 124.179 534.812 124.028 534.736 123.895C534.66 123.761 534.55 123.65 534.418 123.572C534.041 123.296 533.584 123.154 533.117 123.166C532.651 123.152 532.193 123.295 531.817 123.572C531.682 123.647 531.569 123.758 531.49 123.892C531.412 124.025 531.37 124.178 531.37 124.333C531.37 124.488 531.412 124.641 531.49 124.774C531.569 124.908 531.682 125.019 531.817 125.094C532.193 125.371 532.651 125.514 533.117 125.5C533.584 125.512 534.041 125.37 534.418 125.094Z" fill="#F5D596" stroke="#F5D596" stroke-width="0.267995" stroke-miterlimit="22.93"/>
<path fill-rule="evenodd" clip-rule="evenodd" d="M536.246 124.333C536.237 124.7 536.142 125.06 535.97 125.384C535.797 125.708 535.551 125.987 535.252 126.199C534.635 126.657 533.885 126.899 533.117 126.887C532.346 126.897 531.593 126.656 530.97 126.199C530.677 125.991 530.437 125.714 530.272 125.394C530.107 125.074 530.021 124.718 530.021 124.358C530.021 123.997 530.107 123.642 530.272 123.321C530.437 123.001 530.677 122.725 530.97 122.516C531.592 122.058 532.346 121.816 533.117 121.828C533.885 121.816 534.635 122.058 535.252 122.516C535.551 122.728 535.797 123.007 535.97 123.331C536.142 123.655 536.237 124.015 536.246 124.382V124.333ZM534.418 125.094C534.55 125.016 534.66 124.905 534.736 124.771C534.812 124.638 534.852 124.487 534.852 124.333C534.852 124.179 534.812 124.028 534.736 123.895C534.66 123.761 534.55 123.65 534.418 123.572C534.041 123.296 533.584 123.154 533.117 123.166C532.651 123.152 532.193 123.295 531.817 123.572C531.682 123.647 531.569 123.758 531.49 123.892C531.412 124.025 531.37 124.178 531.37 124.333C531.37 124.488 531.412 124.641 531.49 124.774C531.569 124.908 531.682 125.019 531.817 125.094C532.193 125.371 532.651 125.514 533.117 125.5C533.584 125.512 534.041 125.37 534.418 125.094Z" fill="#F5D596" stroke="#F5D596" stroke-width="0.267995" stroke-miterlimit="22.93"/>
<path fill-rule="evenodd" clip-rule="evenodd" d="M536.247 124.617C536.243 124.882 536.177 125.143 536.053 125.377C535.929 125.612 535.752 125.814 535.535 125.967C535.112 126.279 534.601 126.447 534.075 126.446C533.546 126.45 533.029 126.282 532.603 125.967C532.39 125.812 532.216 125.609 532.095 125.374C531.973 125.14 531.908 124.881 531.904 124.617C531.911 124.353 531.977 124.095 532.099 123.861C532.22 123.627 532.392 123.423 532.603 123.266C533.031 122.956 533.547 122.792 534.075 122.799C534.6 122.789 535.113 122.953 535.535 123.266C535.75 123.421 535.926 123.623 536.049 123.858C536.172 124.092 536.24 124.352 536.247 124.617ZM534.701 124.874C534.741 124.844 534.775 124.805 534.801 124.761C534.826 124.716 534.842 124.667 534.848 124.617C534.844 124.567 534.829 124.519 534.804 124.476C534.778 124.434 534.743 124.398 534.701 124.371C534.516 124.248 534.298 124.184 534.075 124.187C533.852 124.181 533.633 124.245 533.45 124.371C533.406 124.397 533.369 124.433 533.341 124.475C533.314 124.518 533.296 124.566 533.29 124.617C533.296 124.669 533.313 124.719 533.341 124.763C533.369 124.808 533.406 124.846 533.45 124.874C533.633 125 533.852 125.065 534.075 125.059C534.285 125.055 534.489 124.991 534.664 124.874H534.701Z" fill="#F5D596" stroke="#F5D596" stroke-width="0.267995" stroke-miterlimit="22.93"/>
<path fill-rule="evenodd" clip-rule="evenodd" d="M545.704 124.333C545.704 124.959 545.312 125.499 544.269 125.819C543.064 126.104 541.826 126.228 540.588 126.187C539.068 126.202 537.549 126.083 536.049 125.831C534.577 125.561 533.596 125.033 533.596 124.333C533.596 123.633 534.516 123.105 536.049 122.835C537.549 122.583 539.068 122.464 540.588 122.479C541.827 122.434 543.066 122.562 544.269 122.859C545.312 123.179 545.704 123.707 545.704 124.333ZM543.864 124.493C543.897 124.531 543.94 124.558 543.989 124.571C544.037 124.583 544.088 124.581 544.135 124.563C544.183 124.546 544.223 124.515 544.252 124.473C544.28 124.432 544.296 124.383 544.296 124.333C544.296 124.283 544.28 124.234 544.252 124.193C544.223 124.151 544.183 124.12 544.135 124.103C544.088 124.085 544.037 124.083 543.989 124.095C543.94 124.108 543.897 124.135 543.864 124.173C542.774 123.925 541.656 123.821 540.539 123.866C539.105 123.855 537.673 123.966 536.258 124.198C535.473 124.345 535.031 124.272 535.031 124.333C535.031 124.394 535.509 124.333 536.258 124.468C537.672 124.706 539.105 124.817 540.539 124.8C541.66 124.846 542.782 124.742 543.876 124.493H543.864Z" fill="#F5D596" stroke="#F5D596" stroke-width="0.267995" stroke-miterlimit="22.93"/>
<path fill-rule="evenodd" clip-rule="evenodd" d="M545.704 124.333C545.704 124.959 545.312 125.499 544.269 125.819C543.064 126.104 541.826 126.228 540.588 126.187C539.068 126.202 537.549 126.083 536.049 125.831C534.577 125.561 533.596 125.033 533.596 124.333C533.596 123.633 534.516 123.105 536.049 122.835C537.549 122.583 539.068 122.464 540.588 122.479C541.827 122.434 543.066 122.562 544.269 122.859C545.312 123.179 545.704 123.707 545.704 124.333ZM543.864 124.493C543.897 124.531 543.94 124.558 543.989 124.571C544.037 124.583 544.088 124.581 544.135 124.563C544.183 124.546 544.223 124.515 544.252 124.473C544.28 124.432 544.296 124.383 544.296 124.333C544.296 124.283 544.28 124.234 544.252 124.193C544.223 124.151 544.183 124.12 544.135 124.103C544.088 124.085 544.037 124.083 543.989 124.095C543.94 124.108 543.897 124.135 543.864 124.173C542.774 123.925 541.656 123.821 540.539 123.866C539.105 123.855 537.673 123.966 536.258 124.198C535.473 124.345 535.031 124.272 535.031 124.333C535.031 124.394 535.509 124.333 536.258 124.468C537.672 124.706 539.105 124.817 540.539 124.8C541.66 124.846 542.782 124.742 543.876 124.493H543.864Z" fill="#F5D596" stroke="#F5D596" stroke-width="0.267995" stroke-miterlimit="22.93"/>
<path fill-rule="evenodd" clip-rule="evenodd" d="M536.246 129.969C536.238 130.323 536.147 130.671 535.981 130.984C535.814 131.298 535.578 131.568 535.289 131.774C534.687 132.213 533.961 132.449 533.216 132.449C532.471 132.449 531.745 132.213 531.143 131.774C530.846 131.574 530.604 131.304 530.436 130.988C530.269 130.672 530.181 130.32 530.181 129.963C530.181 129.605 530.269 129.253 530.436 128.937C530.604 128.621 530.846 128.351 531.143 128.151C531.745 127.712 532.471 127.476 533.216 127.476C533.961 127.476 534.687 127.712 535.289 128.151C535.579 128.359 535.816 128.631 535.982 128.947C536.148 129.262 536.238 129.612 536.246 129.969ZM534.443 130.681C534.567 130.607 534.67 130.502 534.742 130.376C534.814 130.25 534.852 130.107 534.852 129.963C534.852 129.818 534.814 129.675 534.742 129.549C534.67 129.423 534.567 129.318 534.443 129.244C534.078 129.004 533.652 128.877 533.216 128.877C532.78 128.877 532.353 129.004 531.989 129.244C531.861 129.316 531.755 129.42 531.681 129.546C531.607 129.672 531.568 129.816 531.568 129.963C531.568 130.109 531.607 130.253 531.681 130.379C531.755 130.505 531.861 130.61 531.989 130.681C532.35 130.929 532.778 131.061 533.216 131.061C533.654 131.061 534.081 130.929 534.443 130.681Z" fill="#F5D596" stroke="#F5D596" stroke-width="0.267995" stroke-miterlimit="22.93"/>
<path fill-rule="evenodd" clip-rule="evenodd" d="M536.246 129.969C536.238 130.323 536.147 130.671 535.981 130.984C535.814 131.298 535.578 131.568 535.289 131.774C534.687 132.213 533.961 132.449 533.216 132.449C532.471 132.449 531.745 132.213 531.143 131.774C530.846 131.574 530.604 131.304 530.436 130.988C530.269 130.672 530.181 130.32 530.181 129.963C530.181 129.605 530.269 129.253 530.436 128.937C530.604 128.621 530.846 128.351 531.143 128.151C531.745 127.712 532.471 127.476 533.216 127.476C533.961 127.476 534.687 127.712 535.289 128.151C535.579 128.359 535.816 128.631 535.982 128.947C536.148 129.262 536.238 129.612 536.246 129.969ZM534.443 130.681C534.567 130.607 534.67 130.502 534.742 130.376C534.814 130.25 534.852 130.107 534.852 129.963C534.852 129.818 534.814 129.675 534.742 129.549C534.67 129.423 534.567 129.318 534.443 129.244C534.078 129.004 533.652 128.877 533.216 128.877C532.78 128.877 532.353 129.004 531.989 129.244C531.861 129.316 531.755 129.42 531.681 129.546C531.607 129.672 531.568 129.816 531.568 129.963C531.568 130.109 531.607 130.253 531.681 130.379C531.755 130.505 531.861 130.61 531.989 130.681C532.35 130.929 532.778 131.061 533.216 131.061C533.654 131.061 534.081 130.929 534.443 130.681Z" fill="#F5D596" stroke="#F5D596" stroke-width="0.267995" stroke-miterlimit="22.93"/>
<path fill-rule="evenodd" clip-rule="evenodd" d="M534.124 130.24C534.12 130.481 534.059 130.718 533.946 130.932C533.833 131.145 533.671 131.329 533.474 131.468C533.09 131.746 532.629 131.896 532.155 131.896C531.681 131.896 531.22 131.746 530.836 131.468C530.641 131.327 530.481 131.143 530.368 130.93C530.255 130.717 530.193 130.481 530.186 130.24C530.192 129.999 530.254 129.763 530.367 129.55C530.48 129.336 530.64 129.152 530.836 129.012C531.22 128.733 531.681 128.583 532.155 128.583C532.629 128.583 533.09 128.733 533.474 129.012C533.67 129.152 533.83 129.336 533.943 129.55C534.056 129.763 534.118 129.999 534.124 130.24ZM532.64 130.387C532.666 130.371 532.688 130.35 532.705 130.325C532.722 130.299 532.733 130.27 532.738 130.24C532.738 130.24 532.738 130.154 532.64 130.105C532.5 130.006 532.332 129.954 532.161 129.958C531.986 129.956 531.815 130.007 531.67 130.105C531.609 130.105 531.572 130.203 531.572 130.24C531.572 130.277 531.572 130.338 531.67 130.375C531.813 130.479 531.986 130.531 532.161 130.522C532.331 130.53 532.499 130.482 532.64 130.387Z" fill="#F5D596" stroke="#F5D596" stroke-width="0.267995" stroke-miterlimit="22.93"/>
<path fill-rule="evenodd" clip-rule="evenodd" d="M541.459 204.995V174.297H591.415V205.695H541.459V204.995ZM542.846 175.685V204.308H590.028V175.685H542.846Z" fill="#F5D596" stroke="#F5D596" stroke-width="0.267995" stroke-miterlimit="22.93"/>
<path fill-rule="evenodd" clip-rule="evenodd" d="M543.386 202.172V176.631H588.642V202.872H543.386V202.172ZM544.784 178.018V201.484H587.281V178.031L544.784 178.018Z" fill="#F5D596" stroke="#F5D596" stroke-width="0.267995" stroke-miterlimit="22.93"/>
<path d="M587.969 179.135H544.38V180.522H587.969V179.135Z" fill="#F5D596" stroke="#F5D596" stroke-width="0.267995" stroke-miterlimit="22.93"/>
<path d="M588.225 183.089H544.637V184.477H588.225V183.089Z" fill="#F5D596" stroke="#F5D596" stroke-width="0.267995" stroke-miterlimit="22.93"/>
<path d="M587.82 187.044H544.231V188.432H587.82V187.044Z" fill="#F5D596" stroke="#F5D596" stroke-width="0.267995" stroke-miterlimit="22.93"/>
<path d="M587.82 190.997H544.231V192.384H587.82V190.997Z" fill="#F5D596" stroke="#F5D596" stroke-width="0.267995" stroke-miterlimit="22.93"/>
<path d="M587.82 194.951H544.231V196.339H587.82V194.951Z" fill="#F5D596" stroke="#F5D596" stroke-width="0.267995" stroke-miterlimit="22.93"/>
<path d="M587.82 198.904H544.231V200.291H587.82V198.904Z" fill="#F5D596" stroke="#F5D596" stroke-width="0.267995" stroke-miterlimit="22.93"/>
<path fill-rule="evenodd" clip-rule="evenodd" d="M769.388 222.28V0.848633H1017.69V222.98H1000.93V12.7226H783.913V223.348L769.388 222.955V222.28ZM770.774 2.23619V221.604L782.564 221.924V11.3351H1002.32V221.58H1016.31V2.23619H770.774Z" fill="#F5D596" stroke="#F5D596" stroke-width="0.267995" stroke-miterlimit="22.93"/>
<path fill-rule="evenodd" clip-rule="evenodd" d="M783.213 221.937H786.623V14.418H998.246V221.581H1003.64V222.968H996.86V15.8055H788.01V223.337H783.213V221.937Z" fill="#F5D596" stroke="#F5D596" stroke-width="0.267995" stroke-miterlimit="22.93"/>
<path fill-rule="evenodd" clip-rule="evenodd" d="M796.253 216.853V19.9556H989.535V217.54H796.253V216.853ZM797.602 21.3431V216.153H988.149V21.3431H797.602Z" fill="#F5D596" stroke="#F5D596" stroke-width="0.267995" stroke-miterlimit="22.93"/>
<path d="M889.455 15.1182H888.068V216.841H889.455V15.1182Z" fill="#F5D596" stroke="#F5D596" stroke-width="0.267995" stroke-miterlimit="22.93"/>
<path fill-rule="evenodd" clip-rule="evenodd" d="M842.835 160.957V52.04H871.64V161.644H842.835V160.957ZM844.221 53.4276V160.257H870.254V53.4276H844.221Z" fill="#F5D596" stroke="#F5D596" stroke-width="0.267995" stroke-miterlimit="22.93"/>
<path fill-rule="evenodd" clip-rule="evenodd" d="M905.672 120.583C905.672 121.492 904.874 122.265 903.574 122.769C900.831 123.685 897.864 123.685 895.121 122.769C893.821 122.265 893.023 121.541 893.023 120.583C893.023 119.625 893.821 118.889 895.109 118.397C897.856 117.481 900.827 117.481 903.574 118.397C904.874 118.889 905.672 119.625 905.672 120.583ZM903.108 121.504C903.856 121.222 904.335 120.902 904.335 120.62C904.335 120.338 903.868 120.006 903.108 119.724C900.679 118.938 898.065 118.938 895.636 119.724C894.888 120.006 894.41 120.325 894.41 120.62C894.41 120.915 894.864 121.222 895.636 121.504C898.061 122.29 900.671 122.29 903.095 121.504H903.108Z" fill="#F5D596" stroke="#F5D596" stroke-width="0.267995" stroke-miterlimit="22.93"/>
<path fill-rule="evenodd" clip-rule="evenodd" d="M905.671 120.916C905.671 121.591 905.119 122.144 904.224 122.5C903.367 122.795 902.467 122.94 901.561 122.93C900.655 122.942 899.753 122.793 898.899 122.488C898.004 122.144 897.452 121.591 897.452 120.916C897.452 120.24 898.004 119.688 898.899 119.332C900.628 118.759 902.495 118.759 904.224 119.332C905.119 119.676 905.671 120.228 905.671 120.916ZM903.733 121.198C904.076 121.075 904.285 120.965 904.285 120.916C904.285 120.867 904.076 120.756 903.733 120.621C902.319 120.179 900.804 120.179 899.39 120.621C899.059 120.756 898.838 120.867 898.838 120.916C898.838 120.965 899.059 121.075 899.402 121.198C900.096 121.441 900.827 121.558 901.561 121.542C902.3 121.556 903.035 121.439 903.733 121.198Z" fill="#F5D596" stroke="#F5D596" stroke-width="0.267995" stroke-miterlimit="22.93"/>
<path fill-rule="evenodd" clip-rule="evenodd" d="M905.673 127.166C905.673 128.063 904.9 128.812 903.649 129.291C901.009 130.174 898.154 130.174 895.515 129.291C894.288 128.812 893.491 128.063 893.491 127.166C893.491 126.27 894.264 125.533 895.515 125.042C898.154 124.158 901.009 124.158 903.649 125.042C904.875 125.533 905.673 126.27 905.673 127.166ZM903.146 128.001C903.845 127.731 904.287 127.437 904.287 127.166C904.287 126.896 903.845 126.602 903.146 126.331C900.829 125.578 898.334 125.578 896.018 126.331C895.319 126.602 894.877 126.909 894.877 127.166C894.877 127.424 895.306 127.731 896.018 128.001C898.334 128.755 900.829 128.755 903.146 128.001Z" fill="#F5D596" stroke="#F5D596" stroke-width="0.267995" stroke-miterlimit="22.93"/>
<path fill-rule="evenodd" clip-rule="evenodd" d="M900.778 127.483C900.778 128.122 900.275 128.625 899.465 128.932C897.952 129.438 896.316 129.438 894.803 128.932C893.994 128.625 893.491 128.122 893.491 127.483C893.491 126.845 893.994 126.341 894.803 126.034C896.316 125.529 897.952 125.529 899.465 126.034C900.275 126.341 900.778 126.857 900.778 127.483ZM898.962 127.643L899.392 127.483L898.962 127.324C897.764 126.947 896.48 126.947 895.282 127.324L894.865 127.483L895.282 127.643C895.874 127.843 896.497 127.938 897.122 127.925C897.747 127.94 898.37 127.844 898.962 127.643Z" fill="#F5D596" stroke="#F5D596" stroke-width="0.267995" stroke-miterlimit="22.93"/>
<path d="M1016.61 0.918652L996.636 14.8643L997.429 16.0023L1017.4 2.05666L1016.61 0.918652Z" fill="#F5D596" stroke="#F5D596" stroke-width="0.267995" stroke-miterlimit="22.93"/>
<path d="M770.47 0.956638L769.61 2.04541L787.66 16.3181L788.519 15.2293L770.47 0.956638Z" fill="#F5D596" stroke="#F5D596" stroke-width="0.267995" stroke-miterlimit="22.93"/>
<path fill-rule="evenodd" clip-rule="evenodd" d="M845.938 159.127V53.9683H868.756V159.791H845.938V159.091V159.127ZM847.337 55.3926V158.44H867.333V55.3926H847.337Z" fill="#F5D596" stroke="#F5D596" stroke-width="0.267995" stroke-miterlimit="22.93"/>
<path fill-rule="evenodd" clip-rule="evenodd" d="M907.549 160.957V52.04H936.342V161.644H907.549V160.957ZM908.935 53.4276V160.257H935.005V53.4276H908.935Z" fill="#F5D596" stroke="#F5D596" stroke-width="0.267995" stroke-miterlimit="22.93"/>
<path fill-rule="evenodd" clip-rule="evenodd" d="M910.654 159.127V53.9683H933.436V159.791H910.654V159.091V159.127ZM912.041 55.3926V158.44H932.05V55.3926H912.041Z" fill="#F5D596" stroke="#F5D596" stroke-width="0.267995" stroke-miterlimit="22.93"/>
<path fill-rule="evenodd" clip-rule="evenodd" d="M919.35 120.583C919.35 121.344 918.197 121.921 916.345 122.216C912.392 122.756 908.385 122.756 904.432 122.216C902.568 121.921 901.427 121.344 901.427 120.583C901.427 119.822 902.58 119.244 904.432 118.937C908.385 118.397 912.392 118.397 916.345 118.937C918.197 119.244 919.35 119.822 919.35 120.583ZM916.124 120.853C917.252 120.669 917.964 120.595 917.964 120.583C917.964 120.571 917.252 120.497 916.124 120.313C912.318 119.789 908.459 119.789 904.653 120.313C903.512 120.497 902.813 120.558 902.813 120.583C902.813 120.607 903.512 120.669 904.653 120.853C908.46 121.36 912.317 121.36 916.124 120.853Z" fill="#F5D596" stroke="#F5D596" stroke-width="0.267995" stroke-miterlimit="22.93"/>
<path fill-rule="evenodd" clip-rule="evenodd" d="M919.35 120.583C919.35 121.344 918.197 121.921 916.345 122.216C912.392 122.756 908.385 122.756 904.432 122.216C902.568 121.921 901.427 121.344 901.427 120.583C901.427 119.822 902.58 119.244 904.432 118.937C908.385 118.397 912.392 118.397 916.345 118.937C918.197 119.244 919.35 119.822 919.35 120.583ZM916.124 120.853C917.252 120.669 917.964 120.595 917.964 120.583C917.964 120.571 917.252 120.497 916.124 120.313C912.318 119.789 908.459 119.789 904.653 120.313C903.512 120.497 902.813 120.558 902.813 120.583C902.813 120.607 903.512 120.669 904.653 120.853C908.46 121.36 912.317 121.36 916.124 120.853Z" fill="#F5D596" stroke="#F5D596" stroke-width="0.267995" stroke-miterlimit="22.93"/>
<path fill-rule="evenodd" clip-rule="evenodd" d="M786.968 222.034L797.126 216.054L797.825 217.245L787.667 223.237L786.968 222.034Z" fill="#F5D596" stroke="#F5D596" stroke-width="0.267995" stroke-miterlimit="22.93"/>
<path fill-rule="evenodd" clip-rule="evenodd" d="M997.18 222.856L988.47 217.232L989.218 216.066L997.928 221.69L997.18 222.856Z" fill="#F5D596" stroke="#F5D596" stroke-width="0.267995" stroke-miterlimit="22.93"/>
<path fill-rule="evenodd" clip-rule="evenodd" d="M1030.7 224.624V3.22998H1279V225.361H1262.24V15.104H1045.21V225.729L1030.7 225.336V224.624ZM1032.08 4.58066V223.986L1043.86 224.317V13.7164H1263.64V223.973H1277.61V4.61754L1032.08 4.58066Z" fill="#F5D596" stroke="#F5D596" stroke-width="0.267995" stroke-miterlimit="22.93"/>
<path fill-rule="evenodd" clip-rule="evenodd" d="M1044.52 224.33H1047.93V16.7993H1259.55V223.962H1264.95V225.362H1258.17V18.1869H1049.32V225.718H1044.52V224.33Z" fill="#F5D596" stroke="#F5D596" stroke-width="0.267995" stroke-miterlimit="22.93"/>
<path fill-rule="evenodd" clip-rule="evenodd" d="M1057.56 219.235V22.3374H1250.39V219.922H1057.56V219.235ZM1058.91 23.725V218.486H1249.06V23.725H1058.91Z" fill="#F5D596" stroke="#F5D596" stroke-width="0.267995" stroke-miterlimit="22.93"/>
<path d="M1150.76 17.5H1149.38V219.223H1150.76V17.5Z" fill="#F5D596" stroke="#F5D596" stroke-width="0.267995" stroke-miterlimit="22.93"/>
<path fill-rule="evenodd" clip-rule="evenodd" d="M1057.56 157.925V142.625H1250.39V158.588H1057.56V157.889V157.925ZM1058.91 144.013V157.238H1249.06V144.013H1058.91Z" fill="#F5D596" stroke="#F5D596" stroke-width="0.267995" stroke-miterlimit="22.93"/>
<path fill-rule="evenodd" clip-rule="evenodd" d="M1105.35 104.155V39.3818H1141V104.855H1105.35V104.155ZM1106.76 40.7694V103.467H1139.63V40.7694H1106.76Z" fill="#F5D596" stroke="#F5D596" stroke-width="0.267995" stroke-miterlimit="22.93"/>
<path fill-rule="evenodd" clip-rule="evenodd" d="M1169.32 124.562C1169.32 125.483 1168.53 126.244 1167.23 126.747C1164.48 127.648 1161.52 127.648 1158.77 126.747C1157.47 126.244 1156.67 125.519 1156.67 124.562C1156.67 123.604 1157.47 122.879 1158.76 122.376C1161.51 121.459 1164.48 121.459 1167.23 122.376C1168.53 122.879 1169.32 123.604 1169.32 124.562ZM1166.73 125.446C1167.47 125.163 1167.96 124.844 1167.96 124.562C1167.96 124.279 1167.5 123.948 1166.73 123.665C1164.31 122.88 1161.69 122.88 1159.26 123.665C1158.51 123.948 1158.04 124.279 1158.04 124.562C1158.04 124.844 1158.49 125.163 1159.26 125.446C1161.69 126.231 1164.31 126.231 1166.73 125.446Z" fill="#F5D596" stroke="#F5D596" stroke-width="0.267995" stroke-miterlimit="22.93"/>
<path fill-rule="evenodd" clip-rule="evenodd" d="M1169.32 124.893C1169.32 125.581 1168.77 126.121 1167.88 126.477C1166.15 127.05 1164.28 127.05 1162.55 126.477C1161.66 126.133 1161.1 125.581 1161.1 124.893C1161.1 124.206 1161.66 123.665 1162.54 123.309C1163.4 123.008 1164.3 122.863 1165.21 122.879C1166.12 122.862 1167.02 123.007 1167.88 123.309C1168.77 123.653 1169.32 124.218 1169.32 124.893ZM1167.38 125.188C1167.73 125.053 1167.94 124.942 1167.94 124.893C1167.94 124.844 1167.73 124.733 1167.38 124.611C1165.97 124.152 1164.45 124.152 1163.04 124.611C1162.7 124.733 1162.49 124.844 1162.49 124.893C1162.49 124.942 1162.7 125.053 1163.04 125.188C1163.74 125.419 1164.48 125.531 1165.21 125.519C1165.94 125.523 1166.65 125.403 1167.34 125.163L1167.38 125.188Z" fill="#F5D596" stroke="#F5D596" stroke-width="0.267995" stroke-miterlimit="22.93"/>
<path fill-rule="evenodd" clip-rule="evenodd" d="M1182.95 124.562C1182.95 125.323 1181.8 125.9 1179.95 126.195C1176 126.735 1171.99 126.735 1168.04 126.195C1166.18 125.9 1165.03 125.323 1165.03 124.562C1165.03 123.801 1166.18 123.223 1168.04 122.916C1171.99 122.376 1176 122.376 1179.95 122.916C1181.8 123.223 1182.95 123.801 1182.95 124.562ZM1179.73 124.832C1180.86 124.648 1181.57 124.586 1181.57 124.562C1181.57 124.537 1180.86 124.476 1179.73 124.292C1175.92 123.768 1172.06 123.768 1168.26 124.292C1167.12 124.476 1166.42 124.55 1166.42 124.562C1166.42 124.574 1167.12 124.648 1168.26 124.832C1172.06 125.339 1175.92 125.339 1179.73 124.832Z" fill="#F5D596" stroke="#F5D596" stroke-width="0.267995" stroke-miterlimit="22.93"/>
<path fill-rule="evenodd" clip-rule="evenodd" d="M1169.32 131.143C1169.32 132.039 1168.55 132.788 1167.3 133.267C1164.66 134.151 1161.81 134.151 1159.17 133.267C1157.94 132.788 1157.14 132.039 1157.14 131.143C1157.14 130.247 1157.92 129.51 1159.17 129.019C1161.81 128.135 1164.66 128.135 1167.3 129.019C1168.53 129.51 1169.32 130.247 1169.32 131.143ZM1166.8 131.978C1167.5 131.708 1167.94 131.401 1167.94 131.143C1167.94 130.885 1167.5 130.578 1166.8 130.308C1164.48 129.555 1161.99 129.555 1159.67 130.308C1158.97 130.578 1158.53 130.885 1158.53 131.143C1158.53 131.401 1158.96 131.708 1159.67 131.978C1161.99 132.731 1164.48 132.731 1166.8 131.978Z" fill="#F5D596" stroke="#F5D596" stroke-width="0.267995" stroke-miterlimit="22.93"/>
<path fill-rule="evenodd" clip-rule="evenodd" d="M1164.42 131.462C1164.42 132.1 1163.91 132.604 1163.1 132.911C1161.59 133.435 1159.95 133.435 1158.44 132.911C1157.63 132.604 1157.13 132.1 1157.13 131.462C1157.13 130.823 1157.63 130.32 1158.44 130.013C1159.95 129.507 1161.59 129.507 1163.1 130.013C1163.91 130.32 1164.42 130.836 1164.42 131.462ZM1162.6 131.622L1163.03 131.462L1162.6 131.302C1161.4 130.925 1160.12 130.925 1158.92 131.302L1158.5 131.462L1158.92 131.622C1160.11 132.017 1161.4 132.017 1162.6 131.622Z" fill="#F5D596" stroke="#F5D596" stroke-width="0.267995" stroke-miterlimit="22.93"/>
<path fill-rule="evenodd" clip-rule="evenodd" d="M1109.31 101.329V42.1924H1136.61V102.029H1109.31V101.329ZM1110.7 43.6168V100.605H1135.23V43.5799L1110.7 43.6168Z" fill="#F5D596" stroke="#F5D596" stroke-width="0.267995" stroke-miterlimit="22.93"/>
<path fill-rule="evenodd" clip-rule="evenodd" d="M1161.06 104.155V39.3818H1196.72V104.855H1161.06V104.155ZM1162.44 40.7694V103.467H1195.33V40.7694H1162.44Z" fill="#F5D596" stroke="#F5D596" stroke-width="0.267995" stroke-miterlimit="22.93"/>
<path fill-rule="evenodd" clip-rule="evenodd" d="M1165.02 101.329V42.1924H1192.33V102.029H1165.02V101.329ZM1166.4 43.6168V100.605H1190.94V43.5799L1166.4 43.6168Z" fill="#F5D596" stroke="#F5D596" stroke-width="0.267995" stroke-miterlimit="22.93"/>
<path fill-rule="evenodd" clip-rule="evenodd" d="M1031.78 3.37891L1049.93 17.3158L1049.09 18.4209L1030.93 4.4717L1031.78 3.37891Z" fill="#F5D596" stroke="#F5D596" stroke-width="0.267995" stroke-miterlimit="22.93"/>
<path d="M1057.87 218.665L1048.24 224.671L1048.97 225.849L1058.6 219.843L1057.87 218.665Z" fill="#F5D596" stroke="#F5D596" stroke-width="0.267995" stroke-miterlimit="22.93"/>
</svg>
