<svg width="1279" height="240" viewBox="0 0 1279 240" fill="none" xmlns="http://www.w3.org/2000/svg">
<path fill-rule="evenodd" clip-rule="evenodd" d="M1.89742 1.0791L235.766 1.07914C235.886 1.07912 236.004 1.10301 236.114 1.14928C236.224 1.19556 236.324 1.26329 236.408 1.34864C236.491 1.43399 236.557 1.53515 236.601 1.64622C236.645 1.75729 236.666 1.87611 236.663 1.99553L236.663 238.861C236.663 239.099 236.569 239.328 236.401 239.496C236.232 239.664 236.004 239.759 235.766 239.759L1.89738 239.759C1.65943 239.759 1.43122 239.664 1.26296 239.496C1.0947 239.327 1.00016 239.099 1.00016 238.861L1.0002 1.99549C0.997661 1.87607 1.019 1.75725 1.06295 1.64618C1.1069 1.53511 1.17256 1.43395 1.25613 1.3486C1.3397 1.26325 1.43951 1.19552 1.54963 1.14924C1.65975 1.10297 1.77798 1.07907 1.89742 1.0791ZM234.793 2.98812L2.81375 2.98808L2.81371 237.945L7.47162 237.945L7.47166 7.68421C7.47166 7.44625 7.56614 7.21804 7.7344 7.04978C7.90267 6.88152 8.13093 6.78693 8.36888 6.78693L117.448 6.78695C117.567 6.7844 117.686 6.8058 117.797 6.84975C117.908 6.8937 118.009 6.95936 118.095 7.04293C118.18 7.1265 118.248 7.22631 118.294 7.33643C118.34 7.44655 118.364 7.56478 118.364 7.68423L118.364 237.945L118.689 237.945L118.689 7.68423C118.689 7.44627 118.783 7.21806 118.951 7.0498C119.12 6.88154 119.348 6.78695 119.586 6.78695L228.665 6.78696C228.784 6.78442 228.903 6.80582 229.014 6.84977C229.125 6.89372 229.226 6.95938 229.312 7.04295C229.397 7.12652 229.465 7.22633 229.511 7.33645C229.557 7.44657 229.581 7.5648 229.581 7.68425L229.581 237.945L234.85 237.945L234.85 2.89269L234.793 2.98812ZM9.28512 237.945L116.551 237.945L116.551 8.6005L9.28516 8.60048L9.28512 237.945ZM120.502 237.945L227.768 237.945L227.768 8.60052L120.502 8.6005L120.502 237.945ZM109.965 123.635C109.132 123.615 108.32 123.893 107.674 124.418L107.578 124.514L110.805 124.514C111.044 124.519 111.272 124.617 111.44 124.789C111.608 124.96 111.702 125.19 111.702 125.43L111.702 127.148C111.704 127.267 111.683 127.386 111.639 127.497C111.595 127.608 111.529 127.709 111.446 127.795C111.362 127.88 111.263 127.948 111.152 127.994C111.042 128.04 110.924 128.064 110.805 128.064L107.788 128.064C108.441 128.54 109.231 128.788 110.038 128.771C110.845 128.754 111.624 128.472 112.255 127.969C112.522 127.756 112.737 127.486 112.885 127.179C113.033 126.871 113.11 126.535 113.11 126.194C113.11 125.852 113.033 125.516 112.885 125.208C112.737 124.901 112.522 124.631 112.255 124.418C111.605 123.901 110.796 123.625 109.965 123.635ZM106.509 123.044C106.028 123.447 105.638 123.948 105.364 124.514L94.2346 124.514C94.1143 124.514 93.9951 124.537 93.884 124.583C93.7728 124.629 93.6718 124.697 93.5867 124.782C93.5016 124.867 93.4341 124.968 93.3881 125.079C93.342 125.19 93.3184 125.31 93.3184 125.43L93.3184 127.148C93.3158 127.269 93.3377 127.389 93.3828 127.502C93.4279 127.614 93.4953 127.716 93.5809 127.802C93.6665 127.887 93.7686 127.955 93.8809 128C93.9933 128.045 94.1136 128.067 94.2346 128.064L105.459 128.064C105.727 128.552 106.083 128.986 106.509 129.343C107.483 130.144 108.704 130.581 109.965 130.581C111.225 130.581 112.446 130.144 113.42 129.343C113.89 128.964 114.269 128.484 114.53 127.939C114.791 127.394 114.926 126.798 114.926 126.194C114.926 125.589 114.791 124.993 114.53 124.448C114.269 123.903 113.89 123.423 113.42 123.044C112.446 122.243 111.225 121.806 109.965 121.806C108.704 121.806 107.483 122.243 106.509 123.044ZM126.496 121.688C125.234 121.681 124.01 122.121 123.041 122.929C122.571 123.309 122.192 123.788 121.931 124.333C121.67 124.878 121.535 125.475 121.535 126.079C121.535 126.683 121.67 127.28 121.931 127.825C122.192 128.37 122.571 128.849 123.041 129.229C124.015 130.029 125.236 130.467 126.496 130.467C127.757 130.467 128.978 130.029 129.952 129.229C130.378 128.871 130.734 128.438 131.002 127.95L142.226 127.95C142.469 127.95 142.702 127.853 142.874 127.681C143.046 127.51 143.143 127.277 143.143 127.034L143.143 125.315C143.143 125.072 143.046 124.839 142.874 124.667C142.702 124.496 142.469 124.399 142.226 124.399L131.116 124.399C130.842 123.834 130.452 123.333 129.971 122.929C129.003 122.118 127.778 121.678 126.515 121.688L126.496 121.688ZM128.787 124.304C128.137 123.783 127.329 123.5 126.496 123.5C125.664 123.5 124.856 123.783 124.206 124.304C123.939 124.516 123.724 124.787 123.576 125.094C123.428 125.401 123.351 125.738 123.351 126.079C123.351 126.42 123.428 126.757 123.576 127.064C123.724 127.371 123.939 127.642 124.206 127.854C124.847 128.344 125.632 128.609 126.439 128.609C127.246 128.609 128.031 128.344 128.673 127.854L125.656 127.854C125.417 127.849 125.189 127.751 125.021 127.579C124.853 127.408 124.759 127.178 124.759 126.938L124.759 125.22C124.759 124.98 124.853 124.75 125.021 124.579C125.189 124.407 125.417 124.309 125.656 124.304L128.902 124.304L128.787 124.304Z" fill="#F5D596" stroke="#F5D596" stroke-width="0.419975" stroke-miterlimit="22.93"/>
<path fill-rule="evenodd" clip-rule="evenodd" d="M110.212 139.04C109.11 139.046 108.041 138.66 107.196 137.952C106.785 137.612 106.452 137.187 106.222 136.705C105.991 136.224 105.867 135.699 105.86 135.165C105.868 134.634 105.991 134.111 106.222 133.633C106.453 133.155 106.785 132.733 107.196 132.397C108.048 131.694 109.118 131.31 110.222 131.31C111.326 131.31 112.396 131.694 113.248 132.397C113.656 132.734 113.985 133.157 114.213 133.635C114.441 134.113 114.561 134.635 114.565 135.165C114.561 135.697 114.441 136.222 114.214 136.704C113.986 137.185 113.656 137.611 113.248 137.952C112.397 138.663 111.321 139.049 110.212 139.04ZM108.303 136.578C108.397 136.658 108.5 136.729 108.609 136.788C108.604 136.699 108.604 136.609 108.609 136.52L108.609 135.394C108.524 135.31 108.453 135.214 108.399 135.108C108.251 134.806 108.185 134.47 108.208 134.134C108.2 134.032 108.2 133.93 108.208 133.829C108.027 134.006 107.885 134.22 107.793 134.457C107.702 134.693 107.662 134.947 107.676 135.2C107.691 135.453 107.759 135.7 107.877 135.925C107.995 136.149 108.16 136.346 108.361 136.501L108.303 136.578ZM112.675 135.165C112.672 134.933 112.624 134.704 112.532 134.491C112.44 134.278 112.307 134.085 112.14 133.924C112.15 134.019 112.15 134.115 112.14 134.21C112.144 134.512 112.064 134.809 111.911 135.07C111.864 135.175 111.799 135.271 111.72 135.356L111.72 136.482C111.73 136.584 111.73 136.686 111.72 136.788L112.007 136.578C112.215 136.404 112.384 136.189 112.502 135.945C112.621 135.702 112.686 135.436 112.694 135.165L112.675 135.165ZM110.136 134.153C110.08 134.134 110.02 134.134 109.964 134.153C110.036 134.193 110.1 134.245 110.155 134.306C110.198 134.241 110.258 134.189 110.327 134.153C110.29 134.139 110.251 134.133 110.212 134.134L110.136 134.153Z" fill="#F5D596" stroke="#F5D596" stroke-width="0.419975" stroke-miterlimit="22.93"/>
<path fill-rule="evenodd" clip-rule="evenodd" d="M1043.24 1.08691L1147.89 1.08691C1148.12 1.08691 1148.35 1.18145 1148.52 1.34971C1148.69 1.51797 1148.78 1.74618 1148.78 1.98414L1148.78 238.85C1148.78 239.088 1148.69 239.316 1148.52 239.484C1148.35 239.653 1148.12 239.747 1147.89 239.747L1043.24 239.747C1043 239.747 1042.77 239.653 1042.6 239.484C1042.43 239.316 1042.34 239.088 1042.34 238.85L1042.34 1.98414C1042.34 1.74618 1042.43 1.51797 1042.6 1.34971C1042.77 1.18145 1043 1.08691 1043.24 1.08691ZM1146.97 2.88136L1044.15 2.88136L1044.15 237.934H1047.87L1047.87 7.69199C1047.87 7.44897 1047.97 7.21589 1048.14 7.04405C1048.31 6.87221 1048.55 6.77566 1048.79 6.77566L1142.33 6.77566C1142.45 6.77563 1142.57 6.79946 1142.68 6.84574C1142.79 6.89202 1142.89 6.95984 1142.97 7.04519C1143.06 7.13053 1143.12 7.2317 1143.16 7.34276C1143.21 7.45383 1143.23 7.57257 1143.23 7.69199L1143.23 237.934H1147.05L1147.05 2.88136H1146.97ZM1141.41 8.60829L1049.69 8.60829L1049.69 237.934L1141.41 237.934L1141.41 8.58921V8.60829ZM1056.56 121.83C1055.99 121.826 1055.42 121.938 1054.88 122.157C1054.35 122.377 1053.87 122.7 1053.47 123.109C1053.06 123.514 1052.73 123.997 1052.51 124.529C1052.28 125.062 1052.17 125.633 1052.17 126.211C1052.17 126.788 1052.28 127.36 1052.51 127.892C1052.73 128.425 1053.06 128.908 1053.47 129.313C1053.87 129.724 1054.35 130.05 1054.88 130.273C1055.41 130.496 1055.98 130.611 1056.56 130.611C1057.14 130.611 1057.71 130.497 1058.25 130.274C1058.78 130.051 1059.26 129.724 1059.67 129.313C1060.02 128.949 1060.31 128.53 1060.53 128.072L1070.08 128.072C1070.32 128.072 1070.55 127.978 1070.72 127.81C1070.89 127.643 1070.99 127.415 1070.99 127.175V125.438C1070.99 125.198 1070.89 124.97 1070.72 124.802C1070.55 124.634 1070.32 124.54 1070.08 124.54L1060.64 124.54C1060.42 124.033 1060.11 123.568 1059.73 123.166C1059.32 122.757 1058.84 122.433 1058.3 122.214C1057.77 121.994 1057.19 121.883 1056.62 121.887L1056.56 121.83ZM1058.47 124.388C1058.22 124.143 1057.92 123.952 1057.59 123.824C1057.26 123.696 1056.91 123.635 1056.56 123.643C1056.21 123.63 1055.86 123.69 1055.53 123.818C1055.2 123.946 1054.9 124.14 1054.65 124.388C1054.29 124.756 1054.05 125.224 1053.96 125.731C1053.86 126.237 1053.92 126.76 1054.13 127.233C1054.33 127.706 1054.67 128.107 1055.1 128.386C1055.54 128.664 1056.04 128.808 1056.56 128.798C1057.23 128.79 1057.87 128.531 1058.35 128.072H1055.85C1055.61 128.072 1055.38 127.978 1055.21 127.81C1055.04 127.643 1054.94 127.415 1054.94 127.175V125.438C1054.94 125.198 1055.04 124.97 1055.21 124.802C1055.38 124.634 1055.61 124.54 1055.85 124.54H1058.53L1058.47 124.388Z" fill="#F5D596" stroke="#F5D596" stroke-width="0.419975" stroke-miterlimit="22.93"/>
<path fill-rule="evenodd" clip-rule="evenodd" d="M1172.45 1.08691L1277.1 1.08691C1277.34 1.08691 1277.57 1.18145 1277.74 1.34971C1277.91 1.51797 1278 1.74618 1278 1.98414L1278 238.85C1278 239.088 1277.91 239.316 1277.74 239.484C1277.57 239.653 1277.34 239.747 1277.1 239.747L1172.45 239.747C1172.21 239.747 1171.99 239.653 1171.82 239.484C1171.65 239.316 1171.56 239.088 1171.56 238.85L1171.56 1.98414C1171.56 1.74618 1171.65 1.51797 1171.82 1.34971C1171.99 1.18145 1172.21 1.08691 1172.45 1.08691ZM1276.19 2.88136L1173.37 2.88136L1173.37 237.934H1177.19L1177.19 7.69199C1177.18 7.57257 1177.21 7.45383 1177.25 7.34276C1177.29 7.2317 1177.36 7.13053 1177.44 7.04519C1177.53 6.95984 1177.63 6.89202 1177.74 6.84574C1177.85 6.79946 1177.96 6.77563 1178.08 6.77566L1271.62 6.77566C1271.74 6.77563 1271.86 6.79946 1271.97 6.84574C1272.08 6.89202 1272.18 6.95984 1272.27 7.04519C1272.35 7.13053 1272.41 7.2317 1272.46 7.34276C1272.5 7.45383 1272.52 7.57257 1272.52 7.69199L1272.52 237.934H1276.34L1276.34 2.88136H1276.19ZM1270.65 8.60829L1178.91 8.60829L1178.91 237.934L1270.65 237.934L1270.65 127.213L1200.19 127.213C1200.18 127.449 1200.08 127.673 1199.91 127.836C1199.74 128 1199.51 128.091 1199.27 128.091L1189.73 128.091C1189.52 128.553 1189.23 128.973 1188.87 129.332C1188.46 129.744 1187.98 130.07 1187.44 130.293C1186.91 130.516 1186.34 130.63 1185.76 130.63C1185.18 130.63 1184.61 130.515 1184.08 130.292C1183.55 130.07 1183.07 129.743 1182.67 129.332C1181.85 128.516 1181.4 127.411 1181.4 126.259C1181.4 125.106 1181.85 124.001 1182.67 123.185C1183.07 122.777 1183.55 122.453 1184.08 122.234C1184.61 122.014 1185.18 121.903 1185.76 121.906C1186.34 121.902 1186.91 122.013 1187.44 122.233C1187.98 122.452 1188.46 122.776 1188.87 123.185C1189.28 123.598 1189.6 124.084 1189.82 124.617L1199.25 124.617C1199.49 124.616 1199.71 124.702 1199.88 124.858C1200.05 125.013 1200.15 125.227 1200.17 125.457L1270.63 125.457L1270.63 8.58921L1270.65 8.60829ZM1187.61 124.388C1187.36 124.142 1187.06 123.949 1186.73 123.821C1186.4 123.693 1186.05 123.632 1185.7 123.643C1185.35 123.63 1185 123.69 1184.67 123.818C1184.34 123.946 1184.04 124.14 1183.79 124.388C1183.32 124.867 1183.05 125.516 1183.05 126.192C1183.05 126.868 1183.32 127.516 1183.79 127.996C1184.04 128.251 1184.34 128.451 1184.66 128.583C1184.99 128.714 1185.35 128.775 1185.7 128.759C1186.37 128.758 1187.01 128.498 1187.5 128.034H1184.99C1184.76 128.034 1184.52 127.94 1184.35 127.772C1184.18 127.605 1184.08 127.376 1184.08 127.137V125.4C1184.08 125.16 1184.18 124.932 1184.35 124.764C1184.52 124.596 1184.76 124.502 1184.99 124.502H1187.72L1187.61 124.388Z" fill="#F5D596" stroke="#F5D596" stroke-width="0.419975" stroke-miterlimit="22.93"/>
<path fill-rule="evenodd" clip-rule="evenodd" d="M1056.41 138.133C1055.63 138.154 1054.87 137.94 1054.23 137.519C1053.58 137.099 1053.07 136.492 1052.78 135.779C1052.48 135.065 1052.41 134.279 1052.57 133.523C1052.73 132.768 1053.12 132.079 1053.68 131.547C1054.4 130.823 1055.38 130.417 1056.41 130.417C1057.43 130.417 1058.41 130.823 1059.14 131.547C1059.86 132.271 1060.27 133.253 1060.27 134.277C1060.27 135.301 1059.86 136.283 1059.14 137.007C1058.78 137.366 1058.35 137.651 1057.88 137.845C1057.42 138.038 1056.91 138.136 1056.41 138.133ZM1054.36 134.315C1054.36 134.852 1054.58 135.366 1054.96 135.747V134.506C1054.88 134.412 1054.82 134.309 1054.76 134.201C1054.67 133.983 1054.61 133.751 1054.59 133.513C1054.46 133.781 1054.4 134.075 1054.4 134.373L1054.36 134.315ZM1058.45 134.315C1058.45 134.018 1058.39 133.724 1058.26 133.456C1058.25 133.701 1058.19 133.942 1058.09 134.163C1058.03 134.271 1057.97 134.373 1057.89 134.468V135.728C1058.25 135.341 1058.44 134.838 1058.45 134.315ZM1056.37 133.361H1056.27C1056.27 133.361 1056.35 133.323 1056.37 133.323V133.361Z" fill="#F5D596" stroke="#F5D596" stroke-width="0.419975" stroke-miterlimit="22.93"/>
<path fill-rule="evenodd" clip-rule="evenodd" d="M1185.82 138.607C1184.8 138.607 1183.83 138.205 1183.12 137.489C1182.4 136.773 1182 135.802 1182 134.789C1182 133.777 1182.4 132.805 1183.12 132.089C1183.83 131.373 1184.8 130.971 1185.82 130.971C1186.33 130.971 1186.83 131.072 1187.3 131.269C1187.77 131.465 1188.19 131.754 1188.55 132.117C1189.08 132.656 1189.45 133.344 1189.59 134.091C1189.73 134.839 1189.65 135.612 1189.35 136.312C1189.05 137.011 1188.55 137.606 1187.91 138.018C1187.27 138.43 1186.52 138.642 1185.76 138.626L1185.82 138.607ZM1183.77 134.789C1183.77 135.058 1183.82 135.325 1183.93 135.574C1184.03 135.823 1184.18 136.049 1184.37 136.24V134.999C1184.3 134.902 1184.23 134.8 1184.18 134.694V134.598C1184.08 134.387 1184.02 134.161 1184 133.93C1183.87 134.198 1183.81 134.492 1183.81 134.789H1183.77ZM1187.86 134.789C1187.86 134.494 1187.8 134.202 1187.69 133.93C1187.67 134.181 1187.6 134.426 1187.5 134.656C1187.45 134.736 1187.4 134.813 1187.34 134.885V136.145C1187.7 135.762 1187.9 135.256 1187.9 134.732L1187.86 134.789Z" fill="#F5D596" stroke="#F5D596" stroke-width="0.419975" stroke-miterlimit="22.93"/>
<path fill-rule="evenodd" clip-rule="evenodd" d="M912.108 1.06738L1016.76 1.06738C1017 1.06738 1017.22 1.16192 1017.39 1.33018C1017.56 1.49844 1017.65 1.72665 1017.65 1.9646L1017.65 238.831C1017.65 238.948 1017.63 239.065 1017.59 239.174C1017.54 239.283 1017.48 239.382 1017.39 239.465C1017.31 239.548 1017.21 239.614 1017.1 239.659C1016.99 239.705 1016.88 239.728 1016.76 239.728L912.108 239.728C911.99 239.728 911.873 239.705 911.764 239.659C911.655 239.614 911.557 239.548 911.473 239.465C911.39 239.382 911.324 239.283 911.279 239.174C911.234 239.065 911.21 238.948 911.21 238.831L911.21 1.9646C911.21 1.72665 911.305 1.49844 911.473 1.33018C911.642 1.16192 911.87 1.06738 912.108 1.06738ZM1015.84 2.86183L913.024 2.86183L913.024 237.914H916.746L916.746 7.65338C916.751 7.41368 916.85 7.18547 917.022 7.01773C917.193 6.85 917.423 6.7561 917.663 6.75616L1011.2 6.75616C1011.32 6.75616 1011.44 6.77934 1011.55 6.82443C1011.65 6.86952 1011.75 6.93564 1011.84 7.01896C1011.92 7.10227 1011.99 7.20115 1012.03 7.31001C1012.08 7.41886 1012.1 7.53555 1012.1 7.65338L1012.1 237.914H1015.92L1015.92 2.86183H1015.84ZM918.484 237.914L943.3 237.914L943.3 8.56965L918.484 8.56965L918.484 237.914ZM945.209 237.914L1010.25 237.914L1010.25 8.56965L945.247 8.56965L945.247 237.914H945.209ZM925.471 121.791C924.338 121.784 923.247 122.223 922.435 123.013C921.667 123.846 921.251 124.945 921.274 126.078C921.297 127.211 921.757 128.292 922.559 129.093C923.36 129.895 924.441 130.355 925.574 130.378C926.708 130.401 927.806 129.985 928.639 129.217C928.997 128.858 929.288 128.438 929.498 127.976L939.043 127.976C939.283 127.976 939.513 127.882 939.685 127.715C939.856 127.547 939.955 127.319 939.96 127.079V125.342C939.955 125.102 939.856 124.874 939.685 124.706C939.513 124.538 939.283 124.445 939.043 124.445L929.613 124.445C929.388 123.911 929.064 123.426 928.658 123.013C928.251 122.604 927.766 122.28 927.231 122.061C926.697 121.841 926.124 121.73 925.547 121.734L925.471 121.791ZM927.379 124.349C927.129 124.1 926.831 123.905 926.503 123.773C926.175 123.642 925.824 123.578 925.471 123.586C924.807 123.59 924.172 123.85 923.695 124.311C923.453 124.549 923.261 124.833 923.13 125.146C922.999 125.459 922.932 125.795 922.932 126.134C922.932 126.473 922.999 126.809 923.13 127.122C923.261 127.435 923.453 127.719 923.695 127.957C923.944 128.209 924.242 128.406 924.57 128.538C924.899 128.669 925.251 128.731 925.604 128.721C926.273 128.715 926.914 128.456 927.399 127.995H924.898C924.658 127.995 924.428 127.901 924.257 127.734C924.085 127.566 923.986 127.338 923.981 127.098V125.361C923.986 125.121 924.085 124.893 924.257 124.725C924.428 124.558 924.658 124.464 924.898 124.464H927.379V124.349Z" fill="#F5D596" stroke="#F5D596" stroke-width="0.419975" stroke-miterlimit="22.93"/>
<path fill-rule="evenodd" clip-rule="evenodd" d="M782.89 1.10449L887.54 1.10449C887.778 1.10449 888.006 1.19897 888.174 1.36723C888.343 1.53549 888.437 1.76376 888.437 2.00171L888.437 238.868C888.437 239.106 888.343 239.334 888.174 239.502C888.006 239.67 887.778 239.765 887.54 239.765L782.89 239.765C782.652 239.765 782.424 239.67 782.255 239.502C782.087 239.334 781.993 239.106 781.993 238.868L781.993 2.00171C781.993 1.76376 782.087 1.53549 782.255 1.36723C782.424 1.19897 782.652 1.10449 782.89 1.10449ZM886.624 2.89894L783.806 2.89894L783.806 237.951H787.529L787.529 142.216C787.509 142.096 787.509 141.973 787.529 141.853C787.509 141.74 787.509 141.623 787.529 141.51L787.529 7.69043C787.534 7.45073 787.632 7.22258 787.804 7.05484C787.975 6.88711 788.205 6.79316 788.445 6.79321L881.985 6.79321C882.103 6.79321 882.219 6.81645 882.328 6.86154C882.437 6.90663 882.536 6.97269 882.619 7.05601C882.703 7.13932 882.769 7.23826 882.814 7.34712C882.859 7.45597 882.882 7.5726 882.882 7.69043L882.882 237.951H886.7L886.7 2.89894H886.624ZM881.069 8.62587L789.342 8.62587L789.342 118.468L881.069 118.468L881.069 8.60676V8.62587ZM881.069 237.97L881.069 142.77L789.342 142.77L789.342 237.951L881.069 237.97ZM881.069 140.975V120.263L789.342 120.263V140.956L881.069 140.975ZM796.215 121.885C795.64 121.882 795.07 121.993 794.539 122.213C794.008 122.433 793.526 122.756 793.122 123.165C792.712 123.569 792.386 124.05 792.163 124.581C791.94 125.112 791.825 125.681 791.824 126.257C791.824 127.422 792.284 128.54 793.103 129.369C793.932 130.187 795.05 130.646 796.215 130.646C797.379 130.646 798.497 130.187 799.326 129.369C799.678 129.005 799.968 128.585 800.185 128.128L809.73 128.128C809.97 128.128 810.2 128.034 810.371 127.866C810.543 127.698 810.641 127.47 810.646 127.231V125.493C810.641 125.254 810.543 125.026 810.371 124.858C810.2 124.69 809.97 124.596 809.73 124.596L800.3 124.596C800.075 124.063 799.751 123.577 799.345 123.165C798.937 122.756 798.452 122.432 797.918 122.212C797.384 121.993 796.811 121.882 796.234 121.885H796.215ZM798.124 124.443C797.872 124.196 797.573 124.002 797.245 123.871C796.918 123.74 796.567 123.675 796.215 123.68C795.861 123.669 795.509 123.732 795.181 123.863C794.852 123.994 794.554 124.192 794.306 124.443C794.064 124.682 793.872 124.965 793.741 125.278C793.609 125.591 793.542 125.927 793.542 126.267C793.542 126.606 793.609 126.942 793.741 127.255C793.872 127.568 794.064 127.852 794.306 128.09C794.554 128.341 794.852 128.539 795.181 128.67C795.509 128.801 795.861 128.864 796.215 128.853C796.883 128.848 797.525 128.589 798.009 128.128H795.508C795.269 128.128 795.038 128.034 794.867 127.866C794.696 127.698 794.597 127.47 794.592 127.231V125.493C794.597 125.254 794.696 125.026 794.867 124.858C795.038 124.69 795.269 124.596 795.508 124.596H798.181L798.124 124.443Z" fill="#F5D596" stroke="#F5D596" stroke-width="0.419975" stroke-miterlimit="22.93"/>
<path fill-rule="evenodd" clip-rule="evenodd" d="M796.384 138.837C795.877 138.84 795.375 138.742 794.906 138.548C794.437 138.355 794.012 138.07 793.655 137.711C793.048 137.075 792.68 136.249 792.612 135.374C792.543 134.498 792.779 133.626 793.279 132.903C793.779 132.181 794.512 131.653 795.356 131.409C796.2 131.165 797.102 131.219 797.91 131.562C798.719 131.905 799.384 132.517 799.794 133.294C800.204 134.07 800.334 134.965 800.162 135.826C799.989 136.687 799.525 137.463 798.847 138.022C798.17 138.581 797.32 138.889 796.442 138.894L796.384 138.837ZM794.895 136.393V135.133L794.704 134.847C794.571 134.614 794.499 134.352 794.494 134.083C794.365 134.351 794.299 134.645 794.304 134.943C794.3 135.467 794.498 135.973 794.857 136.355L794.895 136.393ZM798.427 134.981C798.431 134.683 798.366 134.389 798.236 134.122C798.229 134.375 798.164 134.623 798.045 134.847C798.002 134.95 797.944 135.047 797.873 135.133V136.393C798.232 136.011 798.431 135.505 798.427 134.981Z" fill="#F5D596" stroke="#F5D596" stroke-width="0.419975" stroke-miterlimit="22.93"/>
<path fill-rule="evenodd" clip-rule="evenodd" d="M925.278 139.373C924.265 139.373 923.294 138.971 922.578 138.255C921.862 137.539 921.46 136.567 921.46 135.555C921.46 135.051 921.559 134.552 921.752 134.087C921.946 133.622 922.229 133.199 922.586 132.844C922.942 132.481 923.367 132.193 923.836 131.996C924.304 131.799 924.808 131.698 925.316 131.699C926.329 131.699 927.3 132.101 928.016 132.817C928.732 133.533 929.134 134.504 929.134 135.517C929.134 136.529 928.732 137.5 928.016 138.216C927.3 138.932 926.329 139.335 925.316 139.335L925.278 139.373ZM923.216 135.555C923.215 135.824 923.266 136.09 923.367 136.339C923.469 136.588 923.619 136.815 923.808 137.006V135.746L923.617 135.459C923.498 135.221 923.427 134.962 923.407 134.696C923.286 134.966 923.221 135.259 923.216 135.555ZM927.32 135.555C927.316 135.259 927.251 134.966 927.13 134.696C927.115 134.948 927.05 135.194 926.939 135.421L926.767 135.708V136.968C927.126 136.585 927.324 136.079 927.32 135.555Z" fill="#F5D596" stroke="#F5D596" stroke-width="0.419975" stroke-miterlimit="22.93"/>
<path fill-rule="evenodd" clip-rule="evenodd" d="M650.558 1.08691L755.208 1.08691C755.446 1.08691 755.674 1.18139 755.842 1.34965C756.011 1.51792 756.105 1.74618 756.105 1.98414L756.105 238.85C756.105 239.088 756.011 239.316 755.842 239.484C755.674 239.653 755.446 239.747 755.208 239.747L650.558 239.747C650.32 239.747 650.092 239.653 649.923 239.484C649.755 239.316 649.661 239.088 649.661 238.85L649.661 1.98414C649.661 1.74618 649.755 1.51792 649.923 1.34965C650.092 1.18139 650.32 1.08691 650.558 1.08691ZM754.292 2.88136L651.474 2.88136L651.474 237.934H655.292L655.292 7.67285C655.292 7.43489 655.387 7.20669 655.555 7.03843C655.723 6.87017 655.951 6.77563 656.189 6.77563L749.729 6.77563C749.967 6.77563 750.195 6.87017 750.364 7.03843C750.532 7.20669 750.626 7.43489 750.626 7.67285L750.626 237.934H754.444L754.444 2.88136H754.292ZM656.934 237.934L748.679 237.934L748.679 8.58918L657.01 8.58918L657.01 237.934H656.934ZM663.806 121.811C663.083 121.81 662.371 121.987 661.733 122.328C661.096 122.668 660.552 123.161 660.15 123.762C659.749 124.363 659.502 125.055 659.431 125.774C659.361 126.494 659.469 127.219 659.747 127.887C660.025 128.555 660.463 129.143 661.023 129.601C661.582 130.058 662.246 130.371 662.956 130.51C663.665 130.649 664.398 130.611 665.089 130.399C665.781 130.187 666.409 129.807 666.918 129.294C667.276 128.935 667.567 128.514 667.777 128.053L677.322 128.053C677.441 128.055 677.56 128.034 677.671 127.99C677.782 127.946 677.883 127.881 677.969 127.797C678.054 127.713 678.122 127.614 678.168 127.504C678.214 127.393 678.238 127.275 678.238 127.156V125.438C678.241 125.317 678.219 125.196 678.174 125.084C678.128 124.972 678.061 124.87 677.975 124.784C677.89 124.698 677.788 124.631 677.675 124.586C677.563 124.541 677.443 124.519 677.322 124.521L667.891 124.521C667.681 124.011 667.377 123.545 666.994 123.147C666.166 122.328 665.048 121.868 663.882 121.868L663.806 121.811ZM665.715 124.369C665.463 124.122 665.165 123.93 664.837 123.802C664.509 123.674 664.158 123.613 663.806 123.624C663.454 123.611 663.103 123.67 662.775 123.799C662.446 123.927 662.148 124.121 661.897 124.369C661.537 124.737 661.295 125.205 661.201 125.711C661.108 126.218 661.167 126.741 661.372 127.214C661.577 127.687 661.917 128.088 662.351 128.367C662.784 128.645 663.291 128.789 663.806 128.778C664.475 128.773 665.116 128.514 665.601 128.053H663.1C662.86 128.053 662.63 127.959 662.459 127.791C662.287 127.624 662.189 127.395 662.184 127.156V125.438C662.184 125.195 662.28 124.962 662.452 124.79C662.624 124.618 662.857 124.521 663.1 124.521H665.83L665.715 124.369Z" fill="#F5D596" stroke="#F5D596" stroke-width="0.419975" stroke-miterlimit="22.93"/>
<path fill-rule="evenodd" clip-rule="evenodd" d="M673.466 200.269L732.377 200.269C732.614 200.269 732.843 200.364 733.011 200.532C733.179 200.701 733.274 200.929 733.274 201.167V223.215C733.274 223.453 733.179 223.682 733.011 223.85C732.843 224.018 732.614 224.113 732.377 224.113L673.466 224.113C673.348 224.113 673.231 224.089 673.122 224.044C673.013 223.999 672.914 223.933 672.831 223.85C672.748 223.767 672.682 223.668 672.637 223.559C672.592 223.45 672.568 223.333 672.568 223.215V201.148C672.568 201.03 672.592 200.913 672.637 200.804C672.682 200.695 672.748 200.597 672.831 200.513C672.914 200.43 673.013 200.364 673.122 200.319C673.231 200.274 673.348 200.25 673.466 200.25V200.269ZM729.933 203.133L675.852 203.133V221.116L729.895 221.116L729.933 203.133Z" fill="#F5D596"/>
<path fill-rule="evenodd" clip-rule="evenodd" d="M663.788 139.353C663.283 139.351 662.783 139.249 662.318 139.052C661.853 138.856 661.431 138.569 661.077 138.208C660.72 137.853 660.437 137.43 660.243 136.965C660.05 136.5 659.951 136.001 659.951 135.497C659.951 134.742 660.175 134.004 660.595 133.376C661.014 132.748 661.61 132.259 662.308 131.97C663.006 131.681 663.773 131.605 664.514 131.753C665.255 131.9 665.935 132.264 666.469 132.797C667.003 133.331 667.366 134.012 667.514 134.752C667.661 135.493 667.585 136.261 667.296 136.958C667.007 137.656 666.518 138.252 665.89 138.672C665.262 139.091 664.524 139.315 663.769 139.315L663.788 139.353ZM661.746 135.535C661.747 136.072 661.96 136.586 662.337 136.967V135.707C662.263 135.619 662.199 135.523 662.146 135.421C662.028 135.182 661.957 134.923 661.937 134.657C661.813 134.934 661.748 135.233 661.746 135.535ZM665.85 135.535C665.848 135.239 665.783 134.946 665.659 134.676C665.645 134.922 665.58 135.163 665.468 135.383C665.433 135.468 665.381 135.546 665.315 135.612V136.872C665.677 136.497 665.882 135.999 665.888 135.478L665.85 135.535Z" fill="#F5D596" stroke="#F5D596" stroke-width="0.419975" stroke-miterlimit="22.93"/>
<path fill-rule="evenodd" clip-rule="evenodd" d="M521.341 1.08691L625.991 1.08691C626.229 1.08691 626.457 1.18139 626.625 1.34965C626.793 1.51792 626.888 1.74618 626.888 1.98414L626.888 238.85C626.888 239.088 626.793 239.316 626.625 239.484C626.457 239.653 626.229 239.747 625.991 239.747L521.341 239.747C521.103 239.747 520.874 239.653 520.706 239.484C520.538 239.316 520.443 239.088 520.443 238.85L520.443 1.98414C520.443 1.74618 520.538 1.51792 520.706 1.34965C520.874 1.18139 521.103 1.08691 521.341 1.08691ZM625.074 2.88136L522.257 2.88136L522.257 237.934H526.075L526.075 7.67285C526.075 7.55503 526.098 7.4384 526.143 7.32954C526.188 7.22068 526.254 7.12174 526.338 7.03843C526.421 6.95511 526.52 6.88905 526.629 6.84397C526.738 6.79888 526.854 6.77563 526.972 6.77563L620.512 6.77563C620.75 6.77563 620.978 6.87017 621.146 7.03843C621.315 7.20669 621.409 7.43489 621.409 7.67285L621.409 237.934H625.227L625.227 2.88136H625.074ZM527.717 237.934L619.443 237.934L619.443 8.58918L527.793 8.58918L527.793 237.934H527.717ZM534.589 121.811C533.456 121.804 532.366 122.242 531.554 123.032C530.735 123.861 530.275 124.979 530.275 126.144C530.279 127.278 530.724 128.367 531.515 129.179C531.919 129.59 532.4 129.917 532.931 130.14C533.462 130.363 534.032 130.477 534.608 130.477C535.443 130.478 536.261 130.239 536.965 129.789C537.668 129.339 538.228 128.697 538.579 127.938L548.124 127.938C548.363 127.938 548.594 127.845 548.765 127.677C548.936 127.509 549.035 127.281 549.04 127.041V125.323C549.04 125.08 548.943 124.847 548.771 124.675C548.6 124.503 548.367 124.407 548.124 124.407L538.693 124.407C538.476 123.9 538.172 123.435 537.796 123.032C536.967 122.213 535.849 121.754 534.684 121.753L534.589 121.811ZM536.498 124.369C536.245 124.124 535.946 123.933 535.618 123.805C535.29 123.677 534.941 123.616 534.589 123.624C533.928 123.621 533.292 123.875 532.814 124.33C532.559 124.577 532.36 124.875 532.228 125.204C532.097 125.532 532.036 125.885 532.05 126.239C532.047 126.9 532.3 127.536 532.756 128.015C533.002 128.27 533.3 128.47 533.629 128.602C533.958 128.733 534.311 128.794 534.665 128.778C535.328 128.774 535.964 128.514 536.441 128.053H533.959C533.719 128.053 533.489 127.959 533.318 127.791C533.146 127.624 533.048 127.395 533.043 127.156V125.438C533.043 125.195 533.139 124.962 533.311 124.79C533.483 124.618 533.716 124.521 533.959 124.521H536.632L536.498 124.369Z" fill="#F5D596" stroke="#F5D596" stroke-width="0.419975" stroke-miterlimit="22.93"/>
<path fill-rule="evenodd" clip-rule="evenodd" d="M534.815 138.934C534.307 138.934 533.803 138.833 533.335 138.637C532.866 138.44 532.441 138.152 532.085 137.789C531.725 137.433 531.438 137.01 531.243 136.543C531.047 136.076 530.946 135.575 530.946 135.068C530.946 134.562 531.047 134.061 531.243 133.594C531.438 133.127 531.725 132.703 532.085 132.348C532.441 131.984 532.865 131.695 533.334 131.498C533.803 131.301 534.307 131.199 534.815 131.199C535.324 131.199 535.827 131.301 536.296 131.498C536.765 131.695 537.189 131.984 537.545 132.348C537.905 132.705 538.189 133.131 538.383 133.6C538.576 134.068 538.674 134.571 538.671 135.078C538.671 136.09 538.269 137.061 537.553 137.777C536.837 138.493 535.866 138.896 534.853 138.896L534.815 138.934ZM532.753 135.116C532.755 135.652 532.968 136.167 533.345 136.548V135.288L533.154 135.001C533.036 134.763 532.964 134.504 532.944 134.238C532.821 134.514 532.756 134.813 532.753 135.116ZM536.858 135.116C536.853 134.813 536.788 134.515 536.667 134.238C536.652 134.49 536.587 134.736 536.476 134.963L536.304 135.25V136.529C536.67 136.149 536.875 135.643 536.877 135.116H536.858Z" fill="#F5D596" stroke="#F5D596" stroke-width="0.419975" stroke-miterlimit="22.93"/>
<path fill-rule="evenodd" clip-rule="evenodd" d="M394.746 1.05957L499.396 1.05959C499.634 1.05959 499.863 1.15418 500.031 1.32245C500.199 1.49071 500.294 1.71891 500.294 1.95687L500.294 238.823C500.294 239.061 500.199 239.289 500.031 239.457C499.863 239.625 499.634 239.72 499.396 239.72L394.746 239.72C394.508 239.72 394.28 239.625 394.112 239.457C393.944 239.289 393.849 239.061 393.849 238.823L393.849 1.95685C393.849 1.71889 393.944 1.49069 394.112 1.32243C394.28 1.15417 394.508 1.05957 394.746 1.05957ZM498.48 2.87314L395.663 2.87312L395.663 237.926L399.481 237.926L399.481 7.66467C399.478 7.54525 399.499 7.42655 399.543 7.31548C399.587 7.20441 399.653 7.10325 399.737 7.0179C399.82 6.93255 399.92 6.86471 400.03 6.81843C400.14 6.77215 400.258 6.74838 400.378 6.7484L493.918 6.74842C494.037 6.74839 494.155 6.77217 494.266 6.81844C494.376 6.86472 494.475 6.93257 494.559 7.01792C494.643 7.10326 494.708 7.20443 494.752 7.3155C494.796 7.42657 494.817 7.54527 494.815 7.66469L494.815 237.926L498.633 237.926L498.633 2.87314L498.48 2.87314ZM492.944 8.60007L401.199 8.60006L401.199 237.906L492.944 237.906L492.944 8.56197L492.944 8.60007ZM408.109 121.783C407.24 121.779 406.39 122.034 405.666 122.515C404.943 122.996 404.379 123.682 404.047 124.485C403.715 125.288 403.63 126.172 403.803 127.024C403.975 127.875 404.398 128.656 405.017 129.267C405.42 129.678 405.901 130.004 406.432 130.227C406.963 130.45 407.533 130.565 408.109 130.565C409.249 130.561 410.344 130.117 411.163 129.324C411.526 128.968 411.817 128.547 412.023 128.083L421.567 128.083C421.807 128.083 422.037 127.989 422.209 127.821C422.38 127.654 422.479 127.425 422.484 127.186L422.484 125.468C422.484 125.225 422.387 124.992 422.215 124.82C422.044 124.648 421.81 124.551 421.567 124.551L412.137 124.551C411.912 124.018 411.588 123.532 411.183 123.12C410.354 122.301 409.236 121.841 408.071 121.841L408.109 121.783ZM410.018 124.341C409.766 124.095 409.468 123.902 409.14 123.774C408.812 123.646 408.461 123.586 408.109 123.597C407.426 123.597 406.77 123.868 406.287 124.352C405.804 124.835 405.532 125.491 405.532 126.174C405.542 126.854 405.817 127.504 406.298 127.985C406.779 128.467 407.429 128.741 408.109 128.751C408.78 128.756 409.425 128.495 409.904 128.026L407.403 128.026C407.163 128.026 406.933 127.932 406.762 127.764C406.59 127.596 406.492 127.368 406.487 127.129L406.487 125.41C406.487 125.167 406.583 124.934 406.755 124.762C406.927 124.591 407.16 124.494 407.403 124.494L410.018 124.494L409.884 124.341L410.018 124.341ZM416.814 71.1191L416.814 113.937C416.814 114.177 416.908 114.407 417.076 114.579C417.243 114.75 417.472 114.849 417.711 114.854L438.5 114.854C438.74 114.849 438.968 114.75 439.136 114.579C439.303 114.407 439.397 114.177 439.397 113.937L439.397 22.192C439.397 21.954 439.303 21.7258 439.134 21.5575C438.966 21.3893 438.738 21.2948 438.5 21.2948L417.654 21.2948C417.536 21.2948 417.42 21.318 417.311 21.3631C417.202 21.4082 417.103 21.4742 417.02 21.5575C416.936 21.6409 416.87 21.7399 416.825 21.8487C416.78 21.9576 416.757 22.0741 416.757 22.192L416.757 71.1191L416.814 71.1191ZM418.723 23.1084L418.723 113.04L437.679 113.04L437.679 23.1084L418.723 23.1084Z" fill="#F5D596" stroke="#F5D596" stroke-width="0.419975" stroke-miterlimit="22.93"/>
<path fill-rule="evenodd" clip-rule="evenodd" d="M431.8 33.8363C431.9 33.7714 432.013 33.7277 432.131 33.7079C432.249 33.6881 432.37 33.6926 432.486 33.7212C432.602 33.7498 432.711 33.8019 432.807 33.8742C432.902 33.9465 432.982 34.0375 433.041 34.1417C433.161 34.3476 433.197 34.5924 433.14 34.8241C433.083 35.0559 432.938 35.2563 432.735 35.3826L425.481 39.7159C425.273 39.8349 425.026 39.8677 424.794 39.807C424.562 39.7463 424.364 39.5971 424.24 39.3914C424.12 39.1855 424.084 38.9407 424.141 38.709C424.198 38.4772 424.343 38.2769 424.546 38.1506L431.8 33.8363ZM431.8 35.9935L424.546 40.3268C424.345 40.4495 424.2 40.6465 424.143 40.8751C424.086 41.1037 424.121 41.3456 424.24 41.5485C424.364 41.7542 424.562 41.9035 424.794 41.9641C425.026 42.0248 425.273 41.992 425.481 41.873L432.735 37.5397C432.938 37.4134 433.083 37.213 433.14 36.9813C433.197 36.7496 433.161 36.5047 433.041 36.2989C432.98 36.1967 432.899 36.1076 432.804 36.0368C432.708 35.966 432.6 35.915 432.484 35.8866C432.369 35.8582 432.249 35.853 432.131 35.8714C432.014 35.8897 431.901 35.9312 431.8 35.9935ZM431.8 38.246L424.546 42.5793C424.343 42.7057 424.198 42.9061 424.141 43.1378C424.084 43.3695 424.12 43.6144 424.24 43.8202C424.301 43.9224 424.382 44.0115 424.477 44.0823C424.573 44.153 424.681 44.2042 424.797 44.2326C424.912 44.261 425.032 44.2662 425.15 44.2478C425.267 44.2295 425.38 44.188 425.481 44.1257L432.735 39.7923C432.837 39.7309 432.925 39.6501 432.995 39.5545C433.066 39.4589 433.117 39.3504 433.145 39.2351C433.173 39.1199 433.179 39.0002 433.161 38.8829C433.143 38.7656 433.102 38.653 433.041 38.5514C432.979 38.4499 432.898 38.3614 432.803 38.2911C432.707 38.2208 432.599 38.1701 432.484 38.1418C432.368 38.1134 432.249 38.108 432.131 38.1259C432.014 38.1438 431.901 38.1846 431.8 38.246ZM431.8 60.5238C431.901 60.4615 432.014 60.42 432.131 60.4017C432.249 60.3833 432.369 60.3885 432.484 60.4169C432.6 60.4454 432.708 60.4965 432.804 60.5672C432.899 60.638 432.98 60.7271 433.041 60.8293C433.161 61.0352 433.197 61.28 433.14 61.5117C433.083 61.7434 432.938 61.9437 432.735 62.07L425.481 66.4035C425.276 66.5275 425.03 66.565 424.798 66.5077C424.565 66.4505 424.364 66.303 424.24 66.098C424.116 65.8929 424.079 65.6471 424.136 65.4144C424.193 65.1817 424.341 64.9812 424.546 64.8572L431.8 60.5238ZM431.8 62.6809L424.546 67.0143C424.341 67.1384 424.193 67.3388 424.136 67.5715C424.079 67.8042 424.116 68.0501 424.24 68.2551C424.364 68.4602 424.565 68.6076 424.798 68.6649C425.03 68.7222 425.276 68.6847 425.481 68.5606L432.735 64.2272C432.837 64.1658 432.925 64.085 432.995 63.9894C433.066 63.8938 433.117 63.7852 433.145 63.67C433.173 63.5548 433.179 63.4351 433.161 63.3178C433.143 63.2005 433.102 63.0878 433.041 62.9863C432.979 62.8848 432.898 62.7964 432.803 62.7261C432.707 62.6558 432.599 62.605 432.484 62.5767C432.368 62.5483 432.249 62.5429 432.131 62.5608C432.014 62.5787 431.901 62.6195 431.8 62.6809ZM431.8 64.9335L424.546 69.2669C424.343 69.3933 424.198 69.5935 424.141 69.8253C424.084 70.057 424.12 70.3018 424.24 70.5077C424.364 70.7134 424.562 70.8626 424.794 70.9233C425.026 70.984 425.273 70.9513 425.481 70.8323L432.735 66.4989C432.938 66.3726 433.083 66.1723 433.14 65.9405C433.197 65.7088 433.161 65.4639 433.041 65.258C432.981 65.1543 432.902 65.0634 432.807 64.9907C432.712 64.918 432.604 64.8651 432.489 64.8348C432.373 64.8046 432.252 64.7977 432.134 64.8147C432.016 64.8316 431.902 64.872 431.8 64.9335ZM431.8 88.8339C431.901 88.7725 432.014 88.7317 432.131 88.7138C432.249 88.6959 432.368 88.7013 432.484 88.7297C432.599 88.758 432.707 88.8087 432.803 88.879C432.898 88.9493 432.979 89.0378 433.041 89.1393C433.102 89.2409 433.143 89.3535 433.161 89.4708C433.179 89.5881 433.173 89.7078 433.145 89.823C433.117 89.9383 433.066 90.0468 432.995 90.1424C432.925 90.238 432.837 90.3188 432.735 90.3802L425.481 94.7136C425.276 94.8377 425.03 94.8751 424.797 94.8178C424.565 94.7605 424.364 94.6132 424.24 94.4081C424.116 94.2031 424.079 93.9571 424.136 93.7244C424.193 93.4917 424.341 93.2913 424.546 93.1672L431.8 88.8339ZM431.8 90.9911L424.546 95.3244C424.343 95.4507 424.198 95.6511 424.141 95.8828C424.084 96.1146 424.12 96.3594 424.24 96.5653C424.301 96.6674 424.382 96.7565 424.477 96.8273C424.573 96.8981 424.681 96.9492 424.797 96.9776C424.912 97.006 425.032 97.0112 425.15 96.9929C425.267 96.9745 425.38 96.9329 425.481 96.8707L432.735 92.5374C432.837 92.4759 432.925 92.3952 432.995 92.2996C433.066 92.204 433.117 92.0954 433.145 91.9802C433.173 91.865 433.179 91.7453 433.161 91.628C433.143 91.5107 433.102 91.398 433.041 91.2965C432.979 91.195 432.898 91.1065 432.803 91.0362C432.707 90.9659 432.599 90.9152 432.484 90.8868C432.368 90.8585 432.249 90.8531 432.131 90.871C432.014 90.8889 431.901 90.9297 431.8 90.9911ZM431.8 93.2628L424.546 97.5771C424.343 97.7034 424.198 97.9037 424.141 98.1354C424.084 98.3672 424.12 98.612 424.24 98.8179C424.364 99.0235 424.562 99.1728 424.794 99.2335C425.026 99.2941 425.273 99.2614 425.481 99.1423L432.735 94.809C432.938 94.6827 433.083 94.4823 433.14 94.2506C433.197 94.0189 433.161 93.774 433.041 93.5682C432.982 93.464 432.902 93.373 432.807 93.3007C432.711 93.2283 432.602 93.1763 432.486 93.1477C432.37 93.1191 432.249 93.1146 432.131 93.1344C432.013 93.1542 431.9 93.1979 431.8 93.2628Z" fill="#F5D596" stroke="#F5D596" stroke-width="0.419975" stroke-miterlimit="22.93"/>
<path fill-rule="evenodd" clip-rule="evenodd" d="M407.861 139.346C407.353 139.347 406.849 139.246 406.381 139.049C405.912 138.852 405.487 138.564 405.131 138.201C404.437 137.492 404.047 136.54 404.043 135.548C404.04 135.04 404.138 134.538 404.332 134.069C404.525 133.601 404.81 133.175 405.169 132.818C405.701 132.258 406.39 131.872 407.145 131.711C407.901 131.551 408.687 131.623 409.401 131.919C410.114 132.215 410.721 132.72 411.141 133.368C411.562 134.015 411.776 134.775 411.755 135.548C411.755 136.56 411.353 137.531 410.637 138.247C409.921 138.963 408.95 139.365 407.937 139.365L407.861 139.346ZM406.372 136.884L406.372 135.624C406.298 135.536 406.233 135.44 406.181 135.338C406.058 135.1 405.987 134.84 405.971 134.574C405.848 134.85 405.783 135.149 405.78 135.452C405.78 135.97 405.978 136.469 406.334 136.846L406.372 136.884ZM409.904 135.49C409.907 135.195 409.849 134.902 409.732 134.631C409.709 134.876 409.644 135.115 409.541 135.338C409.489 135.44 409.425 135.536 409.35 135.624L409.35 136.884C409.706 136.507 409.904 136.009 409.904 135.49Z" fill="#F5D596" stroke="#F5D596" stroke-width="0.419975" stroke-miterlimit="22.93"/>
<path fill-rule="evenodd" clip-rule="evenodd" d="M265.526 1.00049L381.478 1.00051L381.477 239.775L264.572 239.775L264.572 1.00049L265.526 1.00049ZM379.569 2.90949L266.481 2.90947L266.481 237.866L269.23 237.866L269.23 6.70831L375.77 6.70833L375.77 237.866L379.588 237.866L379.588 2.90949L379.569 2.90949ZM271.139 237.866L347.498 237.866L347.498 8.6173L271.139 8.61729L271.139 237.866ZM351.029 237.866L373.937 237.866L373.937 8.61731L351.029 8.6173L351.029 237.866ZM343.203 123.633C342.943 123.642 342.688 123.708 342.457 123.827C342.226 123.946 342.024 124.114 341.866 124.32L341.752 124.435L344.634 124.435L344.52 124.32C344.365 124.116 344.166 123.948 343.938 123.829C343.711 123.71 343.459 123.643 343.203 123.633ZM340.396 123.099C340.062 123.493 339.803 123.946 339.633 124.435L330.928 124.435L330.928 128.081L339.69 128.081C339.868 128.501 340.106 128.893 340.396 129.246C340.731 129.667 341.156 130.007 341.64 130.241C342.124 130.475 342.655 130.597 343.193 130.597C343.731 130.597 344.262 130.475 344.746 130.241C345.23 130.007 345.655 129.667 345.99 129.246C346.692 128.376 347.07 127.29 347.059 126.172C347.077 125.054 346.698 123.965 345.99 123.099C345.66 122.671 345.236 122.324 344.751 122.086C344.266 121.848 343.733 121.724 343.193 121.724C342.653 121.724 342.12 121.848 341.635 122.086C341.15 122.324 340.726 122.671 340.396 123.099ZM341.904 128.081C342.06 128.273 342.257 128.427 342.48 128.533C342.702 128.639 342.946 128.694 343.193 128.694C343.44 128.694 343.684 128.639 343.906 128.533C344.129 128.427 344.326 128.273 344.482 128.081L341.904 128.081ZM344.749 127.718C345.013 127.246 345.151 126.713 345.15 126.172C345.156 125.63 345.017 125.097 344.749 124.626L344.749 127.718Z" fill="#F5D596" stroke="#F5D596" stroke-width="0.419975" stroke-miterlimit="22.93"/>
<path fill-rule="evenodd" clip-rule="evenodd" d="M343.377 138.942C342.9 138.936 342.431 138.826 342.002 138.618C341.573 138.41 341.195 138.11 340.895 137.74C340.288 136.974 339.958 136.025 339.958 135.048C339.958 134.071 340.288 133.122 340.895 132.356C341.188 131.976 341.564 131.668 341.994 131.456C342.424 131.244 342.897 131.134 343.377 131.134C343.857 131.134 344.33 131.244 344.76 131.456C345.19 131.668 345.566 131.976 345.859 132.356C346.476 133.118 346.812 134.068 346.812 135.048C346.812 136.028 346.476 136.978 345.859 137.74C345.559 138.11 345.181 138.41 344.752 138.618C344.323 138.826 343.854 138.936 343.377 138.942ZM341.869 135.124C341.871 135.369 341.903 135.613 341.964 135.85L341.964 135.277L341.869 135.105L341.869 135.124ZM344.904 135.124L344.904 135.258L344.904 135.754C344.931 135.52 344.931 135.283 344.904 135.048L344.904 135.124Z" fill="#F5D596" stroke="#F5D596" stroke-width="0.419975" stroke-miterlimit="22.93"/>
<path fill-rule="evenodd" clip-rule="evenodd" d="M562.041 24.9287L588.079 24.9287L588.079 110.394L559.234 110.394L559.234 24.9287L562.041 24.9287ZM586.227 26.8377L561.105 26.8377L561.105 108.561L586.227 108.561L586.227 26.8377Z" fill="#F5D596" stroke="#F5D596" stroke-width="1.08812" stroke-miterlimit="22.93"/>
<path d="M730.886 204.468L674.876 204.468V205.728L730.886 205.728V204.468Z" fill="#F5D596"/>
<path d="M730.886 207.312L674.876 207.312V208.572L730.886 208.572V207.312Z" fill="#F5D596"/>
<path d="M730.886 210.156L674.876 210.156V211.416L730.886 211.416V210.156Z" fill="#F5D596"/>
<path d="M730.886 213L674.876 213V214.26L730.886 214.26V213Z" fill="#F5D596"/>
<path d="M730.886 215.847L674.876 215.847V217.107L730.886 217.107V215.847Z" fill="#F5D596"/>
<path d="M730.886 218.708L674.876 218.708V219.968L730.886 219.968V218.708Z" fill="#F5D596"/>
<path fill-rule="evenodd" clip-rule="evenodd" d="M576.813 35.0668C577.019 34.9461 577.264 34.9104 577.496 34.9675C577.728 35.0245 577.928 35.1697 578.054 35.3722C578.116 35.4735 578.158 35.5861 578.176 35.7036C578.195 35.8211 578.19 35.941 578.161 36.0565C578.133 36.1719 578.082 36.2806 578.011 36.3761C577.94 36.4717 577.851 36.5522 577.749 36.613L570.495 40.9464C570.393 41.0065 570.281 41.0462 570.164 41.0629C570.047 41.0796 569.928 41.0731 569.814 41.0439C569.699 41.0146 569.592 40.9632 569.498 40.8924C569.403 40.8217 569.324 40.733 569.263 40.6314C569.203 40.5299 569.164 40.4175 569.147 40.3007C569.13 40.1838 569.137 40.0649 569.166 39.9505C569.195 39.8362 569.247 39.7287 569.317 39.6343C569.388 39.5399 569.477 39.4603 569.578 39.4001L576.813 35.0668ZM576.813 37.2239L569.578 41.5573C569.477 41.6174 569.388 41.697 569.317 41.7915C569.247 41.8859 569.195 41.9933 569.166 42.1077C569.137 42.222 569.13 42.341 569.147 42.4578C569.164 42.5746 569.203 42.6871 569.263 42.7886C569.324 42.8901 569.403 42.9788 569.498 43.0496C569.592 43.1204 569.699 43.1718 569.814 43.2011C569.928 43.2303 570.047 43.2368 570.164 43.22C570.281 43.2033 570.393 43.1637 570.495 43.1035L577.749 38.7702C577.85 38.7112 577.939 38.6324 578.01 38.5386C578.08 38.4448 578.131 38.3377 578.16 38.2238C578.188 38.1099 578.193 37.9915 578.175 37.8755C578.157 37.7594 578.116 37.6482 578.054 37.5484C577.995 37.4446 577.916 37.3538 577.821 37.2811C577.726 37.2084 577.618 37.1554 577.502 37.1252C577.386 37.095 577.266 37.0882 577.148 37.1051C577.03 37.1221 576.916 37.1624 576.813 37.2239ZM576.813 39.4956L569.578 43.8289C569.475 43.8882 569.384 43.9675 569.311 44.0623C569.238 44.1571 569.185 44.2655 569.155 44.3811C569.125 44.4967 569.118 44.6172 569.135 44.7354C569.152 44.8537 569.192 44.9673 569.254 45.0698C569.38 45.2722 569.581 45.4174 569.812 45.4745C570.044 45.5315 570.289 45.4959 570.495 45.3752L577.749 41.0419C577.954 40.9178 578.101 40.7174 578.158 40.4847C578.216 40.252 578.178 40.0061 578.054 39.801C577.93 39.596 577.73 39.4486 577.497 39.3913C577.264 39.334 577.018 39.3716 576.813 39.4956ZM576.813 61.7543C576.916 61.6928 577.03 61.6524 577.148 61.6354C577.266 61.6185 577.386 61.6254 577.502 61.6556C577.618 61.6858 577.726 61.7388 577.821 61.8115C577.916 61.8842 577.995 61.975 578.054 62.0788C578.116 62.1786 578.157 62.2898 578.175 62.4058C578.193 62.5218 578.188 62.6403 578.16 62.7542C578.131 62.8681 578.08 62.9751 578.01 63.069C577.939 63.1628 577.85 63.2416 577.749 63.3005L570.495 67.6339C570.393 67.6962 570.281 67.7377 570.163 67.756C570.046 67.7744 569.926 67.7692 569.81 67.7407C569.695 67.7123 569.586 67.6613 569.491 67.5905C569.395 67.5197 569.315 67.4306 569.254 67.3285C569.135 67.1203 569.102 66.8738 569.163 66.6418C569.223 66.4099 569.373 66.2109 569.578 66.0876L576.813 61.7543ZM576.813 63.9114L569.578 68.2639C569.475 68.3213 569.385 68.3988 569.312 68.4919C569.24 68.585 569.187 68.6918 569.157 68.8058C569.126 68.9198 569.119 69.0388 569.136 69.1556C569.153 69.2724 569.193 69.3846 569.254 69.4856C569.377 69.6913 569.576 69.8405 569.808 69.9012C570.04 69.9618 570.287 69.9292 570.495 69.8102L577.749 65.4767C577.931 65.3414 578.057 65.143 578.102 64.9202C578.146 64.6973 578.106 64.4658 577.989 64.2708C577.873 64.0757 577.688 63.9309 577.471 63.8645C577.253 63.7981 577.019 63.8148 576.813 63.9114ZM576.813 66.1831L569.578 70.5165C569.475 70.5757 569.384 70.655 569.311 70.7499C569.238 70.8447 569.185 70.9531 569.155 71.0686C569.125 71.1842 569.118 71.3046 569.135 71.4229C569.152 71.5412 569.192 71.6549 569.254 71.7573C569.38 71.9598 569.581 72.105 569.812 72.162C570.044 72.2191 570.289 72.1834 570.495 72.0627L577.749 67.7293C577.851 67.6685 577.94 67.588 578.011 67.4925C578.082 67.397 578.133 67.2883 578.161 67.1729C578.19 67.0574 578.195 66.9374 578.176 66.8199C578.158 66.7024 578.116 66.5898 578.054 66.4885C577.928 66.286 577.728 66.1408 577.496 66.0838C577.264 66.0267 577.019 66.0624 576.813 66.1831ZM576.813 90.0644C577.019 89.9678 577.253 89.9511 577.471 90.0175C577.688 90.0839 577.873 90.2287 577.989 90.4238C578.106 90.6189 578.146 90.8503 578.102 91.0731C578.057 91.296 577.931 91.4944 577.749 91.6298L570.495 95.9631C570.287 96.0821 570.04 96.1148 569.808 96.0542C569.576 95.9935 569.377 95.8443 569.254 95.6386C569.193 95.5377 569.153 95.4254 569.136 95.3086C569.119 95.1918 569.126 95.0729 569.157 94.9588C569.187 94.8448 569.24 94.738 569.312 94.6449C569.385 94.5518 569.475 94.4742 569.578 94.4169L576.813 90.0644ZM576.813 92.2406L569.578 96.574C569.475 96.6332 569.384 96.7126 569.311 96.8074C569.238 96.9022 569.185 97.0106 569.155 97.1262C569.125 97.2417 569.118 97.3622 569.135 97.4804C569.152 97.5987 569.192 97.7124 569.254 97.8148C569.38 98.0173 569.581 98.1625 569.812 98.2195C570.044 98.2766 570.289 98.241 570.495 98.1203L577.749 93.7869C577.954 93.6629 578.101 93.4624 578.158 93.2297C578.216 92.997 578.178 92.7511 578.054 92.546C577.93 92.341 577.73 92.1936 577.497 92.1364C577.264 92.0791 577.018 92.1166 576.813 92.2406ZM576.813 94.4932L569.578 98.8266C569.477 98.8868 569.388 98.9663 569.317 99.0608C569.247 99.1552 569.195 99.2627 569.166 99.377C569.137 99.4913 569.13 99.6103 569.147 99.7271C569.164 99.844 569.203 99.9564 569.263 100.058C569.324 100.159 569.403 100.248 569.498 100.319C569.592 100.39 569.699 100.441 569.814 100.47C569.928 100.5 570.047 100.506 570.164 100.489C570.281 100.473 570.393 100.433 570.495 100.373L577.749 96.0395C577.851 95.9787 577.94 95.8982 578.011 95.8026C578.082 95.7071 578.133 95.5984 578.161 95.483C578.19 95.3675 578.195 95.2476 578.176 95.1301C578.158 95.0126 578.116 94.9 578.054 94.7987C577.937 94.5865 577.741 94.4291 577.509 94.3612C577.276 94.2932 577.026 94.3201 576.813 94.436V94.4932Z" fill="#F5D596" stroke="#F5D596" stroke-width="0.419975" stroke-miterlimit="22.93"/>
</svg>
