<svg width="173" height="114" viewBox="0 0 173 114" fill="none" xmlns="http://www.w3.org/2000/svg">
<path d="M111.492 0H173V113.939H107.786V66.6112H115.197V106.964H165.589V6.97541H115.197V22.0397H107.786V0H111.492ZM170.036 2.96434H110.75V19.0754H112.233V4.01133C131.006 4.01133 149.78 4.01002 168.553 4.01133V109.928H112.233V91.712H110.75V110.975H170.036V2.96434Z" fill="#FEFEFE"/>
<path d="M114.617 107.545H166.171V6.3945H114.617V21.4588H108.368V0.581055H172.42V113.358H108.368V67.1924H114.617V107.545Z" fill="#FEFEFE"/>
<path d="M155.438 76.2441H162.811V80.8757H155.438V76.2441Z" fill="#FEFEFE"/>
<path d="M83.2236 23.4463H92.8265L108.341 55.3967L107.656 56.1406V23.4463H115.164V65.1168H105.503L90.0464 33.6559L90.7316 32.912V65.1168H83.2236V23.4463Z" fill="#FEFEFE"/>
<path d="M48.8354 50.8945H70.7719V58.4614H48.8354V50.8945Z" fill="#FEFEFE"/>
<path d="M57.1269 23.4463H62.1093L78.0552 65.1462H69.5978L59.6133 36.6707L49.6386 65.1462H41.1812L57.1269 23.4463Z" fill="#FEFEFE"/>
<path d="M26.234 23.4463H36.5903V65.1462H29.4544V32.7651L29.7382 34.6055L21.7605 60.4966H14.8202L6.85204 35.1731L7.13609 32.7651V65.1462H0V23.4463H10.3467L18.2953 51.5496L26.234 23.4463Z" fill="#FEFEFE"/>
<path d="M4.81695 73.6489V76.0305H4.09295V74.3135H0.724219V76.0305H0V73.6489H0.529038C0.741479 73.0129 0.897608 72.3424 0.995859 71.6357C1.09564 70.9276 1.14473 70.1645 1.14473 69.3466V68.1051H4.1868V73.6489H4.81695ZM1.9063 69.3883C1.9063 70.2033 1.86156 70.9595 1.7692 71.6544C1.67663 72.3481 1.52903 73.0129 1.32532 73.6489H3.42527V68.7698H1.9063V69.3883ZM9.21749 69.6905C9.21749 70.335 8.93999 70.7887 8.38214 71.0546C9.08147 71.2642 9.42994 71.7629 9.42994 72.5533C9.42994 73.0982 9.27229 73.5275 8.95723 73.8423C8.64239 74.1561 8.13063 74.3135 7.42257 74.3135H5.66804V68.1051H7.34747C7.97322 68.1051 8.44003 68.2466 8.75203 68.5285C9.06294 68.8117 9.21749 69.1993 9.21749 69.6905ZM6.42978 70.7671H7.32999C7.73762 70.7671 8.02801 70.6789 8.20158 70.5027C8.37341 70.325 8.46009 70.0749 8.46009 69.7496C8.46009 69.5459 8.42408 69.3726 8.35028 69.2295C8.2767 69.0863 8.14503 68.975 7.95442 68.8942C7.76512 68.8147 7.50487 68.7741 7.17387 68.7741H6.42978V70.7671ZM6.42978 73.6445H7.28675C7.58587 73.6445 7.83434 73.614 8.03237 73.552C8.2304 73.4898 8.38367 73.3771 8.4948 73.2122C8.60463 73.0491 8.65966 72.8179 8.65966 72.5188C8.65966 72.2514 8.60748 72.0389 8.50487 71.8799C8.40247 71.7225 8.24633 71.6084 8.03826 71.5402C7.83149 71.4708 7.56143 71.4363 7.23174 71.4363H6.42978V73.6445ZM11.2565 68.7741V70.7846H13.3912V71.4536H11.2565V73.6445H13.7814V74.3135H10.495V68.1051H13.6628V68.7741H11.2565ZM18.5837 69.942C18.5837 70.5591 18.4016 71.0158 18.0374 71.309C17.6732 71.6025 17.1241 71.7483 16.3898 71.7483H15.6139V74.3135H14.8521V68.1051H16.4071C17.1298 68.1051 17.6732 68.2569 18.0374 68.5619C18.4016 68.8667 18.5837 69.3263 18.5837 69.942ZM15.6139 71.088H16.3682C16.8623 71.088 17.2252 70.9926 17.4549 70.8018C17.6848 70.6125 17.8003 70.3206 17.8003 69.9289C17.8003 69.5431 17.6848 69.2525 17.4549 69.0575C17.2252 68.8623 16.8654 68.7656 16.3767 68.7656H15.6139V71.088ZM23.5652 74.3135H22.8369L22.9091 69.1717H22.9004L20.4334 74.3135H19.5937V68.1051H20.3264L20.2629 73.2297H20.2716L22.7384 68.1051H23.5652V74.3135ZM30.5236 74.3135V71.3712H28.0857V74.3135H27.3241V68.1051H28.0857V70.7152H30.5236V68.1051H31.2854V74.3135H30.5236ZM36.897 71.192C36.897 72.2081 36.7162 73 36.3549 73.5664C35.9922 74.1345 35.4316 74.4177 34.6715 74.4177C33.9445 74.4177 33.381 74.1533 32.9805 73.6258C32.5803 73.0983 32.3808 72.2729 32.3808 71.15C32.3808 70.1197 32.5744 69.3379 32.9605 68.8032C33.3463 68.2685 33.9126 68.001 34.6628 68.001C35.1265 68.001 35.5241 68.1152 35.8564 68.3436C36.1887 68.572 36.4446 68.9245 36.6252 69.3999C36.8073 69.8754 36.897 70.4724 36.897 71.192ZM33.1511 71.2729C33.1511 72.1242 33.2825 72.7498 33.5441 73.1474C33.8059 73.5463 34.1729 73.7443 34.6453 73.7443C35.6324 73.7443 36.1268 72.9089 36.1268 71.2382C36.1268 70.3813 36.001 69.738 35.751 69.3118C35.501 68.8839 35.1224 68.6702 34.6165 68.6702C34.0862 68.6702 33.7104 68.8899 33.4864 69.3307C33.2637 69.77 33.1511 70.4173 33.1511 71.2729ZM41.5373 69.6905C41.5373 70.335 41.2601 70.7887 40.7022 71.0546C41.4015 71.2642 41.7498 71.7629 41.7498 72.5533C41.7498 73.0982 41.5924 73.5275 41.2773 73.8423C40.9622 74.1561 40.4507 74.3135 39.7426 74.3135H37.9881V68.1051H39.6673C40.293 68.1051 40.7598 68.2466 41.0721 68.5285C41.3828 68.8117 41.5373 69.1993 41.5373 69.6905ZM38.7496 70.7671H39.65C40.0574 70.7671 40.348 70.6789 40.5214 70.5027C40.6934 70.325 40.7802 70.0749 40.7802 69.7496C40.7802 69.5459 40.7441 69.3726 40.6703 69.2295C40.5967 69.0863 40.4651 68.975 40.2743 68.8942C40.085 68.8147 39.8249 68.7741 39.4939 68.7741H38.7496V70.7671ZM38.7496 73.6445H39.6066C39.9059 73.6445 40.1544 73.614 40.3524 73.552C40.5502 73.4898 40.7035 73.3771 40.8149 73.2122C40.9247 73.0491 40.9797 72.8179 40.9797 72.5188C40.9797 72.2514 40.9275 72.0389 40.8249 71.8799C40.7223 71.7225 40.5664 71.6084 40.3581 71.5402C40.1516 71.4708 39.8812 71.4363 39.5518 71.4363H38.7496V73.6445ZM47.0536 71.192C47.0536 72.2081 46.873 73 46.5117 73.5664C46.149 74.1345 45.5883 74.4177 44.8281 74.4177C44.1012 74.4177 43.5375 74.1533 43.1371 73.6258C42.7369 73.0983 42.5375 72.2729 42.5375 71.15C42.5375 70.1197 42.7312 69.3379 43.117 68.8032C43.5028 68.2685 44.0694 68.001 44.8194 68.001C45.2833 68.001 45.6807 68.1152 46.013 68.3436C46.3455 68.572 46.6012 68.9245 46.782 69.3999C46.9641 69.8754 47.0536 70.4724 47.0536 71.192ZM43.3078 71.2729C43.3078 72.1242 43.4393 72.7498 43.7008 73.1474C43.9624 73.5463 44.3294 73.7443 44.8021 73.7443C45.7892 73.7443 46.2833 72.9089 46.2833 71.2382C46.2833 70.3813 46.1576 69.738 45.9076 69.3118C45.6578 68.8839 45.2789 68.6702 44.7731 68.6702C44.2427 68.6702 43.867 68.8899 43.643 69.3307C43.4205 69.77 43.3078 70.4173 43.3078 71.2729ZM48.9064 68.7656V74.3135H48.1448V68.1051H51.1362V68.7656H48.9064ZM55.839 71.192C55.839 72.2081 55.6582 73 55.2969 73.5664C54.9342 74.1345 54.3735 74.4177 53.6133 74.4177C52.8864 74.4177 52.3229 74.1533 51.9225 73.6258C51.5223 73.0983 51.3227 72.2729 51.3227 71.15C51.3227 70.1197 51.5164 69.3379 51.9022 68.8032C52.288 68.2685 52.8546 68.001 53.6048 68.001C54.0685 68.001 54.4661 68.1152 54.7984 68.3436C55.1307 68.572 55.3866 68.9245 55.5672 69.3999C55.7493 69.8754 55.839 70.4724 55.839 71.192ZM52.093 71.2729C52.093 72.1242 52.2244 72.7498 52.486 73.1474C52.7478 73.5463 53.1148 73.7443 53.5873 73.7443C54.5744 73.7443 55.0687 72.9089 55.0687 71.2382C55.0687 70.3813 54.9429 69.738 54.6929 69.3118C54.4429 68.8839 54.0644 68.6702 53.5585 68.6702C53.0279 68.6702 52.6524 68.8899 52.4284 69.3307C52.2057 69.77 52.093 70.4173 52.093 71.2729ZM62.5214 74.3135V68.7698H60.0834V74.3135H59.3219V68.1051H63.2829V74.3135H62.5214ZM68.8946 71.192C68.8946 72.2081 68.7141 73 68.3527 73.5664C67.9901 74.1345 67.4293 74.4177 66.6691 74.4177C65.9422 74.4177 65.3785 74.1533 64.9783 73.6258C64.5779 73.0983 64.3786 72.2729 64.3786 71.15C64.3786 70.1197 64.5722 69.3379 64.958 68.8032C65.3438 68.2685 65.9104 68.001 66.6604 68.001C67.1244 68.001 67.5217 68.1152 67.8542 68.3436C68.1866 68.572 68.4422 68.9245 68.623 69.3999C68.8051 69.8754 68.8946 70.4724 68.8946 71.192ZM65.1488 71.2729C65.1488 72.1242 65.2803 72.7498 65.5418 73.1474C65.8034 73.5463 66.1706 73.7443 66.6431 73.7443C67.6302 73.7443 68.1243 72.9089 68.1243 71.2382C68.1243 70.3813 67.9986 69.738 67.7488 69.3118C67.4988 68.8839 67.12 68.6702 66.6143 68.6702C66.0837 68.6702 65.7082 68.8899 65.484 69.3307C65.2615 69.77 65.1488 70.4173 65.1488 71.2729ZM73.3777 68.7872C73.2533 68.7872 73.155 68.8278 73.0799 68.9114C73.0048 68.994 72.9325 69.1311 72.8618 69.3191L72.655 69.8638C72.5626 70.1125 72.4817 70.3075 72.4138 70.4477C72.3459 70.5894 72.2736 70.7035 72.197 70.7902C72.119 70.8769 72.0264 70.9435 71.9194 70.9883V71.0055C72.0524 71.0533 72.1681 71.1241 72.2662 71.2151C72.3646 71.3077 72.4642 71.4391 72.5639 71.6125C72.6637 71.7845 72.7836 72.0273 72.921 72.3424L73.7836 74.3135H72.915L72.1954 72.5795C72.0552 72.2397 71.9367 71.9883 71.8428 71.8236C71.7474 71.6603 71.6363 71.5374 71.5061 71.4566C71.376 71.3769 71.207 71.3365 70.9974 71.3365H70.7474V74.3135H69.9858V68.1051H70.7474V70.6544H70.973C71.1651 70.6544 71.3125 70.6269 71.4151 70.5721C71.5177 70.5171 71.6072 70.4217 71.681 70.2844C71.7561 70.1473 71.85 69.9232 71.9629 69.6095L72.1666 69.056C72.288 68.7237 72.431 68.4822 72.5958 68.332C72.762 68.1802 72.9788 68.1051 73.246 68.1051H73.6189V68.7872H73.3777ZM78.5223 71.192C78.5223 72.2081 78.3418 73 77.9804 73.5664C77.6178 74.1345 77.0571 74.4177 76.2969 74.4177C75.57 74.4177 75.0063 74.1533 74.6061 73.6258C74.2056 73.0983 74.0063 72.2729 74.0063 71.15C74.0063 70.1197 74.2 69.3379 74.5858 68.8032C74.9716 68.2685 75.5381 68.001 76.2881 68.001C76.7521 68.001 77.1494 68.1152 77.4818 68.3436C77.8143 68.572 78.07 68.9245 78.2507 69.3999C78.4328 69.8754 78.5223 70.4724 78.5223 71.192ZM74.7766 71.2729C74.7766 72.1242 74.908 72.7498 75.1696 73.1474C75.4311 73.5463 75.7984 73.7443 76.2709 73.7443C77.258 73.7443 77.7521 72.9089 77.7521 71.2382C77.7521 70.3813 77.6263 69.738 77.3763 69.3118C77.1265 68.8839 76.7477 68.6702 76.2421 68.6702C75.7115 68.6702 75.3358 68.8899 75.1117 69.3307C74.8893 69.77 74.7766 70.4173 74.7766 71.2729ZM79.2494 73.698C79.4097 73.698 79.5311 73.6301 79.6136 73.4928C79.6959 73.3555 79.7363 73.1371 79.7363 72.838V68.1051H83.1078V74.3135H82.3463V68.8204H80.4981V72.8843C80.4981 73.429 80.4083 73.8208 80.2278 74.0592C80.047 74.2978 79.7782 74.4177 79.4228 74.4177C79.2204 74.4177 79.0239 74.383 78.8346 74.3122L78.9531 73.6301C79.0599 73.6749 79.1597 73.698 79.2494 73.698ZM85.241 68.7741V70.7846H87.3756V71.4536H85.241V73.6445H87.7658V74.3135H84.4794V68.1051H87.6472V68.7741H85.241ZM92.0363 74.3135V71.3712H89.5983V74.3135H88.8365V68.1051H89.5983V70.7152H92.0363V68.1051H92.7978V74.3135H92.0363ZM98.1422 74.3135H97.4139L97.4861 69.1717H97.4774L95.0104 74.3135H94.1709V68.1051H94.9034L94.8399 73.2297H94.8486L97.3156 68.1051H98.1422V74.3135ZM103.115 74.3135H102.353V71.5274H102.121C101.822 71.5274 101.59 71.5518 101.427 71.5996C101.264 71.6472 101.122 71.7442 101.002 71.89C100.882 72.0361 100.751 72.2657 100.606 72.5795L99.7955 74.3135H98.911L99.7795 72.4725C99.9068 72.1935 100.05 71.9666 100.206 71.7946C100.363 71.6227 100.524 71.5057 100.687 71.4463C100.404 71.3985 100.164 71.2975 99.9675 71.1429C99.7708 70.9868 99.6221 70.7931 99.5208 70.559C99.4212 70.3249 99.3706 70.0647 99.3706 69.78C99.3706 69.2553 99.5411 68.8451 99.8806 68.5488C100.22 68.2525 100.723 68.1051 101.39 68.1051H103.115V74.3135ZM102.353 68.7612H101.491C101.064 68.7612 100.735 68.8391 100.501 68.9953C100.267 69.1527 100.15 69.4245 100.15 69.8147C100.15 70.1833 100.261 70.452 100.482 70.6197C100.703 70.7874 101.051 70.8712 101.524 70.8712H102.353V68.7612Z" fill="#FEFEFE"/>
<path d="M120.603 23.4463H128.111H152.677H154.123H160.185V65.1168H154.123H152.677H128.111H120.603V57.6089V30.9542V23.4463ZM151.782 56.6371V31.926H129.007V56.6371H151.782Z" fill="#FEFEFE"/>
<path d="M121.351 24.2344H128.575H152.213H153.604H159.437V64.3298H153.604H152.213H128.575H121.351V57.1055V31.4585V24.2344ZM152.213 57.1055V31.4585H128.575V57.1055H152.213Z" fill="#FEFEFE"/>
</svg>
